<?xml version="1.0" encoding="UTF-8"?>
<svg version="1.1" xmlns="http://www.w3.org/2000/svg" width="1024" height="1024">
<path d="M0 0 C337.92 0 675.84 0 1024 0 C1024 337.92 1024 675.84 1024 1024 C686.08 1024 348.16 1024 0 1024 C0 686.08 0 348.16 0 0 Z " fill="#03C8A6" transform="translate(0,0)"/>
<path d="M0 0 C337.92 0 675.84 0 1024 0 C1024 337.92 1024 675.84 1024 1024 C686.08 1024 348.16 1024 0 1024 C0 686.08 0 348.16 0 0 Z M40 47 C31.23453022 59.18251733 29.54436453 71.31336659 29.61688995 86.03461075 C29.61314676 87.52918624 29.60809358 89.02375892 29.60186112 90.5183261 C29.58857012 94.61229147 29.59381666 98.70605141 29.60219461 102.80002195 C29.60801483 107.25899128 29.59644425 111.71792186 29.58713293 116.1768806 C29.57323149 123.98764217 29.5704838 131.79834582 29.57509232 139.60911751 C29.58192768 151.22424712 29.57166262 162.83931815 29.55813476 174.45443962 C29.53322495 196.40650069 29.52870573 218.35853744 29.53060073 240.31061038 C29.53197379 257.26242312 29.5281562 274.21422743 29.52067566 291.16603851 C29.51962532 293.60148719 29.51857771 296.03693587 29.5175328 298.47238456 C29.51701345 299.6813317 29.51649411 300.89027884 29.51595903 302.13586075 C29.51543888 303.34702008 29.51491874 304.5581794 29.51438284 305.80604053 C29.51385885 307.01922737 29.51333486 308.23241421 29.51279498 309.4823643 C29.49821147 343.60473483 29.4899293 377.72710227 29.49454498 411.84947586 C29.49471694 413.13585146 29.49488889 414.42222706 29.49506606 415.74758374 C29.49595495 422.26744085 29.49689976 428.78729795 29.49786407 435.30715504 C29.4980551 436.60201826 29.49824613 437.89688147 29.49844296 439.23098296 C29.49883005 441.84951097 29.49922038 444.46803898 29.49961393 447.08656698 C29.50558402 487.83133478 29.49014534 528.57604579 29.45800781 569.32080078 C29.42193088 615.09884887 29.40259816 660.87686095 29.40754652 706.65492415 C29.4080165 711.53618224 29.40842675 716.41744033 29.40879822 721.29869843 C29.4089006 722.50058572 29.40900299 723.70247302 29.40910848 724.94078114 C29.41030327 743.08368837 29.39833662 761.22655668 29.37965393 779.36945343 C29.35841607 800.00366978 29.35456801 820.6378045 29.37395352 841.27202448 C29.38427924 852.81763225 29.38081077 864.3630409 29.35742267 875.90863067 C29.34317863 883.62460926 29.34717081 891.3404407 29.36586843 899.05640939 C29.37600673 903.45019743 29.37838265 907.84359825 29.35854775 912.23736194 C29.34062898 916.24290265 29.34616156 920.24773315 29.36957614 924.25323927 C29.37398761 925.68517182 29.37022413 927.11716209 29.35676779 928.54903821 C29.20337827 946.07286153 34.33605062 960.83083305 46.3125 973.8125 C55.90234934 982.76885132 67.99816582 989.12138077 81.19962466 989.1276505 C82.45798245 989.13066647 83.71634024 989.13368244 85.01283008 989.1367898 C86.40950679 989.13509085 87.80618339 989.13330012 89.20285988 989.13142776 C90.69249224 989.13307752 92.18212417 989.13516384 93.67175537 989.13764787 C97.78454453 989.14322281 101.89731289 989.14254059 106.01010461 989.14087028 C110.47728892 989.14014033 114.94446731 989.14515942 119.41164911 989.1494453 C128.28045224 989.15703326 137.14924936 989.15921876 146.0180554 989.15977435 C156.6375094 989.1606872 167.25695781 989.16735239 177.87640941 989.17412117 C203.54494826 989.19019142 229.21348653 989.19608553 254.88202952 989.20086992 C267.02128895 989.20320475 279.16054791 989.20680726 291.29980698 989.2105653 C332.84146024 989.22340143 374.38311324 989.23412079 415.92476845 989.2375679 C418.53316665 989.23778954 421.14156486 989.23801132 423.74996307 989.23823325 C426.36471468 989.23845389 428.97946629 989.23867438 431.5942179 989.2388947 C436.83999292 989.23933726 442.08576794 989.23978437 447.33154297 989.24023438 C448.63219302 989.24034377 449.93284306 989.24045316 451.27290675 989.24056586 C493.45618967 989.24419732 535.63945542 989.26012039 577.82273176 989.28342474 C622.40570257 989.30800985 666.98866355 989.32174012 711.57164133 989.32293582 C716.46387188 989.32310728 721.35610243 989.32332271 726.24833298 989.32357025 C727.45296604 989.32362602 728.65759911 989.32368179 729.8987362 989.32373925 C749.30098444 989.32489082 768.70321507 989.33592179 788.10545736 989.35045731 C807.60001409 989.36480966 827.09454821 989.36806642 846.58910878 989.36001733 C858.17567928 989.35555518 869.76217691 989.35944506 881.34873786 989.37525584 C889.08588209 989.38498819 896.82297511 989.38384428 904.56011884 989.37381961 C908.97015364 989.368415 913.38004824 989.36775789 917.79007156 989.38032833 C921.80450549 989.39167578 925.81868529 989.38913358 929.83311046 989.37566125 C931.27394505 989.37323193 932.71479927 989.37579474 934.15561221 989.38405773 C950.9961154 989.47426375 965.57009985 985.02056406 978.0078125 973.15234375 C990.78011692 959.35324623 994.31551781 943.63351427 994.25447559 925.35459423 C994.25686768 923.86571771 994.26013431 922.37684238 994.26419219 920.88796946 C994.27280535 916.79589937 994.26898858 912.70392109 994.26313647 908.6118496 C994.25896505 904.16017886 994.26636876 899.70852485 994.27228898 895.25685817 C994.28105483 887.45437018 994.28236172 879.65190843 994.27878571 871.84941673 C994.27348203 860.24675603 994.27957064 848.64412077 994.28786864 837.04146284 C994.30311907 815.11431297 994.30481263 793.18717464 994.30234561 771.26002058 C994.30051381 754.32908001 994.30227018 737.39814323 994.30657005 720.46720314 C994.30717245 718.03578412 994.30777365 715.60436509 994.30837366 713.17294607 C994.3092809 709.50914419 994.31018956 705.84534231 994.31110601 702.18154044 C994.31953716 668.11168427 994.32387011 634.04182953 994.31969929 599.97197247 C994.31954291 598.68726366 994.31938654 597.40255486 994.31922542 596.07891549 C994.31841962 589.56732716 994.31757385 583.05573882 994.31671212 576.54415049 C994.31654103 575.25090135 994.31636994 573.95765221 994.31619367 572.6252137 C994.31584702 570.00994913 994.31549849 567.39468457 994.31514808 564.77942 C994.30979039 524.08218615 994.31772202 483.38497396 994.33618164 442.68774414 C994.35689141 396.97604893 994.36762632 351.26436713 994.36360615 305.55266696 C994.3632108 300.67985936 994.36284926 295.80705176 994.36250877 290.93424416 C994.36241804 289.73441397 994.36232731 288.53458378 994.36223383 287.2983951 C994.36106721 269.17523452 994.36772109 251.05208748 994.37832069 232.92893028 C994.39036124 212.32089344 994.39194487 191.71288646 994.37953053 171.10484918 C994.37289288 159.56957132 994.37455386 148.0343648 994.38811904 136.49909262 C994.39634914 128.79500075 994.39368474 121.09096245 994.38214377 113.38687496 C994.37587309 108.99661152 994.37432331 104.60648753 994.38600711 100.21623202 C994.39654812 96.21861292 994.39316754 92.22125136 994.37890258 88.22364601 C994.3761845 86.79003116 994.37843696 85.35639554 994.38640973 83.92280028 C994.48519657 64.85099714 989.31976728 52.55509886 976 39 C975.43539062 38.4225 974.87078125 37.845 974.2890625 37.25 C962.31309668 26.03348567 946.8162208 23.53956472 931.08285046 23.61688995 C929.58883521 23.61314783 928.09482279 23.6080953 926.60081586 23.60186112 C922.50375784 23.58855553 918.40690478 23.59382231 914.30984152 23.60219461 C909.8492874 23.60801004 905.38877219 23.5964473 900.92822868 23.58713293 C893.11319368 23.57322567 885.29821657 23.57048547 877.48317146 23.57509232 C865.86177829 23.58192516 854.24044373 23.57166586 842.6190587 23.55813476 C820.6558338 23.5332199 798.6926332 23.52870597 776.72939643 23.53060073 C759.76991482 23.53197355 742.81044164 23.52815734 725.85096169 23.52067566 C723.41479287 23.51962533 720.97862405 23.51857771 718.54245523 23.5175328 C717.33316016 23.51701345 716.12386509 23.51649411 714.87792472 23.51595903 C713.66642297 23.51543888 712.45492122 23.51491874 711.2067073 23.51438284 C709.99318489 23.51385885 708.77966249 23.51333486 707.52936668 23.51279498 C673.39592149 23.49821074 639.26247941 23.48992964 605.12903118 23.49454498 C603.84213913 23.49471694 602.55524708 23.49488889 601.2293583 23.49506606 C594.70681444 23.49595495 588.18427058 23.49689977 581.66172674 23.49786407 C580.36631879 23.4980551 579.07091084 23.49824613 577.7362481 23.49844296 C575.11661856 23.49883005 572.49698902 23.49922038 569.87735948 23.49961393 C529.11263378 23.50558444 488.34796485 23.49014381 447.58325195 23.45800781 C401.7880174 23.42193676 355.99281884 23.40259734 310.19756919 23.40754652 C305.315208 23.4080165 300.43284681 23.40842675 295.55048561 23.40879822 C294.34831697 23.4089006 293.14614833 23.40900299 291.90755033 23.40910848 C273.75490101 23.41030362 255.60229057 23.39833211 237.44965172 23.37965393 C216.80657048 23.35842354 196.16357083 23.35456039 175.52048596 23.37395352 C163.96779749 23.38428499 152.41530797 23.38079614 140.86263745 23.35742267 C133.1444563 23.3431912 125.42642237 23.34715543 117.70825115 23.36586843 C113.31154712 23.37601842 108.91523033 23.37835113 104.51855048 23.35854775 C100.51269225 23.34066764 96.50754536 23.3461152 92.50172211 23.36957614 C91.06742963 23.37399836 89.63307979 23.37018962 88.1988433 23.35676779 C68.05669525 23.1811561 52.90115569 31.83509808 40 47 Z " fill="#EFF1F1" transform="translate(0,0)"/>
<path d="M0 0 C1.65282993 0.03150725 3.30587268 0.05565427 4.95898438 0.06347656 C23.46529655 0.15595945 42.92631892 5.60771592 59.79199219 13.05322266 C60.53465332 13.37661621 61.27731445 13.70000977 62.04248047 14.03320312 C77.49615272 20.83840267 91.99276486 28.94736389 104.79199219 40.05322266 C105.56285156 40.71451172 106.33371094 41.37580078 107.12792969 42.05712891 C134.44100628 66.05551174 155.14861084 95.25025077 163.79199219 131.05322266 C164.23844474 132.58620189 164.68648353 134.11871968 165.13574219 135.65087891 C168.62337632 148.39878296 169.28014474 160.79392759 169.29199219 173.92822266 C169.29630249 174.74894257 169.30061279 175.56966248 169.30505371 176.41525269 C169.40796636 222.17307556 148.95227881 263.70373028 119.171875 297.47167969 C115.5968507 301.56916861 112.1981914 305.81543184 108.79199219 310.05322266 C108.23511719 310.74029297 107.67824219 311.42736328 107.10449219 312.13525391 C86.82511554 337.63072022 71.88822474 364.12017615 64.79199219 396.05322266 C15.62199219 396.05322266 -33.54800781 396.05322266 -84.20800781 396.05322266 C-85.85800781 388.79322266 -87.50800781 381.53322266 -89.20800781 374.05322266 C-90.51291478 370.26681358 -91.72725248 366.87761488 -93.39550781 363.30322266 C-93.77570068 362.45381104 -94.15589355 361.60439941 -94.54760742 360.72924805 C-104.54996179 338.83726422 -118.01190072 318.76445826 -133.70800781 300.55322266 C-164.9454264 264.2724096 -184.65731957 222.15123094 -184.64550781 173.74072266 C-184.64657532 172.81180206 -184.64764282 171.88288147 -184.64874268 170.92581177 C-184.62411876 156.07071381 -183.56615128 142.34605878 -179.20800781 128.05322266 C-178.99402344 127.31072266 -178.78003906 126.56822266 -178.55957031 125.80322266 C-172.8877096 106.47688245 -163.37588442 88.04735433 -151.20800781 72.05322266 C-150.5209375 71.13669922 -149.83386719 70.22017578 -149.12597656 69.27587891 C-124.74226323 37.84025662 -88.61541948 13.02101341 -49.52050781 4.42822266 C-48.55991455 4.21657471 -47.59932129 4.00492676 -46.60961914 3.78686523 C-30.97689892 0.42963386 -15.96732404 -0.30870494 0 0 Z " fill="#FCD61F" transform="translate(522.2080078125,294.94677734375)"/>
<path d="M0 0 C3.33794563 2.77595371 6.57623006 5.64244886 9.75488281 8.60058594 C11.62423389 10.33212096 13.54108373 11.9597379 15.50878906 13.57714844 C19.37181916 16.88576218 22.58466525 20.60016567 25.82128906 24.51464844 C26.25602539 25.03172363 26.69076172 25.54879883 27.13867188 26.08154297 C47.46507496 50.32853024 62.51285599 79.0261184 67.48144531 110.47851562 C67.83167112 112.57685129 68.24179579 114.65645187 68.66503906 116.74121094 C77.74980816 162.97305186 63.16192193 211.69605803 37.71191406 250.32714844 C34.07663356 255.6864259 30.04326041 260.60537943 25.82128906 265.51464844 C24.62444092 267.04906914 23.43654644 268.59052613 22.25878906 270.13964844 C19.95318833 273.13269892 17.55004094 275.96927137 15.00878906 278.76464844 C9.92784899 284.4134007 5.35468933 290.42595639 0.82128906 296.51464844 C0.40057129 297.07845215 -0.02014648 297.64225586 -0.45361328 298.22314453 C-14.80868088 317.57512438 -33.72699908 344.51064793 -33.53808594 369.58886719 C-32.92276435 372.88618831 -30.66279003 374.44458253 -28.17871094 376.51464844 C-24.57433592 381.92121096 -25.56581814 389.21856783 -26.17871094 395.51464844 C-27.35212817 398.73570212 -28.86451769 401.00925404 -31.17871094 403.51464844 C-32.26152344 404.75214844 -32.26152344 404.75214844 -33.36621094 406.01464844 C-35.17871094 407.51464844 -35.17871094 407.51464844 -37.17871094 407.51464844 C-36.53933594 408.44277344 -35.89996094 409.37089844 -35.24121094 410.32714844 C-31.96278531 415.39380622 -31.50996745 419.62599052 -32.17871094 425.51464844 C-34.31140514 432.67771919 -37.93886369 437.35475027 -44.17871094 441.51464844 C-44.83526952 443.59585113 -44.83526952 443.59585113 -45.11621094 446.01464844 C-46.88699407 455.84603641 -49.98959243 463.38978534 -58.17871094 469.51464844 C-63.16194441 472.34744091 -67.39340713 474.51464844 -73.17871094 474.51464844 C-73.42492187 475.40152344 -73.67113281 476.28839844 -73.92480469 477.20214844 C-77.14407235 485.70663122 -85.25066197 492.38895901 -93.17871094 496.51464844 C-108.78512693 503.28395858 -126.34032754 503.56073318 -142.30371094 497.76464844 C-150.85752243 494.13697564 -160.08259905 487.39995376 -163.99121094 478.76464844 C-166.80324868 474.5867638 -168.87377967 474.45077147 -173.58496094 473.30761719 C-180.46463464 471.20434345 -186.21002114 465.37437537 -190.17871094 459.51464844 C-192.37038204 455.26440367 -193.23128034 451.16062255 -193.86621094 446.45214844 C-194.79606351 441.23861608 -197.13892754 439.43523522 -201.20214844 436.28808594 C-205.02341692 432.85951699 -206.71120775 428.41101878 -207.51855469 423.40917969 C-207.6925752 419.81043548 -207.09547823 416.98342448 -205.61621094 413.76464844 C-204.09781516 410.33175363 -203.90913354 409.82324407 -205.17871094 406.51464844 C-206.50073526 404.69293502 -206.50073526 404.69293502 -208.11621094 403.01464844 C-212.46120412 398.31735851 -213.47032079 395.11559488 -213.49121094 388.63964844 C-213.50796875 387.44597656 -213.52472656 386.25230469 -213.54199219 385.02246094 C-213.14318392 381.17160258 -212.20340571 378.79522699 -210.17871094 375.51464844 C-209.25058594 374.83402344 -208.32246094 374.15339844 -207.36621094 373.45214844 C-204.73304219 369.91617898 -204.94757283 369.08031716 -205.49121094 364.82714844 C-212.44919945 330.38704887 -233.60719859 299.91346635 -256.25537109 273.77563477 C-293.70170462 230.47789174 -309.68508452 178.3547096 -305.86816406 121.47998047 C-301.63618721 76.1825581 -274.45459042 32.05617853 -240.11621094 3.13964844 C-221.84048379 -11.42945236 -202.6279538 -22.88109079 -180.74121094 -31.11035156 C-179.97832764 -31.39990723 -179.21544434 -31.68946289 -178.42944336 -31.98779297 C-167.43707609 -36.02960007 -156.26611528 -38.14417025 -144.67871094 -39.67285156 C-143.69809189 -39.80267426 -143.69809189 -39.80267426 -142.69766235 -39.93511963 C-92.25654912 -46.51449536 -39.53724458 -32.19881804 0 0 Z M-153.17871094 -26.48535156 C-153.91492676 -26.3514502 -154.65114258 -26.21754883 -155.40966797 -26.07958984 C-180.5725774 -21.3604718 -205.09101429 -9.18607998 -225.17871094 6.51464844 C-226.11585938 7.24167969 -227.05300781 7.96871094 -228.01855469 8.71777344 C-239.18950392 17.62888933 -249.57570735 27.05939455 -258.17871094 38.51464844 C-258.58186523 39.04815918 -258.98501953 39.58166992 -259.40039062 40.13134766 C-273.29997677 58.64098102 -283.88797249 79.20854127 -290.17871094 101.51464844 C-290.49630371 102.58489258 -290.49630371 102.58489258 -290.8203125 103.67675781 C-294.55634939 116.8091347 -294.57150923 130.15664277 -294.61621094 143.70214844 C-294.62560699 145.04031616 -294.62560699 145.04031616 -294.63519287 146.40551758 C-294.70745504 162.71055964 -292.97889416 178.28744396 -288.05371094 193.88964844 C-287.60584229 195.32836304 -287.60584229 195.32836304 -287.14892578 196.79614258 C-283.94738169 206.73894306 -279.85285336 216.18244667 -275.17871094 225.51464844 C-274.83114746 226.21106445 -274.48358398 226.90748047 -274.12548828 227.625 C-266.50712404 242.60139521 -256.24458074 255.98942084 -245.29248047 268.67260742 C-234.82184983 280.83988573 -225.53500776 293.8179832 -217.17871094 307.51464844 C-216.78200195 308.16224121 -216.38529297 308.80983398 -215.9765625 309.47705078 C-211.25692935 317.2725555 -207.15780158 325.3260709 -203.42871094 333.63964844 C-202.89963135 334.77225098 -202.89963135 334.77225098 -202.35986328 335.92773438 C-198.04994166 345.8985995 -196.66912266 355.55683686 -194.17871094 366.51464844 C-145.00871094 366.51464844 -95.83871094 366.51464844 -45.17871094 366.51464844 C-43.85871094 360.90464844 -42.53871094 355.29464844 -41.17871094 349.51464844 C-35.03918674 330.94633136 -25.91878776 313.99821123 -14.40722656 298.20605469 C-13.2964226 296.6767125 -12.21245761 295.12796428 -11.13183594 293.57714844 C-7.01585147 287.72632754 -2.50956569 282.31569068 2.17944336 276.92529297 C6.73998125 271.66672089 11.04576598 266.23663451 15.30566406 260.73339844 C17.41060656 258.01754782 19.60734449 255.39258264 21.82128906 252.76464844 C46.09395823 222.42381198 59.25307191 183.43563323 59.32128906 144.88964844 C59.32363556 144.0400354 59.32598206 143.19042236 59.32839966 142.31506348 C59.29564328 113.45567964 51.63268764 86.76755723 37.82128906 61.51464844 C37.48403809 60.89138672 37.14678711 60.268125 36.79931641 59.62597656 C21.97935481 32.58851458 -1.47494323 9.69431796 -28.17871094 -5.48535156 C-29.15348389 -6.04053467 -29.15348389 -6.04053467 -30.14794922 -6.60693359 C-40.18802292 -12.2617423 -50.29208097 -16.73730629 -61.17871094 -20.48535156 C-62.16871094 -20.85273438 -63.15871094 -21.22011719 -64.17871094 -21.59863281 C-77.98210179 -26.56401924 -92.53364695 -29.18130179 -107.17871094 -29.48535156 C-108.53609375 -29.52402344 -108.53609375 -29.52402344 -109.92089844 -29.56347656 C-124.63150829 -29.94557032 -138.71294186 -29.2179398 -153.17871094 -26.48535156 Z " fill="#082126" transform="translate(632.1787109375,324.4853515625)"/>
<path d="M0 0 C0.33 0.66 0.66 1.32 1 2 C0.67 2.66 0.34 3.32 0 4 C0.54261475 3.97381592 1.08522949 3.94763184 1.64428711 3.9206543 C28.51863924 2.83312545 55.3753547 7.00759117 81.8125 11.5 C82.88862549 11.67684326 83.96475098 11.85368652 85.07348633 12.03588867 C94.64094277 13.77383588 103.52092474 16.6157752 111 23 C110.875 25.25 110.875 25.25 110 28 C102.01972936 34.93023503 90.46859027 36.77809743 80.375 38.5625 C79.34632813 38.75779297 78.31765625 38.95308594 77.2578125 39.15429688 C57.59301461 42.73077374 37.62655976 44.54805262 17.6875 45.6875 C16.07110626 45.78180801 16.07110626 45.78180801 14.42205811 45.87802124 C-6.83382608 47.07491926 -28.07830602 47.29766579 -49.36281967 47.31052017 C-51.84456006 47.31247601 -54.32627914 47.31759066 -56.80801392 47.3230896 C-74.21752797 47.35178405 -91.45134691 47.08876031 -108.78234863 45.22775269 C-111.83369856 44.9143792 -114.88832713 44.70383823 -117.94921875 44.5078125 C-139.17896575 43.10777353 -160.50787251 40.94371174 -181 35 C-181.9796875 34.74347656 -182.959375 34.48695313 -183.96875 34.22265625 C-189.34836716 32.75908393 -193.97106297 31.02893703 -198 27 C-198.5 24.75 -198.5 24.75 -198 22 C-192.32890388 16.97657781 -186.68442736 15.5359273 -179.375 14 C-177.67875488 13.6282666 -177.67875488 13.6282666 -175.94824219 13.24902344 C-145.48403457 6.7156149 -115.1830087 3 -84 3 C-82.37890625 4.5390625 -82.37890625 4.5390625 -80.5625 6.625 C-71.804947 15.75487041 -59.37986063 19.57237218 -47.01953125 20.203125 C-29.95935957 20.51901685 -16.75485609 16.88345834 -4.03125 5.0859375 C-1.84993547 2.97323467 -1.84993547 2.97323467 0 0 Z " fill="#02A7A3" transform="translate(556,805)"/>
<path d="M0 0 C1.53333984 0.00676758 1.53333984 0.00676758 3.09765625 0.01367188 C5.60683194 0.025397 8.1158849 0.04180824 10.625 0.0625 C10.625 2.7025 10.625 5.3425 10.625 8.0625 C8.7378125 8.33513672 8.7378125 8.33513672 6.8125 8.61328125 C2.29085092 9.27268841 -2.22648117 9.95784153 -6.7421875 10.65673828 C-8.35083664 10.9046588 -9.96008471 11.14877917 -11.5703125 11.38623047 C-47.167403 16.69961971 -78.41498122 35.83599838 -103.83447266 60.57763672 C-105.08861504 61.78646303 -106.3740096 62.96279996 -107.66796875 64.12890625 C-121.71789253 77.07801126 -132.24710765 96.50537569 -139.375 114.0625 C-139.79394531 115.09117187 -140.21289062 116.11984375 -140.64453125 117.1796875 C-146.14895927 131.58100069 -149.104598 146.64647815 -149.375 162.0625 C-149.39546387 163.09117187 -149.41592773 164.11984375 -149.43701172 165.1796875 C-149.85996294 190.0673956 -147.4384045 211.7656539 -138.375 235.0625 C-137.64139834 236.99832512 -136.91164684 238.93561823 -136.1875 240.875 C-135.84332031 241.78894531 -135.49914062 242.70289063 -135.14453125 243.64453125 C-134.375 246.0625 -134.375 246.0625 -134.375 249.0625 C-133.715 249.0625 -133.055 249.0625 -132.375 249.0625 C-132.10461914 249.58457031 -131.83423828 250.10664062 -131.55566406 250.64453125 C-125.11024578 262.98429266 -118.08074896 274.20426579 -109.375 285.0625 C-108.66601562 285.9596875 -107.95703125 286.856875 -107.2265625 287.78125 C-105.96723485 289.36440477 -104.70175824 290.94269106 -103.4296875 292.515625 C-99.46877476 297.42534954 -95.57535622 302.38792673 -91.69921875 307.36474609 C-90.50227371 308.89932497 -89.29841706 310.42850678 -88.09375 311.95703125 C-83.41373511 318.01900706 -79.1811213 324.29647141 -75.0625 330.75 C-74.55855713 331.5339917 -74.05461426 332.3179834 -73.53540039 333.12573242 C-68.78829836 340.67429885 -65.44147587 348.58992918 -62.375 356.9375 C-62.11936279 357.63020996 -61.86372559 358.32291992 -61.6003418 359.03662109 C-61.09126792 360.41667729 -60.58301985 361.79703845 -60.07568359 363.17773438 C-59.46989604 364.80723958 -58.84060721 366.42797189 -58.20703125 368.046875 C-54.85917392 376.71795375 -52.375 385.73202008 -52.375 395.0625 C-56.005 395.0625 -59.635 395.0625 -63.375 395.0625 C-63.63152344 393.71800781 -63.88804687 392.37351562 -64.15234375 390.98828125 C-71.13882887 356.41793127 -90.0439617 326.05196106 -112.875 299.5625 C-144.11241859 263.28168694 -163.82431176 221.16050828 -163.8125 172.75 C-163.8135675 171.82107941 -163.81463501 170.89215881 -163.81573486 169.93508911 C-163.79111095 155.07999116 -162.73314347 141.35533612 -158.375 127.0625 C-158.16101563 126.32 -157.94703125 125.5775 -157.7265625 124.8125 C-152.05470179 105.48615979 -142.54287661 87.05663167 -130.375 71.0625 C-129.68792969 70.14597656 -129.00085938 69.22945313 -128.29296875 68.28515625 C-103.74012498 36.63149005 -67.44166744 11.86212479 -28.0625 3.375 C-26.6384082 3.05692383 -26.6384082 3.05692383 -25.18554688 2.73242188 C-22.58556185 2.15726818 -19.98185615 1.60550421 -17.375 1.0625 C-16.39917969 0.85109375 -15.42335938 0.6396875 -14.41796875 0.421875 C-9.61745363 -0.14506645 -4.82851013 -0.04049718 0 0 Z " fill="#F9F1D1" transform="translate(501.375,295.9375)"/>
<path d="M0 0 C1.27447495 -0.00571014 2.54894989 -0.01142029 3.86204529 -0.01730347 C5.28251638 -0.01854889 6.70298759 -0.01967397 8.12345886 -0.02069092 C9.61316043 -0.02531811 11.10286082 -0.03034263 12.59255981 -0.03573608 C16.64636637 -0.04887235 20.70015635 -0.05530752 24.75398088 -0.05974674 C27.28577476 -0.06267572 29.8175641 -0.06678021 32.3493557 -0.07125092 C40.26816341 -0.08492958 48.18696076 -0.09459421 56.10577947 -0.09845281 C65.25154648 -0.1029335 74.39716404 -0.12048031 83.5428856 -0.1494534 C90.60876613 -0.17106171 97.67460458 -0.18115664 104.7405178 -0.18249393 C108.96217984 -0.18354264 113.18370145 -0.18946441 117.40532875 -0.20731354 C121.37717983 -0.2237794 125.34878471 -0.22595704 129.32065773 -0.21717453 C130.77793028 -0.21640333 132.23521599 -0.22075781 133.69245529 -0.23063278 C135.68303227 -0.24333 137.67370792 -0.23569187 139.66430664 -0.22705078 C140.77800031 -0.22851734 141.89169397 -0.2299839 143.03913593 -0.2314949 C146.44413299 0.19298867 148.28748212 1.09666006 151.02262878 3.14044189 C153.50648938 6.86623278 153.40304999 8.72755592 153.02262878 13.14044189 C151.33738939 16.84796856 149.49028866 19.03321925 146.02262878 21.14044189 C143.18618107 21.52075863 143.18618107 21.52075863 139.8427124 21.52812195 C137.93949722 21.5429789 137.93949722 21.5429789 135.99783325 21.55813599 C134.59406947 21.55389796 133.19030662 21.5493401 131.7865448 21.54449463 C130.30639632 21.55019764 128.82625224 21.55716163 127.34611511 21.56529236 C123.32748605 21.58324703 119.30907505 21.58205106 115.29041791 21.57634997 C111.93547933 21.57326135 108.58058284 21.57934695 105.22565025 21.58538872 C97.31085429 21.59944 89.39616625 21.59786775 81.48136902 21.58648682 C73.31629396 21.57500543 65.15154735 21.58908009 56.98651558 21.61588329 C49.97577556 21.63803558 42.96513868 21.64467873 35.95436615 21.63880688 C31.7673649 21.63543489 27.58057419 21.63786825 23.39360237 21.65505791 C19.45610344 21.67051754 15.51909126 21.66658285 11.58161163 21.64775276 C10.13724549 21.64406407 8.69284337 21.64718361 7.24851036 21.65763855 C5.2755534 21.67082868 3.30247086 21.65690507 1.32952881 21.64164734 C0.22580712 21.64143806 -0.87791456 21.64122877 -2.01508236 21.64101315 C-5.69247174 21.01960332 -7.31943129 19.70944608 -9.97737122 17.14044189 C-12.48041499 13.38587623 -12.43017196 11.59298255 -11.97737122 7.14044189 C-8.55507077 0.98030108 -6.83742241 0.01828124 0 0 Z " fill="#A0A4A7" transform="translate(441.9773712158203,702.8595581054688)"/>
<path d="M0 0 C1.38178387 -0.00841684 2.76355625 -0.0189436 4.14530945 -0.03141785 C7.89130135 -0.05845407 11.63662694 -0.05376906 15.38267326 -0.04171729 C18.51152533 -0.03458254 21.64025442 -0.04308743 24.76909685 -0.05162269 C32.15037657 -0.07157031 39.53133236 -0.06601052 46.91259766 -0.04394531 C54.5251787 -0.02157517 62.13691203 -0.03918829 69.74941301 -0.0769946 C76.28888168 -0.10823008 82.82808794 -0.11614432 89.3676219 -0.10504085 C93.27190001 -0.09855419 97.17568882 -0.10055344 101.07991028 -0.12436485 C104.75092558 -0.14561451 108.42074446 -0.13764486 112.09168434 -0.10727119 C114.07904837 -0.09792739 116.0664826 -0.11813359 118.05375671 -0.13922119 C126.51627309 -0.02881446 126.51627309 -0.02881446 129.48677063 1.92403221 C131.86738753 4.60246799 132.57234773 6.69125885 133.06835938 10.2253418 C132.41919187 14.68836837 131.12260365 17.23244656 127.81201077 20.27923679 C124.99253622 22.01793787 123.22097032 22.04250152 119.91993713 22.05052185 C118.19341919 22.0653788 118.19341919 22.0653788 116.43202209 22.08053589 C114.54379982 22.07378342 114.54379982 22.07378342 112.61743164 22.06689453 C111.27521191 22.07259825 109.93299703 22.07956252 108.59078979 22.08769226 C104.94817521 22.10563928 101.30580132 22.10445242 97.66315579 22.09874988 C94.62136694 22.09566011 91.57962447 22.10174813 88.53784221 22.10778862 C81.36137057 22.12183741 74.18501796 22.12026977 67.00854492 22.10888672 C59.60689911 22.09740588 52.20561566 22.11147954 44.8040176 22.13828319 C38.44719757 22.16044078 32.09049127 22.16707744 25.73363537 22.16120678 C21.93786534 22.15783601 18.14232757 22.16025996 14.34659004 22.17745781 C10.77678141 22.19292596 7.20750943 22.18897358 3.63772202 22.17015266 C1.70521461 22.16471 -0.22731688 22.17898206 -2.15977478 22.19384766 C-3.89052246 22.17909645 -3.89052246 22.17909645 -5.65623474 22.16404724 C-7.15695605 22.16373332 -7.15695605 22.16373332 -8.68799496 22.16341305 C-12.76759597 21.41910011 -15.28811692 19.18754007 -17.74414062 15.9128418 C-18.78642867 12.50171728 -19.35098297 9.1151973 -18.43164062 5.6628418 C-13.95532779 -1.17446097 -7.5394907 -0.0498703 0 0 Z " fill="#A4A6A9" transform="translate(455.431640625,735.337158203125)"/>
<path d="M0 0 C41.91 0 83.82 0 127 0 C125.97139384 7.2002431 124.96965334 10.07167434 120 15 C112.78179265 20.13773985 106.42650808 21.14846958 97.68066406 21.16113281 C96.8555835 21.16609772 96.03050293 21.17106262 95.18041992 21.17617798 C92.45881303 21.19074707 89.73726444 21.19759317 87.015625 21.203125 C85.11619059 21.20888119 83.21675618 21.21463886 81.31732178 21.22039795 C77.33621959 21.23089329 73.35513751 21.23674541 69.37402344 21.24023438 C64.28894622 21.24571311 59.20413757 21.26973413 54.11914444 21.29820633 C50.19504028 21.31689076 46.27100004 21.32204142 42.34685516 21.32357025 C40.47308638 21.32658468 38.5993184 21.33457206 36.72559357 21.34775543 C34.09582981 21.3649362 31.46671217 21.3629065 28.83691406 21.35644531 C28.07296326 21.3656601 27.30901245 21.37487488 26.52191162 21.3843689 C19.2826825 21.32904728 11.84393138 19.67692894 6.3515625 14.66015625 C2.99365574 10.5355598 0 5.37002021 0 0 Z " fill="#A1A4A7" transform="translate(449,768)"/>
<path d="M0 0 C0.66 0 1.32 0 2 0 C21.9835773 39.66239416 25.56674996 87.31679292 11.8125 129.6875 C5.07340681 149.48829568 -4.80264069 166.09070237 -17 183 C-17.45503906 183.63808594 -17.91007813 184.27617188 -18.37890625 184.93359375 C-21.426664 189.11015067 -24.71191493 193.0648246 -28.0625 197 C-38.3076036 209.03804107 -48.11988278 221.03296619 -56.53466797 234.44628906 C-58.29780286 237.24617745 -60.08596574 240.02910501 -61.875 242.8125 C-62.42792725 243.70864014 -62.98085449 244.60478027 -63.55053711 245.52807617 C-68.71389729 253.51418255 -75.05105514 258.68568653 -84 262 C-82.73543728 255.80225304 -80.67955418 251.1161792 -77.375 245.75 C-76.92769531 245.00911133 -76.48039063 244.26822266 -76.01953125 243.50488281 C-69.31566312 232.47978914 -61.98166922 222.12121779 -54 212 C-53.33097656 211.14664063 -52.66195312 210.29328125 -51.97265625 209.4140625 C-48.22127854 204.67305754 -44.35506893 200.04090855 -40.4375 195.4375 C-36.1487923 190.39217489 -32.00360513 185.27600596 -28 180 C-27.0862658 178.8291708 -26.17217099 177.65862298 -25.2578125 176.48828125 C-1.698276 146.06530247 12.31260834 109.91611601 12.125 71.1875 C12.11774902 69.60557861 12.11774902 69.60557861 12.11035156 67.99169922 C11.9441992 46.38192333 7.51994382 27.63013555 0.69262695 7.18798828 C0.0409554 5.12937692 -0.58887238 3.12061435 -1 1 C-0.67 0.67 -0.34 0.34 0 0 Z " fill="#E3A001" transform="translate(662,390)"/>
<path d="M0 0 C3.07409205 1.96959526 5.4005588 3.54178665 6.48046875 7.1328125 C6.94145771 17.4873338 -0.97068339 24.57201376 -7.16796875 31.9765625 C-7.85890625 32.8428125 -8.54984375 33.7090625 -9.26171875 34.6015625 C-17.25681667 44.62526735 -26.08284623 53.93795085 -35.16796875 62.9765625 C-36.04582031 63.90662109 -36.04582031 63.90662109 -36.94140625 64.85546875 C-40.71304942 68.82029364 -44.10723188 71.80767527 -49.16796875 73.9765625 C-53.39792229 74.04825663 -55.33055182 73.66367383 -58.60546875 70.9765625 C-60.84515205 66.67637057 -61.41532684 63.71372017 -60.16796875 58.9765625 C-55.31057084 50.0054831 -48.24916975 42.27577568 -41.58398438 34.61035156 C-39.21451222 31.87647093 -36.87939199 29.11368303 -34.54296875 26.3515625 C-33.85702637 25.54380371 -33.85702637 25.54380371 -33.15722656 24.71972656 C-30.2303249 21.26485123 -27.3765898 17.75874986 -24.54296875 14.2265625 C-9.34737638 -4.41263534 -9.34737638 -4.41263534 0 0 Z " fill="#FAD522" transform="translate(708.16796875,227.0234375)"/>
<path d="M0 0 C2.90299888 2.82236002 4.1642818 4.43032259 4.625 8.5 C4.16931484 12.98090412 3.12415816 14.73578158 0.25 18.1875 C-2.4702092 19.53265839 -4.75941191 20.45919293 -7.625 21.3125 C-8.40439941 21.55911377 -9.18379883 21.80572754 -9.98681641 22.05981445 C-18.09728726 24.50667793 -26.37970186 25.92086289 -34.72265625 27.31640625 C-41.20513944 28.40584864 -47.56605069 29.94466635 -53.8671875 31.81640625 C-59.02629709 33.20839242 -64.1202919 33.4566652 -69.4375 33.5625 C-70.52550903 33.60153442 -70.52550903 33.60153442 -71.63549805 33.64135742 C-76.77977555 33.65848729 -79.67528794 32.57189352 -83.75 29.1875 C-86.149545 25.58818251 -86.56480111 24.42446577 -85.75 20.1875 C-78.97181161 9.36190416 -60.27493614 7.70640853 -48.8125 5 C-46.76574437 4.53225838 -44.71748044 4.07220219 -42.66796875 3.61669922 C-39.71078764 2.95494713 -36.76255754 2.25521211 -33.8125 1.5625 C-32.7709375 1.32660156 -31.729375 1.09070313 -30.65625 0.84765625 C-28.8397864 0.43504557 -27.02652444 0.00774758 -25.21875 -0.44140625 C-17.68068151 -2.19131501 -6.87489881 -4.39791321 0 0 Z " fill="#F3DD4D" transform="translate(815.75,396.8125)"/>
<path d="M0 0 C3.47749196 2.86893087 3.47749196 2.86893087 3.8125 5.75 C3.40565288 10.06257943 2.35229364 11.79279754 -0.5 15.0625 C-3.35368744 17.05179249 -6.36421197 18.56674835 -9.5 20.0625 C-10.36109375 20.47371094 -11.2221875 20.88492188 -12.109375 21.30859375 C-14.89058267 22.59872043 -17.68865601 23.83950768 -20.5 25.0625 C-21.39074219 25.45179688 -22.28148437 25.84109375 -23.19921875 26.2421875 C-29.54766452 28.95156603 -35.98026539 31.43879447 -42.4375 33.875 C-43.25476563 34.18937012 -44.07203125 34.50374023 -44.9140625 34.82763672 C-48.88551277 36.3054429 -52.18788854 37.50677815 -56.5 37.0625 C-56.5 37.7225 -56.5 38.3825 -56.5 39.0625 C-71.20023448 43.30586665 -71.20023448 43.30586665 -78.5 42.0625 C-81.43423195 40.26603146 -82.97205355 39.1183929 -84.5 36.0625 C-84.73828125 34.07421875 -84.73828125 34.07421875 -84.8125 31.75 C-84.84988281 30.99074219 -84.88726562 30.23148438 -84.92578125 29.44921875 C-84.31098801 26.00299244 -82.97974372 24.52246905 -80.5 22.0625 C-77.98106036 20.69807436 -75.63509419 19.56623027 -73 18.5 C-72.29166016 18.2019043 -71.58332031 17.90380859 -70.85351562 17.59667969 C-65.76109762 15.48670126 -60.60737084 13.6253862 -55.34375 11.984375 C-52.46112955 11.04989914 -49.63559492 9.99662869 -46.80224609 8.92333984 C-42.24478444 7.21924549 -37.65317189 5.61196883 -33.0625 4 C-31.58426758 3.4730957 -31.58426758 3.4730957 -30.07617188 2.93554688 C-7.55600999 -4.9591951 -7.55600999 -4.9591951 0 0 Z " fill="#F7CF19" transform="translate(312.5,543.9375)"/>
<path d="M0 0 C2.60078014 0.03859605 5.15696799 0.1458703 7.75 0.3125 C8.46671875 0.34794922 9.1834375 0.38339844 9.921875 0.41992188 C14.05484777 0.67443399 17.21978444 1.39714264 21 3 C24.10383424 3.8020838 27.24136237 4.45031241 30.375 5.125 C39.35865322 7.1332924 48.32534324 9.21037624 57.2588501 11.43133545 C58.61303846 11.76510322 59.96878864 12.09260541 61.32611084 12.41339111 C69.43227848 14.33486235 76.63880073 16.39825719 83 22 C84.60243984 25.20487969 84.63159396 28.53309837 84 32 C80.11716327 35.98501665 77.18899446 37.1627434 71.75 37.25 C65.81367312 37.20053061 60.42045409 36.19708487 54.65625 34.84375 C51.03314501 34.00764885 47.41136491 33.33362322 43.75 32.6875 C36.35382042 31.33696639 29.01973977 29.72256135 21.6875 28.0625 C20.60243164 27.82168701 19.51736328 27.58087402 18.39941406 27.33276367 C0.1379846 23.1379846 0.1379846 23.1379846 -4.6875 18.3125 C-6.36741339 14.07271859 -6.9930249 10.49343769 -6 6 C-3.5625 3 -3.5625 3 -1 1 C-0.67 0.67 -0.34 0.34 0 0 Z " fill="#F9D018" transform="translate(213,387)"/>
<path d="M0 0 C3.26591905 0.86969585 6.50014203 1.81043303 9.734375 2.79125977 C11.92797441 3.43718845 14.1219707 4.0817712 16.31640625 4.72485352 C17.27393799 5.01287842 18.23146973 5.30090332 19.21801758 5.59765625 C21.773622 6.31230247 24.31365401 6.87062423 26.921875 7.35375977 C26.921875 8.01375977 26.921875 8.67375977 26.921875 9.35375977 C27.65019531 9.48137695 28.37851562 9.60899414 29.12890625 9.74047852 C31.79402356 10.32568609 34.09377832 11.122599 36.609375 12.16625977 C40.03471465 13.57699224 43.46758903 14.95306394 46.921875 16.29125977 C65.66227854 23.83456685 65.66227854 23.83456685 68.921875 30.35375977 C69.5584245 35.65833895 68.72860266 39.45338612 65.71875 43.79907227 C63.37765013 45.82463259 61.93650194 46.01507145 58.859375 46.16625977 C53.39132366 45.76311925 48.91660717 43.98978333 43.96875 41.72094727 C38.30402125 39.1790818 32.34152714 37.40841884 26.4140625 35.58032227 C22.18636677 34.24752327 18.59688279 32.70023813 14.78125 30.38110352 C12.6549764 29.20629268 10.50215664 28.34903902 8.234375 27.47875977 C-13.18745171 19.15896774 -13.18745171 19.15896774 -17.078125 10.35375977 C-17.54883774 6.52081316 -17.61234325 4.30078303 -15.703125 0.91625977 C-10.8796129 -1.95487839 -5.35312292 -1.1238671 0 0 Z " fill="#F2D022" transform="translate(733.078125,542.646240234375)"/>
<path d="M0 0 C9.21778701 7.06561648 16.58674232 16.25150501 23.828125 25.2578125 C25.95867906 27.87617019 28.13688232 30.44153446 30.33789062 33.00024414 C49.27021806 55.0461023 49.27021806 55.0461023 49.0859375 65.734375 C48.1484375 69.109375 48.1484375 69.109375 46.0859375 71.546875 C42.24280733 73.59109318 39.31876863 74.30089818 35.1484375 73.109375 C28.33684574 68.96690227 23.17595 63.19266512 18.1484375 57.109375 C17.27092739 56.10051132 16.39047675 55.09420113 15.5078125 54.08984375 C-15.2999049 18.90600091 -15.2999049 18.90600091 -15.20703125 7.37109375 C-14.63828428 3.75236301 -12.69990638 2.22907277 -9.8515625 0.109375 C-6.30600664 -1.07247695 -3.46427201 -1.66635869 0 0 Z " fill="#F7D622" transform="translate(334.8515625,217.890625)"/>
<path d="M0 0 C4.24303061 2.23691153 7.16826603 4.4990449 9 9 C9.25396729 11.65359497 9.25396729 11.65359497 9.25878906 14.71142578 C9.26509338 15.86007111 9.27139771 17.00871643 9.27789307 18.19216919 C9.2738446 19.43070648 9.26979614 20.66924377 9.265625 21.9453125 C9.26753845 23.22550262 9.2694519 24.50569275 9.27142334 25.82467651 C9.27437031 28.53648705 9.27009504 31.24816575 9.26074219 33.95996094 C9.24941625 37.40941596 9.25586577 40.85855735 9.26788712 44.30800056 C9.27692976 47.62462838 9.27056012 50.94117582 9.265625 54.2578125 C9.26967346 55.48420441 9.27372192 56.71059631 9.27789307 57.97415161 C9.17779781 76.51176022 9.17779781 76.51176022 3 84 C-0.54129184 86.36086122 -1.82750218 86.57269578 -6 86 C-10.28674224 83.11469272 -12.40305703 80.85997136 -14 76 C-15.32119437 68.0747718 -15.18678492 59.89904973 -15.23828125 51.88671875 C-15.246353 50.6735347 -15.25442474 49.46035065 -15.26274109 48.21040344 C-15.27648218 45.66494131 -15.28724823 43.11946152 -15.29516602 40.57397461 C-15.30676218 37.97398469 -15.32733186 35.37401995 -15.35668945 32.77416992 C-15.39923502 28.9990233 -15.41550832 25.22457486 -15.42578125 21.44921875 C-15.44328934 20.28976242 -15.46079742 19.13030609 -15.47883606 17.93571472 C-15.4618989 11.65307675 -15.29689199 7.73691429 -11 3 C-7.33684972 0.10803925 -4.63131446 -0.74101031 0 0 Z " fill="#F0DB3F" transform="translate(516,169)"/>
<path d="M0 0 C3.68358695 1.1270112 5.03256581 3.36835042 6.90234375 6.58203125 C7.40363687 10.76108062 7.45212684 12.80242081 4.99609375 16.28515625 C4.14015625 17.125625 3.28421875 17.96609375 2.40234375 18.83203125 C-1.97225382 23.33055509 -5.69658846 27.92518994 -9.30859375 33.07421875 C-10.55336629 34.81907459 -11.86431391 36.51780457 -13.22265625 38.17578125 C-15.50750938 41.10800943 -16.69984719 44.15104538 -18.09765625 47.58203125 C-18.75765625 48.57203125 -19.41765625 49.56203125 -20.09765625 50.58203125 C-20.5985245 52.13142039 -21.05278763 53.69625885 -21.47265625 55.26953125 C-22.64795049 59.35338195 -24.12856069 62.95293767 -26.125 66.6953125 C-27.09743551 68.58160306 -27.88296026 70.4835231 -28.66015625 72.45703125 C-30.09765625 75.58203125 -30.09765625 75.58203125 -33.09765625 77.58203125 C-34.08765625 77.58203125 -35.07765625 77.58203125 -36.09765625 77.58203125 C-36.07445312 78.42507813 -36.05125 79.268125 -36.02734375 80.13671875 C-36.00027344 81.78027344 -36.00027344 81.78027344 -35.97265625 83.45703125 C-35.94945312 84.54757812 -35.92625 85.638125 -35.90234375 86.76171875 C-36.09765625 89.58203125 -36.09765625 89.58203125 -38.09765625 91.58203125 C-41.09765625 91.83203125 -41.09765625 91.83203125 -44.09765625 91.58203125 C-46.09765625 89.58203125 -46.09765625 89.58203125 -46.36328125 87.26953125 C-46.358125 86.38265625 -46.35296875 85.49578125 -46.34765625 84.58203125 C-46.3528125 83.69515625 -46.35796875 82.80828125 -46.36328125 81.89453125 C-46.09765625 79.58203125 -46.09765625 79.58203125 -44.09765625 77.58203125 C-44.41088653 75.91146976 -44.75100068 74.245978 -45.09765625 72.58203125 C-46.43057838 59.59209924 -41.09665961 47.29152496 -34.09765625 36.58203125 C-32.44332562 34.90311918 -30.7781077 33.23479816 -29.09765625 31.58203125 C-28.05046827 29.26949113 -27.0541926 26.93351645 -26.09765625 24.58203125 C-22.50121988 17.67687342 -17.38630364 12.22827402 -12.09765625 6.58203125 C-11.55882812 5.93234375 -11.02 5.28265625 -10.46484375 4.61328125 C-7.2809182 0.92479919 -4.77432001 -0.39404177 0 0 Z " fill="#FCF4D7" transform="translate(413.09765625,362.41796875)"/>
<path d="M0 0 C7.99740886 -0.06958568 15.99469069 -0.12285447 23.99232769 -0.15543652 C27.70617574 -0.17107623 31.41981628 -0.19228309 35.13354492 -0.22631836 C38.71916041 -0.25897295 42.30457662 -0.27686576 45.89032936 -0.28463173 C47.25665231 -0.29016435 48.62296465 -0.30096836 49.9892025 -0.31719017 C51.90634857 -0.33904275 53.82369622 -0.34022607 55.7409668 -0.34057617 C56.83128708 -0.34723801 57.92160736 -0.35389984 59.04496765 -0.36076355 C62.43922002 0.05362194 64.27269071 0.96568194 67 3 C69.48386059 6.72579089 69.3804212 8.58711402 69 13 C67.31590757 16.70500334 65.47507199 18.90661408 62 21 C59.05133057 21.36076355 59.05133057 21.36076355 55.57910156 21.34057617 C53.62753143 21.34023628 53.62753143 21.34023628 51.63653564 21.33988953 C50.22122858 21.32457067 48.80592505 21.3089227 47.390625 21.29296875 C45.93903034 21.28737107 44.48743 21.28310178 43.03582764 21.28010559 C39.22166196 21.2686702 35.40784089 21.23921465 31.59381104 21.20599365 C27.69930686 21.17526438 23.80474681 21.16159417 19.91015625 21.14648438 C12.27328067 21.11434336 4.63668869 21.06316324 -3 21 C-3 20.01 -3 19.02 -3 18 C-2.030625 17.38125 -1.06125 16.7625 -0.0625 16.125 C3.11585638 14.3168613 3.11585638 14.3168613 4.0625 11.5625 C3.98240629 8.27865769 2.80317254 6.70475881 1 4 C0.63005288 2.67635805 0.28971572 1.34348565 0 0 Z " fill="#83888A" transform="translate(526,703)"/>
<path d="M0 0 C1.81041223 -0.02184386 3.62071198 -0.05624584 5.43066406 -0.10253906 C8.08176242 -0.16932155 10.73074998 -0.1969227 13.38256836 -0.21606445 C14.18779434 -0.24389511 14.99302032 -0.27172577 15.82264709 -0.30039978 C21.23400805 -0.28052085 21.23400805 -0.28052085 23.76339722 1.65768433 C26.20363563 4.42112312 27.11430959 6.30276759 27.62866211 9.9675293 C26.97946434 14.43076399 25.68128328 16.97292606 22.37441635 20.02310658 C19.5402405 21.76711397 17.7628332 21.77490339 14.44659424 21.76579285 C13.28835648 21.76991684 12.13011871 21.77404083 10.93678284 21.77828979 C9.67011276 21.76750397 8.40344269 21.75671814 7.09838867 21.74560547 C5.74806233 21.74475905 4.3977346 21.74523464 3.04740906 21.74693298 C-0.61558145 21.74779378 -4.27827728 21.73015463 -7.9411993 21.70921111 C-11.77021224 21.69045823 -15.59923192 21.68869497 -19.42828369 21.68513489 C-26.67786414 21.67581032 -33.92730889 21.65119102 -41.17682958 21.62108642 C-49.430676 21.58755517 -57.68452891 21.57105962 -65.93842649 21.55600011 C-82.91614213 21.52464179 -99.89372566 21.47187334 -116.87133789 21.4050293 C-116.87133789 21.0750293 -116.87133789 20.7450293 -116.87133789 20.4050293 C-115.36250031 20.40622269 -115.36250031 20.40622269 -113.82318115 20.40744019 C-104.34698882 20.41104134 -94.87133918 20.38328019 -85.39532089 20.3247509 C-80.52342701 20.29566896 -75.65201534 20.27766805 -70.7800293 20.28491211 C-66.07883232 20.29149585 -61.37858903 20.26907541 -56.67758942 20.22647476 C-54.8834701 20.21532639 -53.08925425 20.214659 -51.29512787 20.22460556 C-48.78268739 20.23675004 -46.27317058 20.2117542 -43.76098633 20.17797852 C-43.01795761 20.19019943 -42.27492889 20.20242035 -41.50938416 20.2150116 C-39.16099808 20.22232238 -39.16099808 20.22232238 -35.87133789 19.4050293 C-32.9002315 16.02040782 -31.94019295 14.21751903 -31.55883789 9.7175293 C-31.74548019 6.40639059 -31.74548019 6.40639059 -32.87133789 3.4050293 C-32.54133789 2.7450293 -32.21133789 2.0850293 -31.87133789 1.4050293 C-21.51653757 -0.28878909 -10.47770094 0.09498145 0 0 Z " fill="#84898B" transform="translate(560.871337890625,735.594970703125)"/>
<path d="M0 0 C0.99174728 0.00990463 1.98349457 0.01980927 3.0052948 0.03001404 C6.16520635 0.06912289 9.32161192 0.15693925 12.48046875 0.24609375 C14.62560078 0.28121209 16.77078741 0.31315018 18.91601562 0.34179688 C24.16785783 0.41887174 29.41766286 0.53592217 34.66796875 0.68359375 C33.81182212 7.34584788 32.44104769 10.95020777 27.66796875 15.68359375 C20.3914406 20.86284489 14.02213011 21.83743664 5.20581055 21.79711914 C3.94650475 21.79733818 3.94650475 21.79733818 2.66175842 21.79756165 C-0.10312517 21.79686701 -2.86794073 21.78909563 -5.6328125 21.78125 C-7.5538072 21.77938423 -9.47480238 21.77796107 -11.39579773 21.77696228 C-16.44444092 21.77314966 -21.49305521 21.76333008 -26.54168701 21.7522583 C-31.69640716 21.7420172 -36.85113198 21.73745888 -42.00585938 21.73242188 C-52.11459601 21.72170669 -62.22331122 21.70464533 -72.33203125 21.68359375 C-72.33203125 21.35359375 -72.33203125 21.02359375 -72.33203125 20.68359375 C-71.26243164 20.66901123 -70.19283203 20.65442871 -69.09082031 20.6394043 C-65.11717531 20.58137074 -61.144094 20.50413856 -57.17089844 20.42114258 C-55.4522416 20.38791694 -53.73347626 20.35987759 -52.01464844 20.3371582 C-49.54184802 20.30356814 -47.07003969 20.25125197 -44.59765625 20.1953125 C-43.44743988 20.18572762 -43.44743988 20.18572762 -42.27398682 20.1759491 C-37.98127106 20.05800712 -35.49101476 19.64848717 -32.33203125 16.68359375 C-30.25390625 15.9453125 -30.25390625 15.9453125 -28.08203125 15.37109375 C-22.8748203 13.71814685 -17.1280295 10.9928567 -14.41383362 5.991745 C-10.82743053 -0.40431893 -6.89949662 -0.26006088 0 0 Z " fill="#848B8D" transform="translate(541.33203125,767.31640625)"/>
<path d="M0 0 C3.47749196 2.86893087 3.47749196 2.86893087 3.8125 5.75 C3.42364408 9.87187278 2.09163604 11.87849001 -0.5 15.0625 C-1.985 15.5575 -1.985 15.5575 -3.5 16.0625 C-3.5 15.0725 -3.5 14.0825 -3.5 13.0625 C-4.49 12.7325 -5.48 12.4025 -6.5 12.0625 C-7.19937532 10.74602881 -7.86729133 9.41227849 -8.5 8.0625 C-11.6385851 6.49320745 -14.00772191 6.78533507 -17.5 7.0625 C-19.76558433 7.90999636 -21.90164569 8.91818955 -24.078125 9.97265625 C-28.07960184 11.77332083 -32.27720598 12.89880728 -36.5 14.0625 C-36.64501953 15.23425781 -36.64501953 15.23425781 -36.79296875 16.4296875 C-37.5 19.0625 -37.5 19.0625 -40.8125 21.1875 C-45.22059411 23.15891955 -49.77815467 24.19353195 -54.46875 25.27734375 C-58.99439808 26.44957992 -63.19882731 28.25554415 -67.5 30.0625 C-71.83394862 31.67710831 -75.90551228 32.51116147 -80.5 33.0625 C-80.83 34.0525 -81.16 35.0425 -81.5 36.0625 C-81.83 37.0525 -82.16 38.0425 -82.5 39.0625 C-84.53155057 36.01517415 -84.81560065 35.16830195 -84.875 31.6875 C-84.90335938 30.93726563 -84.93171875 30.18703125 -84.9609375 29.4140625 C-84.29415322 26.01233254 -82.95307095 24.50381502 -80.5 22.0625 C-77.98106036 20.69807436 -75.63509419 19.56623027 -73 18.5 C-72.29166016 18.2019043 -71.58332031 17.90380859 -70.85351562 17.59667969 C-65.76109762 15.48670126 -60.60737084 13.6253862 -55.34375 11.984375 C-52.46112955 11.04989914 -49.63559492 9.99662869 -46.80224609 8.92333984 C-42.24478444 7.21924549 -37.65317189 5.61196883 -33.0625 4 C-31.58426758 3.4730957 -31.58426758 3.4730957 -30.07617188 2.93554688 C-7.55600999 -4.9591951 -7.55600999 -4.9591951 0 0 Z " fill="#F4DB41" transform="translate(312.5,543.9375)"/>
<path d="M0 0 C2.60078014 0.03859605 5.15696799 0.1458703 7.75 0.3125 C8.46671875 0.34794922 9.1834375 0.38339844 9.921875 0.41992188 C14.05484777 0.67443399 17.21978444 1.39714264 21 3 C24.10383424 3.8020838 27.24136237 4.45031241 30.375 5.125 C39.35865322 7.1332924 48.32534324 9.21037624 57.2588501 11.43133545 C58.61303846 11.76510322 59.96878864 12.09260541 61.32611084 12.41339111 C69.43227848 14.33486235 76.63880073 16.39825719 83 22 C84.60243984 25.20487969 84.63159396 28.53309837 84 32 C80.11716327 35.98501665 77.18899446 37.1627434 71.75 37.25 C64.59681619 37.21527581 57.91567635 35.7186888 51 34 C51 33.67 51 33.34 51 33 C57.28260706 32.76731085 62.88019467 33.59545452 69 35 C69.33 33.68 69.66 32.36 70 31 C70.66 31 71.32 31 72 31 C71.65743211 27.23466154 71.65743211 27.23466154 70 24 C66.49409714 22.33263571 62.79131639 21.74872538 59 21 C57.14474734 20.48304841 55.29058913 19.96215424 53.4375 19.4375 C47.56191772 17.96478912 41.71186749 17.35984461 35.70043945 16.76708984 C30.18801841 16.1997282 24.96698254 15.15327037 19.58984375 13.796875 C11.81523982 12.07106521 3.88235614 11.10808795 -4 10 C-4.33 11.65 -4.66 13.3 -5 15 C-5.33 15 -5.66 15 -6 15 C-6.78734859 6.96904441 -6.78734859 6.96904441 -3.5625 3 C-2.716875 2.34 -1.87125 1.68 -1 1 C-0.67 0.67 -0.34 0.34 0 0 Z " fill="#F7DD42" transform="translate(213,387)"/>
<path d="M0 0 C0 1.32 0 2.64 0 4 C-0.66 4 -1.32 4 -2 4 C-2 5.98 -2 7.96 -2 10 C-14.01846712 16.00923356 -27.07132268 18.13760228 -40.20254517 20.4067688 C-42.13618611 20.74112699 -44.06848325 21.08322752 -46.00073242 21.42553711 C-54.07527028 22.77067679 -61.81850535 23.27859215 -70 23 C-70 23.66 -70 24.32 -70 25 C-72.97 25 -75.94 25 -79 25 C-79 24.01 -79 23.02 -79 22 C-78.195625 21.38125 -77.39125 20.7625 -76.5625 20.125 C-73.60088928 17.66903013 -73.52614974 16.66490511 -73 13 C-71.84886719 12.76925781 -70.69773437 12.53851563 -69.51171875 12.30078125 C-61.00459302 10.56759761 -52.57145347 8.69725418 -44.1875 6.4375 C-29.46311564 2.49049488 -15.31569717 -0.30030779 0 0 Z " fill="#FAD01C" transform="translate(819,404)"/>
<path d="M0 0 C5.73372657 5.89299675 10.52387374 13.01697505 10.5625 21.4375 C10.57925781 22.28570312 10.59601562 23.13390625 10.61328125 24.0078125 C10.17425923 26.79300595 9.5029898 27.66101099 7.25 29.3125 C4.25 29.75 4.25 29.75 1.25 29.3125 C-1.5827709 26.98558104 -2.0069185 24.38694301 -2.6875 20.9375 C-3.80640364 15.40665925 -5.71403003 11.73294417 -10.4375 8.4375 C-16.08031776 6.52107133 -20.65713575 6.28581188 -26.0625 8.9375 C-31.18512126 13.46446763 -33.14321743 17.64590326 -34.16015625 24.26171875 C-34.87625124 26.751453 -35.66373227 27.78810766 -37.75 29.3125 C-41.375 29.125 -41.375 29.125 -44.75 28.3125 C-47.11551203 23.58147594 -46.34482372 18.14634387 -44.76171875 13.265625 C-40.79995092 4.47161641 -35.15283417 -1.37199964 -26.25 -5.1875 C-16.19041802 -6.62458314 -8.74195869 -5.36438374 0 0 Z " fill="#0A2022" transform="translate(606.75,450.6875)"/>
<path d="M0 0 C7.37942654 4.03370953 11.69354699 10.41277492 14.4375 18.2421875 C15.53486111 22.53500894 16.200768 26.64134301 13.93359375 30.671875 C11.16043751 32.15089166 9.1467525 32.05789484 6.05859375 31.671875 C3.8979351 30.05267019 3.15493346 29.08620817 2.5390625 26.4375 C2.44238281 25.60734375 2.34570312 24.7771875 2.24609375 23.921875 C1.31205309 18.5531035 -0.77935521 15.17676009 -4.94140625 11.671875 C-9.17378082 9.10836357 -13.11307556 9.01576038 -17.94140625 9.671875 C-23.42884006 12.20453676 -26.47438784 16.27464288 -28.94140625 21.671875 C-29.32271365 23.99785011 -29.66600879 26.33099658 -29.94140625 28.671875 C-31.12890625 30.609375 -31.12890625 30.609375 -32.94140625 31.671875 C-36.00390625 32.046875 -36.00390625 32.046875 -38.94140625 31.671875 C-41.68020232 27.56368089 -41.53589799 24.49468923 -40.94140625 19.671875 C-38.34811309 9.99122953 -33.29616437 3.69384138 -24.7734375 -1.3828125 C-16.62662593 -5.58649779 -8.04268515 -3.37243335 0 0 Z " fill="#0B2222" transform="translate(451.94140625,448.328125)"/>
<path d="M0 0 C1.87189862 1.96789342 3.40626051 3.82758129 5 6 C5.96372063 7.24131407 6.94321189 8.47053278 7.9375 9.6875 C8.37964844 10.24824219 8.82179688 10.80898438 9.27734375 11.38671875 C14.89276288 16.64560333 20.99378828 16.58134097 28.296875 16.40234375 C33.50432709 15.83655518 37.11744337 14.54141148 41 11 C42.79910442 8.74138406 44.34193179 6.47450309 45.80859375 3.98828125 C47 2 47 2 49 0 C51.77457104 -0.35571424 53.37896796 -0.36405327 55.8125 1.0625 C57.7093204 4.15731224 57.42173462 6.44537963 57 10 C52.13316336 19.34432634 44.04035589 25.29112473 34.1796875 28.61328125 C25.0077019 30.24056902 14.96726657 30.14120207 7 25 C6.30519531 24.56429688 5.61039062 24.12859375 4.89453125 23.6796875 C-0.64197047 19.87788707 -4.9851264 15.0297472 -8 9 C-8.45014808 3.71076012 -8.45014808 3.71076012 -6.8125 1.125 C-4.22278007 -0.48241237 -2.99882835 -0.64260608 0 0 Z " fill="#0C2324" transform="translate(489,487)"/>
<path d="M0 0 C3.26591905 0.86969585 6.50014203 1.81043303 9.734375 2.79125977 C11.92797441 3.43718845 14.1219707 4.0817712 16.31640625 4.72485352 C17.27393799 5.01287842 18.23146973 5.30090332 19.21801758 5.59765625 C21.773622 6.31230247 24.31365401 6.87062423 26.921875 7.35375977 C26.921875 8.01375977 26.921875 8.67375977 26.921875 9.35375977 C27.65019531 9.48137695 28.37851562 9.60899414 29.12890625 9.74047852 C31.79402356 10.32568609 34.09377832 11.122599 36.609375 12.16625977 C40.03471465 13.57699224 43.46758903 14.95306394 46.921875 16.29125977 C65.66227854 23.83456685 65.66227854 23.83456685 68.921875 30.35375977 C68.96209891 32.68674637 68.96507747 35.02082642 68.921875 37.35375977 C68.550625 36.69375977 68.179375 36.03375977 67.796875 35.35375977 C66.03612228 33.0076961 66.03612228 33.0076961 62.921875 33.22875977 C61.436875 33.29063477 61.436875 33.29063477 59.921875 33.35375977 C58.436875 32.36375977 58.436875 32.36375977 56.921875 31.35375977 C55.00107041 30.75526358 55.00107041 30.75526358 52.90234375 30.35375977 C51.73928711 30.10625977 51.73928711 30.10625977 50.55273438 29.85375977 C49.74642578 29.68875977 48.94011719 29.52375977 48.109375 29.35375977 C42.9270934 28.27779538 37.91436235 27.15459256 32.921875 25.35375977 C32.921875 24.69375977 32.921875 24.03375977 32.921875 23.35375977 C32.15875 23.20938477 31.395625 23.06500977 30.609375 22.91625977 C27.921875 22.35375977 27.921875 22.35375977 24.921875 21.35375977 C24.921875 20.69375977 24.921875 20.03375977 24.921875 19.35375977 C22.446875 18.36375977 22.446875 18.36375977 19.921875 17.35375977 C19.921875 16.36375977 19.921875 15.37375977 19.921875 14.35375977 C19.21804688 14.4040332 18.51421875 14.45430664 17.7890625 14.50610352 C14.38728769 14.32535526 12.13633189 13.3325952 9.046875 11.91625977 C4.5552174 9.95323904 0.79912776 8.68629973 -4.078125 8.35375977 C-4.078125 9.01375977 -4.078125 9.67375977 -4.078125 10.35375977 C-8.46274038 13.35375977 -8.46274038 13.35375977 -11.078125 13.35375977 C-11.078125 14.34375977 -11.078125 15.33375977 -11.078125 16.35375977 C-14.078125 15.35375977 -14.078125 15.35375977 -15.765625 13.22875977 C-17.40949674 9.62789787 -17.5769918 7.27342751 -17.078125 3.35375977 C-13.60710653 -2.79940934 -6.01616505 -1.26307019 0 0 Z " fill="#F3DA3E" transform="translate(733.078125,542.646240234375)"/>
<path d="M0 0 C0.33 0.66 0.66 1.32 1 2 C-1.64 2.33 -4.28 2.66 -7 3 C-7.33 3.99 -7.66 4.98 -8 6 C-7.071875 6.20625 -6.14375 6.4125 -5.1875 6.625 C-1.11763021 8.38063011 -0.74530505 10.0333976 1 14 C1.680625 14.680625 2.36125 15.36125 3.0625 16.0625 C5 18 5 18 5.9140625 20.328125 C7.07154951 23.17604267 8.46682239 25.23318351 10.3125 27.6875 C11.01246094 28.63238281 11.71242188 29.57726562 12.43359375 30.55078125 C12.83175293 31.08525879 13.22991211 31.61973633 13.64013672 32.17041016 C16.4052239 35.89061901 19.14277748 39.63061924 21.875 43.375 C22.73218628 44.534552 22.73218628 44.534552 23.60668945 45.7175293 C26.28922236 49.39715236 28.45487315 52.68320232 30 57 C33.34942911 60.7215879 37.12600043 63.84674454 41 67 C40.67 68.65 40.34 70.3 40 72 C41.65 72.33 43.3 72.66 45 73 C45 73.33 45 73.66 45 74 C40.71281352 74.63513874 38.26480947 74.755345 34.48828125 72.5 C28.98609888 68.18588457 24.43696347 63.3687258 20 58 C19.12248989 56.99113632 18.24203925 55.98482613 17.359375 54.98046875 C-13.4483424 19.79662591 -13.4483424 19.79662591 -13.35546875 8.26171875 C-12.78672178 4.64298801 -10.84834388 3.11969777 -8 1 C-5.07175348 0.02391783 -3.04386724 -0.08226668 0 0 Z " fill="#F6E058" transform="translate(333,217)"/>
<path d="M0 0 C3.01424928 6.02849856 2.14822743 14.34814919 2.1328125 20.94140625 C2.13376923 21.86735092 2.13472595 22.79329559 2.13571167 23.74729919 C2.13638831 25.69782581 2.13457028 27.64835474 2.13037109 29.59887695 C2.1250586 32.53016441 2.13031158 35.46129563 2.13671875 38.39257812 C2.14035232 43.92938049 2.09417308 49.4640053 2 55 C1.98674683 55.81104187 1.97349365 56.62208374 1.95983887 57.45770264 C1.9118349 59.67010701 1.83397561 61.87887213 1.7421875 64.08984375 C1.69690918 65.31437256 1.65163086 66.53890137 1.60498047 67.80053711 C0.89157298 71.57342052 -0.25313564 73.34678587 -3 76 C-3.99 76 -4.98 76 -6 76 C-6.1546875 74.39125 -6.1546875 74.39125 -6.3125 72.75 C-6.67014558 69.09780747 -6.67014558 69.09780747 -8.52168274 67.13824463 C-10.48064993 64.30478581 -10.36216277 62.46315923 -10.34057617 59.03808594 C-10.34034958 57.83714294 -10.34012299 56.63619995 -10.33988953 55.39886475 C-10.32440567 54.10708313 -10.30892181 52.81530151 -10.29296875 51.484375 C-10.28737052 50.14488195 -10.28310149 48.80538274 -10.28010559 47.46588135 C-10.26867454 43.94762079 -10.23922294 40.42973429 -10.20599365 36.91162109 C-10.17525489 33.31873636 -10.16159216 29.72579094 -10.14648438 26.1328125 C-10.11435113 19.08838904 -10.06317621 12.044219 -10 5 C-9.01 4.67 -8.02 4.34 -7 4 C-7 3.01 -7 2.02 -7 1 C-3.375 -1.125 -3.375 -1.125 0 0 Z " fill="#FCD215" transform="translate(522,176)"/>
<path d="M0 0 C3.08740571 2.56028766 3.84231065 4.14146911 4.5625 8.0625 C3.79383133 12.0766586 2.32811513 12.65863422 -1 15 C-3.83319926 16.6627534 -6.72553114 18.20645656 -9.625 19.75 C-15.1641861 22.73083556 -20.25336492 25.78273941 -25.1875 29.6875 C-30.30714401 33.5724526 -30.30714401 33.5724526 -34 33.3125 C-37 32 -37 32 -38.9375 29.875 C-40.35905511 26.02843912 -40.82983339 24.08001416 -40 20 C-34.61164003 13.42303121 -26.41051112 8.03234759 -19 4 C-17.68 4 -16.36 4 -15 4 C-15 3.34 -15 2.68 -15 2 C-10.06816412 -0.02331729 -5.27654158 -0.97120405 0 0 Z " fill="#FCF3D1" transform="translate(459,332)"/>
<path d="M0 0 C21.45 0 42.9 0 65 0 C61.63584183 6.72831634 55.87429183 10.29796622 49 13 C37.34737448 15.68718056 21.5231777 16.14164108 11 10 C8.19049334 8.1459148 5.59326223 6.14066458 3 4 C2.01 3.34 1.02 2.68 0 2 C0 1.34 0 0.68 0 0 Z " fill="#70787B" transform="translate(480,800)"/>
<path d="M0 0 C2.49552403 2.27597646 4.06622986 4.60721178 5.6875 7.5625 C6.12449219 8.34753906 6.56148438 9.13257813 7.01171875 9.94140625 C8 12 8 12 8 14 C8.69867188 14.19335938 9.39734375 14.38671875 10.1171875 14.5859375 C11.02726562 14.84632813 11.93734375 15.10671875 12.875 15.375 C13.77992188 15.63023437 14.68484375 15.88546875 15.6171875 16.1484375 C18 17 18 17 20 19 C19.41992188 19.23074219 18.83984375 19.46148438 18.2421875 19.69921875 C9.5209079 23.32505318 9.5209079 23.32505318 3.74609375 30.54296875 C2.74808945 33.00842189 1.83358615 35.4747243 1 38 C0.34 38 -0.32 38 -1 38 C-1.23074219 37.32453125 -1.46148437 36.6490625 -1.69921875 35.953125 C-3.66546976 30.57507876 -5.08732263 27.27511825 -10 24 C-10 23.34 -10 22.68 -10 22 C-14.455 21.01 -14.455 21.01 -19 20 C-19 19.34 -19 18.68 -19 18 C-18.16855469 17.61328125 -17.33710938 17.2265625 -16.48046875 16.828125 C-15.39378906 16.30734375 -14.30710937 15.7865625 -13.1875 15.25 C-11.56908203 14.48429688 -11.56908203 14.48429688 -9.91796875 13.703125 C-5.62919829 11.1999069 -3.92758368 8.12603519 -1.8125 3.75 C-1.46832031 3.04359375 -1.12414062 2.3371875 -0.76953125 1.609375 C-0.38861328 0.81273437 -0.38861328 0.81273437 0 0 Z " fill="#F5D731" transform="translate(322,617)"/>
<path d="M0 0 C3 1 3 1 4.32421875 3.58203125 C4.77410156 4.64808594 5.22398437 5.71414063 5.6875 6.8125 C8.10715272 11.90586897 9.89614118 14.42159276 15.16796875 16.44921875 C15.77253906 16.63097656 16.37710938 16.81273437 17 17 C17.99 17.33 18.98 17.66 20 18 C20 18.66 20 19.32 20 20 C18.98679687 20.36351562 18.98679687 20.36351562 17.953125 20.734375 C11.06196205 23.0956469 11.06196205 23.0956469 6 28 C4.81152714 31.29035718 3.85429958 34.60868955 3 38 C2.01 38 1.02 38 0 38 C-0.13535156 37.41992188 -0.27070313 36.83984375 -0.41015625 36.2421875 C-2.12805528 30.00837426 -4.45319399 26.40669975 -10 23 C-12.6483043 21.77770571 -15.20833254 20.8815792 -18 20 C-18 19.01 -18 18.02 -18 17 C-17.25234375 16.76925781 -16.5046875 16.53851563 -15.734375 16.30078125 C-8.06594916 13.91289184 -8.06594916 13.91289184 -3 8 C-1.87710864 5.35529534 -0.92412732 2.72617558 0 0 Z " fill="#F1D831" transform="translate(283,287)"/>
<path d="M0 0 C0.66 0 1.32 0 2 0 C2.21914063 0.75925781 2.43828125 1.51851563 2.6640625 2.30078125 C4.47450595 8.48140734 4.47450595 8.48140734 8.75 13 C9.8225 13.33 10.895 13.66 12 14 C13.46069792 14.5563308 14.91899879 15.11899069 16.375 15.6875 C18.169375 16.3371875 18.169375 16.3371875 20 17 C19.505 18.485 19.505 18.485 19 20 C16.85546875 21.02734375 16.85546875 21.02734375 14.1875 21.9375 C8.8191159 23.9095424 8.8191159 23.9095424 5 28 C3.81152714 31.29035718 2.85429958 34.60868955 2 38 C0.515 37.505 0.515 37.505 -1 37 C-1.72236216 35.02992139 -2.44012008 33.05774071 -3.11328125 31.0703125 C-4.42315603 28.01201456 -6.52250178 26.15987025 -9 24 C-9.66 23.34 -10.32 22.68 -11 22 C-12.96690374 21.32707499 -12.96690374 21.32707499 -15.125 20.875 C-16.40375 20.58625 -17.6825 20.2975 -19 20 C-18.505 18.515 -18.505 18.515 -18 17 C-15.890625 16.04296875 -15.890625 16.04296875 -13.25 15.1875 C-7.4756755 13.01286139 -4.82422377 10.68552526 -2.0390625 5.05859375 C-1.30630784 3.3947701 -0.64579708 1.69946599 0 0 Z " fill="#F3D935" transform="translate(726,309)"/>
<path d="M0 0 C0.66 0.33 1.32 0.66 2 1 C2.6328125 3.06640625 2.6328125 3.06640625 3.125 5.5625 C3.29257812 6.38878906 3.46015625 7.21507812 3.6328125 8.06640625 C3.75398437 8.70449219 3.87515625 9.34257813 4 10 C4.66 10 5.32 10 6 10 C6.70125 10.763125 7.4025 11.52625 8.125 12.3125 C11.65104109 15.60858189 14.44397762 16.53280635 19 18 C19 18.66 19 19.32 19 20 C18.25234375 20.21914063 17.5046875 20.43828125 16.734375 20.6640625 C10.49171307 22.63389466 10.49171307 22.63389466 5.5 26.6875 C3.67825428 30.71052181 2.24231501 34.76483518 1 39 C-1 38 -1 38 -1.7890625 35.671875 C-2.20285156 34.22554687 -2.20285156 34.22554687 -2.625 32.75 C-4.40508779 27.64796399 -6.11564297 25.33399632 -10.89453125 22.859375 C-13.90501228 21.63060723 -16.82869008 20.72675852 -20 20 C-19.505 18.515 -19.505 18.515 -19 17 C-16.30674785 15.82921435 -13.56670556 15.02524564 -10.76171875 14.16015625 C-5.88915035 12.11326401 -3.72019547 9.03476043 -1.75 4.25 C-1.24726562 3.05117188 -1.24726562 3.05117188 -0.734375 1.828125 C-0.49203125 1.22484375 -0.2496875 0.6215625 0 0 Z " fill="#F4E465" transform="translate(697,617)"/>
<path d="M0 0 C0.99 0.33 1.98 0.66 3 1 C3.33 3.31 3.66 5.62 4 8 C4.66 8 5.32 8 6 8 C6.70125 8.928125 7.4025 9.85625 8.125 10.8125 C11.1522848 14.65796988 14.39116747 15.5939155 19 17 C19 17.99 19 18.98 19 20 C17.783125 20.4125 16.56625 20.825 15.3125 21.25 C10.55636352 23.08702626 7.11698339 24.6744772 4.80859375 29.48046875 C3.80170139 31.9678788 2.86735465 34.46092828 2 37 C1.34 37 0.68 37 0 37 C-0.25394531 36.31292969 -0.50789063 35.62585938 -0.76953125 34.91796875 C-1.11371094 34.01691406 -1.45789063 33.11585938 -1.8125 32.1875 C-2.14894531 31.29417969 -2.48539062 30.40085938 -2.83203125 29.48046875 C-4.00742489 26.98423142 -4.8083146 25.64757789 -7 24 C-9.58325386 23.14579305 -12.16995673 22.55214041 -14.8203125 21.94140625 C-15.53960937 21.63074219 -16.25890625 21.32007813 -17 21 C-17.8046875 18.90234375 -17.8046875 18.90234375 -18 17 C-17.40832031 16.82984375 -16.81664062 16.6596875 -16.20703125 16.484375 C-9.42270144 14.41358787 -9.42270144 14.41358787 -4 10 C-2.43893811 6.73922928 -1.16807899 3.4194044 0 0 Z " fill="#EFD82E" transform="translate(421,200)"/>
<path d="M0 0 C2.71410342 2.35941945 3.70791356 4.55393407 5 7.875 C7.65422915 13.49572056 11.11443625 15.09139566 16.76953125 17.2578125 C17.50558594 17.50273437 18.24164062 17.74765625 19 18 C18 20 18 20 16.07421875 20.7109375 C15.28660156 20.93007813 14.49898437 21.14921875 13.6875 21.375 C8.86537439 22.92387895 6.3742913 24.50520639 3.87890625 29.03515625 C2.87445156 31.0058338 1.91813994 32.98790609 1 35 C0.34 35 -0.32 35 -1 35 C-1.20753906 34.48050781 -1.41507813 33.96101562 -1.62890625 33.42578125 C-4.03652123 27.97590801 -6.66231382 24.73528732 -12 22 C-14.33788 21.13125471 -16.55705695 20.54841579 -19 20 C-19 19.01 -19 18.02 -19 17 C-17.783125 16.566875 -16.56625 16.13375 -15.3125 15.6875 C-13.8730643 15.12997209 -12.43543577 14.56774699 -11 14 C-10.113125 13.649375 -9.22625 13.29875 -8.3125 12.9375 C-5.08016999 10.22933161 -3.75369154 6.97483279 -2.015625 3.1796875 C-1 1 -1 1 0 0 Z " fill="#EFD931" transform="translate(779,482)"/>
<path d="M0 0 C0.66 0 1.32 0 2 0 C2.23074219 0.81984375 2.46148438 1.6396875 2.69921875 2.484375 C4.58400958 8.94691953 4.58400958 8.94691953 8.125 14.5625 C12.25641582 16.62820791 16.53533911 17.85565973 21 19 C21 19.66 21 20.32 21 21 C20.18015625 21.23074219 19.3603125 21.46148437 18.515625 21.69921875 C12.02942333 23.58223384 12.02942333 23.58223384 6.4375 27.1875 C4.49158432 30.99472632 3.17993208 34.89705437 2 39 C1.34 39 0.68 39 0 39 C-0.23074219 38.25234375 -0.46148438 37.5046875 -0.69921875 36.734375 C-3.08513791 29.05448963 -3.08513791 29.05448963 -9 24 C-12.29646709 22.55684621 -15.61991299 21.23389584 -19 20 C-18.67 19.34 -18.34 18.68 -18 18 C-15.890625 17.32421875 -15.890625 17.32421875 -13.25 16.6875 C-8.5619126 15.32320638 -5.89114103 14.11768571 -3 10 C-1.76114836 6.71653956 -0.81483033 3.41168796 0 0 Z " fill="#F2EBA1" transform="translate(611,212)"/>
<path d="M0 0 C0.99 0.33 1.98 0.66 3 1 C3.80859375 2.890625 3.80859375 2.890625 4.4375 5.25 C5.72294807 9.32596851 6.6994268 12.11199845 10 15 C13.59546132 16.57950902 17.24937875 17.84248068 21 19 C18.71163913 21.64660267 16.92208907 22.50252662 13.5625 23.375 C9.27625401 24.73659516 7.2814015 25.96367428 5 30 C3.85478434 32.96262312 2.87767826 35.94807331 2 39 C1.34 39 0.68 39 0 39 C-0.23783203 38.00419922 -0.23783203 38.00419922 -0.48046875 36.98828125 C-1.95073387 31.42401823 -3.06941469 27.3897774 -8 24 C-11.61820528 22.74460014 -15.25793372 21.80608433 -19 21 C-19 20.34 -19 19.68 -19 19 C-18.25234375 18.75765625 -17.5046875 18.5153125 -16.734375 18.265625 C-15.74953125 17.93046875 -14.7646875 17.5953125 -13.75 17.25 C-12.28820312 16.76273437 -12.28820312 16.76273437 -10.796875 16.265625 C-6.64035812 14.38474306 -4.61525694 12.35964188 -2.734375 8.203125 C-2.40953125 7.22859375 -2.0846875 6.2540625 -1.75 5.25 C-1.24726563 3.77273438 -1.24726563 3.77273438 -0.734375 2.265625 C-0.49203125 1.51796875 -0.2496875 0.7703125 0 0 Z " fill="#F2E9A2" transform="translate(244,459)"/>
<path d="M0 0 C0.7139946 -0.00761353 1.4279892 -0.01522705 2.16362 -0.02307129 C3.67406727 -0.03386984 5.18458919 -0.03672634 6.69506836 -0.03222656 C8.99396288 -0.03125748 11.28948105 -0.07280238 13.58789062 -0.1171875 C15.05858683 -0.12239751 16.52929457 -0.12508264 18 -0.125 C18.68145584 -0.14139526 19.36291168 -0.15779053 20.0650177 -0.17468262 C25.62640624 -0.09513274 27.88842908 1.74254605 31.69921875 5.46875 C30.66967262 8.45443377 29.80399807 9.40467338 27.06713867 11.07836914 C21.58938438 13.33975448 15.99903088 12.95019066 10.16674805 12.91479492 C8.00669702 12.90623009 5.84924709 12.93517579 3.68945312 12.96679688 C2.31380287 12.96840781 0.93814795 12.96783341 -0.4375 12.96484375 C-1.68233154 12.96669678 -2.92716309 12.9685498 -4.2097168 12.97045898 C-7.30078125 12.46875 -7.30078125 12.46875 -9.20629883 10.59790039 C-10.56258579 7.95944878 -10.75134996 6.3974466 -10.30078125 3.46875 C-7.76875306 -0.38229631 -4.1978767 0.0012298 0 0 Z " fill="#C6C8CD" transform="translate(445.30078125,706.53125)"/>
<path d="M0 0 C1.75763672 -0.04253906 1.75763672 -0.04253906 3.55078125 -0.0859375 C13.17005895 -0.10777468 13.17005895 -0.10777468 16.9453125 3.03125 C17.66460937 3.8459375 18.38390625 4.660625 19.125 5.5 C18.17129001 8.26575896 17.24324782 9.4168035 14.83203125 11.11328125 C9.37971081 13.15287425 4.20908736 12.934331 -1.5625 12.875 C-2.70267578 12.88660156 -3.84285156 12.89820313 -5.01757812 12.91015625 C-6.10876953 12.90628906 -7.19996094 12.90242187 -8.32421875 12.8984375 C-9.81441528 12.89336182 -9.81441528 12.89336182 -11.3347168 12.88818359 C-13.875 12.5 -13.875 12.5 -15.69458008 11.16259766 C-17.55320146 8.54476692 -17.32819553 6.6076265 -16.875 3.5 C-12.23880262 -1.12938144 -6.12573515 -0.01338959 0 0 Z " fill="#CBCDD1" transform="translate(457.875,739.5)"/>
<path d="M0 0 C14.85 0 29.7 0 45 0 C44.67 0.99 44.34 1.98 44 3 C44 2.34 44 1.68 44 1 C41.36 1 38.72 1 36 1 C35.835 1.845625 35.67 2.69125 35.5 3.5625 C33.09397679 9.07630319 28.68229598 12.41813314 23.5625 15.4375 C18.04375209 16.64893247 12.98553991 16.84887995 8 14 C9.91572291 11.97784803 11.84576131 10.34410348 14.0625 8.625 C17.42539892 6.01156943 17.42539892 6.01156943 19 1 C12.73 1 6.46 1 0 1 C0 0.67 0 0.34 0 0 Z " fill="#6C7374" transform="translate(531,768)"/>
<path d="M0 0 C-0.55852667 5.4367976 -1.93957617 9.9183367 -4.0625 14.9375 C-4.34416016 15.62134766 -4.62582031 16.30519531 -4.91601562 17.00976562 C-5.6035405 18.67613946 -6.30076175 20.33850727 -7 22 C-9.97 22.33 -12.94 22.66 -16 23 C-16.41985832 15.65247948 -16.08656674 9.34493258 -12 3 C-8.46139589 0.22445981 -4.42795723 -0.40254157 0 0 Z " fill="#E6A401" transform="translate(586,658)"/>
<path d="M0 0 C4.45850936 0.79616239 5.90783917 1.93313458 8.5 5.625 C8.8125 9.4375 8.8125 9.4375 8.5 12.625 C3.64783889 14.6156302 -1.29512468 15.54700649 -6.5 14.625 C-8.26953125 13.28515625 -8.26953125 13.28515625 -9.5 11.625 C-9.5 7.70472868 -8.7111143 5.91062523 -6.375 2.75 C-3.5 0.625 -3.5 0.625 0 0 Z " fill="#898F92" transform="translate(586.5,703.375)"/>
<path d="M0 0 C1.625 1.9375 1.625 1.9375 2.25 5.375 C1.625 8.9375 1.625 8.9375 -0.875 11.375 C-5.29223266 13.34697886 -7.5861789 13.56554211 -12.375 12.9375 C-14.4375 11.3125 -14.4375 11.3125 -15.375 8.9375 C-15.24350006 5.71575143 -14.96342409 3.71314994 -13 1.125 C-9.04434783 -1.76566889 -4.39223128 -1.96494557 0 0 Z " fill="#FCF3CC" transform="translate(483.375,324.0625)"/>
<path d="M0 0 C2.55367434 0.18341307 4.17909227 0.54955172 6.5625 1.5625 C8.0625 3.5 8.0625 3.5 8.625 6.9375 C8.0625 10.5 8.0625 10.5 6 12.9375 C2.38600465 14.85983795 0.10490704 14.94915634 -3.9375 14.5 C-4.9275 13.84 -5.9175 13.18 -6.9375 12.5 C-7.35838216 8.78220762 -7.14382102 6.10606799 -5.9375 2.5625 C-3.9375 0.5 -3.9375 0.5 0 0 Z " fill="#FBE88E" transform="translate(465.9375,366.5)"/>
<path d="M0 0 C6.93 0 13.86 0 21 0 C21 7 21 7 19.4375 9 C15.78677348 10.49773396 13.79679968 10.07575991 10 9 C5.88890502 6.50955367 2.67568868 4.01353302 0 0 Z " fill="#989C9E" transform="translate(481,801)"/>
<path d="M0 0 C2.4375 1.6875 2.4375 1.6875 4 4 C3.93021497 6.86118637 3.48607436 8.37675128 1.7265625 10.6328125 C-0.49197375 12.38957198 -1.76250707 12.3724669 -4.5625 12.3125 C-5.34753906 12.30863281 -6.13257813 12.30476563 -6.94140625 12.30078125 C-9 12 -9 12 -11 10 C-11.4375 6.5625 -11.4375 6.5625 -11 3 C-7.60918252 -0.0916277 -4.48880928 -0.66854606 0 0 Z " fill="#FCF3CB" transform="translate(507,318)"/>
<path d="M0 0 C1.81472821 1.26736239 3.65749771 2.28429899 5.68359375 3.17578125 C4.69359375 4.66078125 4.69359375 4.66078125 3.68359375 6.17578125 C-1.04743975 7.04019405 -6.1452605 6.6089496 -10.31640625 4.17578125 C-13.12890625 1.80078125 -13.12890625 1.80078125 -15.31640625 -0.82421875 C-15.31640625 -2.14421875 -15.31640625 -3.46421875 -15.31640625 -4.82421875 C-8.21439082 -6.43831316 -5.54352551 -4.04140892 0 0 Z " fill="#D9DADC" transform="translate(471.31640625,777.82421875)"/>
<path d="M0 0 C3.5625 0.375 3.5625 0.375 5.5 2.0625 C6.73678056 4.75431651 6.94799146 6.44526494 6.5625 9.375 C4.5625 11.375 4.5625 11.375 2.6875 11.640625 C1.98625 11.63546875 1.285 11.6303125 0.5625 11.625 C-0.13875 11.63015625 -0.84 11.6353125 -1.5625 11.640625 C-3.4375 11.375 -3.4375 11.375 -5.4375 9.375 C-5.6875 5.875 -5.6875 5.875 -5.4375 2.375 C-3.4375 0.375 -3.4375 0.375 0 0 Z " fill="#18CF98" transform="translate(450.4375,247.625)"/>
<path d="M0 0 C5.42465753 0.48219178 5.42465753 0.48219178 7.875 2.6875 C9.31839775 5.65448426 9.35439721 7.73954567 9 11 C7 13 7 13 4.0625 13.375 C1 13 1 13 -0.875 11.375 C-2.30243074 8.36153511 -2.35113132 6.30063438 -2 3 C-1.34 2.01 -0.68 1.02 0 0 Z " fill="#FBF0B7" transform="translate(390,548)"/>
<path d="M0 0 C2.5 -0.3125 2.5 -0.3125 5 0 C7 2 7 2 7.23046875 4.12890625 C7.20919922 5.33353516 7.20919922 5.33353516 7.1875 6.5625 C7.17783203 7.77099609 7.17783203 7.77099609 7.16796875 9.00390625 C7 11 7 11 6 12 C-0.72 11.28 -0.72 11.28 -2 10 C-2.35897436 3.53846154 -2.35897436 3.53846154 0 0 Z " fill="#FCE583" transform="translate(367,505)"/>
<path d="M0 0 C2.5625 0.3125 2.5625 0.3125 4.375 1.5 C6.00302002 3.98487266 6.07225499 5.39961432 5.5625 8.3125 C3.8125 10.1875 3.8125 10.1875 1.5625 11.3125 C-0.5625 11.1875 -0.5625 11.1875 -2.4375 10.3125 C-4.58665785 7.08876323 -4.82036803 6.04546326 -4.4375 2.3125 C-2.4375 0.3125 -2.4375 0.3125 0 0 Z " fill="#FBE685" transform="translate(376.4375,527.6875)"/>
<path d="M0 0 C0.33 0.66 0.66 1.32 1 2 C-0.98955315 4.67460076 -2.99356785 7.33804476 -5 10 C-5.55300781 10.74378906 -6.10601563 11.48757812 -6.67578125 12.25390625 C-9.5401169 16.04009706 -12.44501265 19.52542879 -15.875 22.8125 C-20.92758245 27.69666303 -24.90375757 33.3107744 -29 39 C-29 30.70506788 -16.99800124 20.43831719 -11.68798828 14.39135742 C-7.60269837 9.73310833 -3.70373445 4.96973822 0 0 Z " fill="#D2DE54" transform="translate(681,244)"/>
<path d="M0 0 C3.96 0 7.92 0 12 0 C12.33 0.99 12.66 1.98 13 3 C12 4 12 4 8.9375 4.0625 C7.968125 4.041875 6.99875 4.02125 6 4 C6.66 5.98 7.32 7.96 8 10 C6.35 10 4.7 10 3 10 C0.96564469 6.27034861 0 4.33094958 0 0 Z " fill="#AEB2B6" transform="translate(450,769)"/>
<path d="M0 0 C0.66 0.66 1.32 1.32 2 2 C1.625 5.625 1.625 5.625 1 9 C-1.31 9 -3.62 9 -6 9 C-7.76462683 5.91190305 -8 4.76687864 -8 1 C-5.03104944 0.01034981 -3.0913386 -0.23779528 0 0 Z " fill="#FDDE43" transform="translate(528,302)"/>
<path d="M0 0 C4.55555556 0.55555556 4.55555556 0.55555556 6 2 C6.125 5.5 6.125 5.5 6 9 C5 10 5 10 2.5625 10.1875 C0 10 0 10 -2 8 C-2.25 5 -2.25 5 -2 2 C-1.34 1.34 -0.68 0.68 0 0 Z " fill="#FCEB94" transform="translate(365,488)"/>
<path d="M0 0 C0 3 0 3 -2.01953125 5.36010742 C-3.40205078 6.71906128 -3.40205078 6.71906128 -4.8125 8.10546875 C-5.30081299 8.5895369 -5.78912598 9.07360504 -6.29223633 9.57234192 C-7.85459826 11.1179014 -9.42706327 12.65271107 -11 14.1875 C-12.06057762 15.23303282 -13.12048229 16.27924873 -14.1796875 17.32617188 C-16.77869434 19.89208902 -19.3868639 22.44846467 -22 25 C-22.66 24.67 -23.32 24.34 -24 24 C-7.94924527 6.54897172 -7.94924527 6.54897172 0 0 Z " fill="#043332" transform="translate(391,329)"/>
<path d="M0 0 C0.33 0 0.66 0 1 0 C1.28052995 5.23655906 0.93542923 8.73838422 -1.140625 13.64453125 C-2.62993591 17.72659705 -3.38135514 21.9928143 -4.25390625 26.2421875 C-5 29 -5 29 -7 31 C-6.50991072 21.03485131 -4.51169616 9.02339232 0 0 Z " fill="#FADC55" transform="translate(359,416)"/>
<path d="M0 0 C3.24638683 1.77920587 6.31911811 3.63823622 8 7 C8.07033769 8.87379605 8.0843022 10.75001102 8.0625 12.625 C8.05347656 13.62789062 8.04445313 14.63078125 8.03515625 15.6640625 C8.02355469 16.43492187 8.01195312 17.20578125 8 18 C7.67 18 7.34 18 7 18 C6.93941406 17.37351563 6.87882813 16.74703125 6.81640625 16.1015625 C6.73261719 15.28429687 6.64882813 14.46703125 6.5625 13.625 C6.48128906 12.81289062 6.40007813 12.00078125 6.31640625 11.1640625 C6.10909886 8.95727195 6.10909886 8.95727195 5 7 C2.47266765 6.34444881 2.47266765 6.34444881 0 6 C-0.33 4.68 -0.66 3.36 -1 2 C-5.455 2.495 -5.455 2.495 -10 3 C-8.05734595 -0.8853081 -3.8493906 -0.44416045 0 0 Z " fill="#E1DC38" transform="translate(516,169)"/>
<path d="M0 0 C6.4652248 0.96260014 10.29385826 2.41452857 15 7 C14.67 8.32 14.34 9.64 14 11 C11.76873282 9.88436641 9.98367867 8.51309796 8 7 C7.29359375 6.48179687 6.5871875 5.96359375 5.859375 5.4296875 C5.16328125 4.91664063 4.4671875 4.40359375 3.75 3.875 C3.04359375 3.35679687 2.3371875 2.83859375 1.609375 2.3046875 C1.07828125 1.87414062 0.5471875 1.44359375 0 1 C0 0.67 0 0.34 0 0 Z " fill="#B7B9BC" transform="translate(464,772)"/>
<path d="M0 0 C-1.89379058 0.48205578 -3.78860452 0.9603379 -5.6875 1.421875 C-7.11182331 1.77795583 -8.53063586 2.15833489 -9.9375 2.578125 C-17.79572101 4.72685731 -25.92678774 4.16684021 -34 4 C-34 3.67 -34 3.34 -34 3 C-30.37 3 -26.74 3 -23 3 C-23 2.34 -23 1.68 -23 1 C-19.91792919 0.63421676 -16.83424623 0.28442175 -13.75 -0.0625 C-12.87730469 -0.16626953 -12.00460937 -0.27003906 -11.10546875 -0.37695312 C-10.26113281 -0.47041016 -9.41679688 -0.56386719 -8.546875 -0.66015625 C-7.77182617 -0.74918213 -6.99677734 -0.83820801 -6.19824219 -0.92993164 C-3.92884036 -1.00226819 -2.16317911 -0.65714106 0 0 Z " fill="#8DCF59" transform="translate(772,426)"/>
<path d="M0 0 C1.36421031 2.72842061 0.87807211 4.60953318 0.5625 7.625 C0.40974609 9.12933594 0.40974609 9.12933594 0.25390625 10.6640625 C0.17011719 11.43492187 0.08632813 12.20578125 0 13 C0.66 13 1.32 13 2 13 C2.33 12.34 2.66 11.68 3 11 C3 11.99 3 12.98 3 14 C5.64 14.66 8.28 15.32 11 16 C10.34 16.66 9.68 17.32 9 18 C4.95865264 17.92516023 2.71722616 17.58849326 -0.4375 15 C-2.52165047 10.9984311 -2.71487182 7.43885526 -2 3 C-1.34 2.01 -0.68 1.02 0 0 Z " fill="#CAD653" transform="translate(650,283)"/>
<path d="M0 0 C0 0.33 0 0.66 0 1 C-1.65 1 -3.3 1 -5 1 C-5 1.99 -5 2.98 -5 4 C-11.27 4 -17.54 4 -24 4 C-24 3.67 -24 3.34 -24 3 C-21.50159546 2.49061655 -19.00176612 1.99236886 -16.5 1.5 C-15.80390625 1.35691406 -15.1078125 1.21382813 -14.390625 1.06640625 C-9.50912797 0.11722627 -4.97281701 -0.13440046 0 0 Z " fill="#C7DF6A" transform="translate(806,395)"/>
<path d="M0 0 C1.62463842 -0.05395478 3.24978541 -0.09277195 4.875 -0.125 C5.77992188 -0.14820313 6.68484375 -0.17140625 7.6171875 -0.1953125 C10 0 10 0 12 2 C10.35 1.67 8.7 1.34 7 1 C7 2.32 7 3.64 7 5 C4.39417629 5.93065133 3.35801776 6.14917407 0.75 5.0625 C0.1725 4.711875 -0.405 4.36125 -1 4 C-0.67 2.68 -0.34 1.36 0 0 Z " fill="#F7D934" transform="translate(326,219)"/>
<path d="M0 0 C0.66 0 1.32 0 2 0 C2.042721 1.66611905 2.04063832 3.33382885 2 5 C1 6 1 6 -1.9375 6.125 C-5 6 -5 6 -7 5 C-6.67 3.68 -6.34 2.36 -6 1 C-4.7934375 1.0309375 -4.7934375 1.0309375 -3.5625 1.0625 C-1.06645115 1.29633621 -1.06645115 1.29633621 0 0 Z " fill="#31CE84" transform="translate(453,252)"/>
<path d="M0 0 C0.66 0 1.32 0 2 0 C2.18451025 10.55808656 2.18451025 10.55808656 1 15 C0.01 15.33 -0.98 15.66 -2 16 C-1.85833643 14.08302063 -1.71150416 12.16642277 -1.5625 10.25 C-1.48128906 9.18265625 -1.40007813 8.1153125 -1.31640625 7.015625 C-1.05909227 4.56320038 -0.68187782 2.36078709 0 0 Z " fill="#13C49D" transform="translate(525,233)"/>
<path d="M0 0 C0.33 0.66 0.66 1.32 1 2 C0.0625 4.625 0.0625 4.625 -1 7 C-0.34 7 0.32 7 1 7 C2.60725635 10.21451269 2.05748185 13.43612536 2 17 C1.34 17 0.68 17 0 17 C-0.33 17.66 -0.66 18.32 -1 19 C-1.22114415 16.20880221 -1.42743301 13.4178788 -1.625 10.625 C-1.68945312 9.8309375 -1.75390625 9.036875 -1.8203125 8.21875 C-1.96058587 6.14971776 -1.98758237 4.07374464 -2 2 C-1.34 1.34 -0.68 0.68 0 0 Z " fill="#EBDC4D" transform="translate(505,172)"/>
<path d="M0 0 C0.66 0.33 1.32 0.66 2 1 C0.04808712 3.17277152 -1.91097537 5.33822461 -3.875 7.5 C-4.43058594 8.12003906 -4.98617188 8.74007813 -5.55859375 9.37890625 C-6.09355469 9.96542969 -6.62851562 10.55195313 -7.1796875 11.15625 C-7.67194824 11.70087891 -8.16420898 12.24550781 -8.67138672 12.80664062 C-10 14 -10 14 -12 14 C-12 14.66 -12 15.32 -12 16 C-12.66 15.67 -13.32 15.34 -14 15 C-9.53648711 9.77674023 -4.9255107 4.79077028 0 0 Z " fill="#FDF1AE" transform="translate(407,363)"/>
<path d="M0 0 C-0.99 1.485 -0.99 1.485 -2 3 C-3.97119141 3.34057617 -3.97119141 3.34057617 -6.3515625 3.29296875 C-7.20234375 3.28330078 -8.053125 3.27363281 -8.9296875 3.26367188 C-9.81914062 3.23853516 -10.70859375 3.21339844 -11.625 3.1875 C-12.5221875 3.17396484 -13.419375 3.16042969 -14.34375 3.14648438 C-16.56309789 3.11106925 -18.78125188 3.06168461 -21 3 C-21 2.67 -21 2.34 -21 2 C-18.62561751 1.6616656 -16.25065041 1.32920998 -13.875 1 C-12.87726563 0.85691406 -12.87726563 0.85691406 -11.859375 0.7109375 C-7.87371019 0.16388547 -4.02140062 -0.10022182 0 0 Z " fill="#93989C" transform="translate(507,785)"/>
<path d="M0 0 C1.99954746 -0.04254356 4.00041636 -0.04080783 6 0 C7 1 7 1 7.0625 3.5625 C7.041875 4.366875 7.02125 5.17125 7 6 C4.625 6.125 4.625 6.125 2 6 C1.34 5.34 0.68 4.68 0 4 C0 2.68 0 1.36 0 0 Z " fill="#7BC42C" transform="translate(728,601)"/>
<path d="M0 0 C1.9375 0.375 1.9375 0.375 4 1 C5.5984947 4.1969894 5.50260215 7.52997971 5 11 C2.84824315 13.92024144 0.44339845 15.81633178 -3 17 C-4.34364362 16.71101782 -5.67986936 16.38228783 -7 16 C-6.36191406 15.65066406 -5.72382813 15.30132812 -5.06640625 14.94140625 C-4.24011719 14.48636719 -3.41382813 14.03132813 -2.5625 13.5625 C-1.32693359 12.88380859 -1.32693359 12.88380859 -0.06640625 12.19140625 C1.92308798 11.16337603 1.92308798 11.16337603 3 10 C3.07148199 8.64756083 3.08399454 7.29165633 3.0625 5.9375 C3.041875 4.638125 3.02125 3.33875 3 2 C2.01 1.67 1.02 1.34 0 1 C0 0.67 0 0.34 0 0 Z " fill="#FADC4C" transform="translate(459,333)"/>
<path d="M0 0 C0.66 0 1.32 0 2 0 C5.62870159 9.41002278 5.62870159 9.41002278 4 14 C3 12 3 12 2 10 C1.443125 9.01 0.88625 8.02 0.3125 7 C-1 4 -1 4 -0.6875 1.625 C-0.460625 1.08875 -0.23375 0.5525 0 0 Z " fill="#E9AE02" transform="translate(662,390)"/>
<path d="M0 0 C0.66 0 1.32 0 2 0 C7.55580866 13.44874715 7.55580866 13.44874715 8 21 C6.41806136 18.62709204 5.46910132 16.88037799 4.4921875 14.27734375 C4.22792969 13.57416016 3.96367187 12.87097656 3.69140625 12.14648438 C3.42199219 11.41751953 3.15257812 10.68855469 2.875 9.9375 C2.59785156 9.20466797 2.32070313 8.47183594 2.03515625 7.71679688 C0 2.25796644 0 2.25796644 0 0 Z " fill="#F9DA4A" transform="translate(438,651)"/>
<path d="M0 0 C-2.23497313 2.23497313 -2.97897623 2.37662947 -5.9921875 2.88671875 C-6.77980469 3.02013672 -7.56742188 3.15355469 -8.37890625 3.29101562 C-9.61447266 3.48727539 -9.61447266 3.48727539 -10.875 3.6875 C-11.69097656 3.82994141 -12.50695312 3.97238281 -13.34765625 4.11914062 C-14.53294922 4.3134668 -14.53294922 4.3134668 -15.7421875 4.51171875 C-16.82282471 4.68900513 -16.82282471 4.68900513 -17.92529297 4.86987305 C-20.16628852 5.01042972 -21.86334605 4.65375233 -24 4 C-23.28972656 3.86722656 -22.57945312 3.73445313 -21.84765625 3.59765625 C-20.92855469 3.42105469 -20.00945313 3.24445313 -19.0625 3.0625 C-17.68771484 2.80146484 -17.68771484 2.80146484 -16.28515625 2.53515625 C-14.04710156 2.22285012 -14.04710156 2.22285012 -13 1 C-8.62512908 0.34376936 -4.43069564 -0.13845924 0 0 Z " fill="#C9D34B" transform="translate(800,419)"/>
<path d="M0 0 C-1.98 0.99 -3.96 1.98 -6 3 C-5.34 4.32 -4.68 5.64 -4 7 C-6.97 6.01 -9.94 5.02 -13 4 C-12 2 -12 2 -9.78515625 1.11328125 C-8.88667969 0.84902344 -7.98820313 0.58476562 -7.0625 0.3125 C-6.16660156 0.04050781 -5.27070312 -0.23148438 -4.34765625 -0.51171875 C-2 -1 -2 -1 0 0 Z " fill="#CDE8AB" transform="translate(605,228)"/>
<path d="M0 0 C-3 2 -3 2 -6.4375 3.3125 C-10.17246627 5.08169455 -11.71754326 6.62196403 -14 10 C-14.99 9.67 -15.98 9.34 -17 9 C-15.73548068 7.68141572 -14.46314525 6.37032369 -13.1875 5.0625 C-12.47980469 4.33160156 -11.77210938 3.60070312 -11.04296875 2.84765625 C-7.56803078 -0.29506968 -4.49301924 -0.09984487 0 0 Z " fill="#BCD94E" transform="translate(706,226)"/>
<path d="M0 0 C1.2065625 0.0309375 1.2065625 0.0309375 2.4375 0.0625 C2.4375 1.7125 2.4375 3.3625 2.4375 5.0625 C0.7875 5.3925 -0.8625 5.7225 -2.5625 6.0625 C-2.94468767 4.40635343 -3.27645102 2.73792976 -3.5625 1.0625 C-2.5625 0.0625 -2.5625 0.0625 0 0 Z " fill="#115262" transform="translate(305.5625,649.9375)"/>
<path d="M0 0 C2.50037734 2.17424117 3.43628586 3.73045798 4 7 C2.8553125 6.9071875 2.8553125 6.9071875 1.6875 6.8125 C-1.48780806 7.03403312 -1.95735659 7.71775032 -4 10 C-3.52449439 8.51965236 -3.04448784 7.04074979 -2.5625 5.5625 C-2.29566406 4.73878906 -2.02882813 3.91507813 -1.75390625 3.06640625 C-1 1 -1 1 0 0 Z " fill="#C9D850" transform="translate(322,617)"/>
<path d="M0 0 C2.05078125 0.03255208 4.1015625 0.06510417 6.15234375 0.09765625 C6.15234375 0.42765625 6.15234375 0.75765625 6.15234375 1.09765625 C3.84234375 1.09765625 1.53234375 1.09765625 -0.84765625 1.09765625 C-1.11578125 1.71640625 -1.38390625 2.33515625 -1.66015625 2.97265625 C-2.84765625 5.09765625 -2.84765625 5.09765625 -5.84765625 7.09765625 C-6.42514428 9.06127489 -6.42514428 9.06127489 -6.53515625 11.22265625 C-6.63828125 12.50140625 -6.74140625 13.78015625 -6.84765625 15.09765625 C-7.17765625 15.09765625 -7.50765625 15.09765625 -7.84765625 15.09765625 C-8.63500484 7.06670066 -8.63500484 7.06670066 -5.41015625 3.09765625 C-4.56453125 2.43765625 -3.71890625 1.77765625 -2.84765625 1.09765625 C-1.84765625 0.09765625 -1.84765625 0.09765625 0 0 Z " fill="#D5E162" transform="translate(214.84765625,386.90234375)"/>
<path d="M0 0 C-1.32 0.33 -2.64 0.66 -4 1 C-4 1.99 -4 2.98 -4 4 C-3.21625 4.103125 -2.4325 4.20625 -1.625 4.3125 C1 5 1 5 3 8 C2.505 7.71125 2.01 7.4225 1.5 7.125 C-1.91752035 5.58711584 -5.3506202 4.85152195 -9 4 C-8.67 3.01 -8.34 2.02 -8 1 C-2.59770115 -1.29885057 -2.59770115 -1.29885057 0 0 Z " fill="#BAD358" transform="translate(716,325)"/>
<path d="M0 0 C2.625 -0.1875 2.625 -0.1875 5 0 C5.66 1.98 6.32 3.96 7 6 C6.34 6 5.68 6 5 6 C4.67 6.99 4.34 7.98 4 9 C3.67 7.02 3.34 5.04 3 3 C1.35 3 -0.3 3 -2 3 C-1.34 2.01 -0.68 1.02 0 0 Z " fill="#FDDA24" transform="translate(510,171)"/>
<path d="M0 0 C1.32 0.33 2.64 0.66 4 1 C4 3.64 4 6.28 4 9 C2.68 9 1.36 9 0 9 C0 6.03 0 3.06 0 0 Z " fill="#E8DA38" transform="translate(293,410)"/>
<path d="M0 0 C0.66 0.33 1.32 0.66 2 1 C-1.63 4.63 -5.26 8.26 -9 12 C-9.66 11.67 -10.32 11.34 -11 11 C-9.92173635 9.72486237 -8.83714481 8.45507431 -7.75 7.1875 C-7.14671875 6.47980469 -6.5434375 5.77210938 -5.921875 5.04296875 C-4.07629602 3.08110329 -2.20054668 1.54330375 0 0 Z " fill="#DFDECD" transform="translate(393,343)"/>
<path d="M0 0 C0.66 0.33 1.32 0.66 2 1 C0.44632634 2.01365893 -1.11837836 3.01042256 -2.6875 4 C-3.99267578 4.8353125 -3.99267578 4.8353125 -5.32421875 5.6875 C-8.16973337 7.08325608 -9.8788594 7.26993648 -13 7 C-13 7.66 -13 8.32 -13 9 C-14.32 8.67 -15.64 8.34 -17 8 C-4.87804878 1.82926829 -4.87804878 1.82926829 0 0 Z " fill="#F8DB50" transform="translate(456,316)"/>
<path d="M0 0 C0.33 0.99 0.66 1.98 1 3 C-2.33333333 6.33333333 -5.66666667 9.66666667 -9 13 C-9.4375 10.8125 -9.4375 10.8125 -9 8 C-7.34440051 6.50952592 -5.62426421 5.37454884 -3.7265625 4.2109375 C-1.70298315 2.9473934 -1.70298315 2.9473934 0 0 Z " fill="#13B69B" transform="translate(596,758)"/>
<path d="M0 0 C2.97 0.495 2.97 0.495 6 1 C6.33 1.99 6.66 2.98 7 4 C4.69 4 2.38 4 0 4 C0.33 6.64 0.66 9.28 1 12 C-0.5 10.875 -0.5 10.875 -2 9 C-2.42478586 4.92205575 -2.31282587 3.46923881 0 0 Z " fill="#FDEC8E" transform="translate(390,548)"/>
<path d="M0 0 C0 0.66 0 1.32 0 2 C-0.969375 2.28875 -1.93875 2.5775 -2.9375 2.875 C-6.10664203 3.64214682 -6.10664203 3.64214682 -7 6 C-5.68 6.66 -4.36 7.32 -3 8 C-8.75 7.125 -8.75 7.125 -11 6 C-11 5.01 -11 4.02 -11 3 C-9.54293274 2.49632243 -8.08429904 1.99717444 -6.625 1.5 C-5.81289063 1.2215625 -5.00078125 0.943125 -4.1640625 0.65625 C-2 0 -2 0 0 0 Z " fill="#B5D65E" transform="translate(276,301)"/>
<path d="M0 0 C3.96 1.32 7.92 2.64 12 4 C8.23452331 7.76547669 6.09826415 7.91348469 1 9 C1 8.34 1 7.68 1 7 C2.98 6.34 4.96 5.68 7 5 C4.69 4.01 2.38 3.02 0 2 C0 1.34 0 0.68 0 0 Z " fill="#D9EEB4" transform="translate(253,474)"/>
<path d="M0 0 C1 2 1 2 0.44140625 4.1640625 C0.15136719 4.97617187 -0.13867188 5.78828125 -0.4375 6.625 C-0.72496094 7.44226563 -1.01242187 8.25953125 -1.30859375 9.1015625 C-1.53675781 9.72804688 -1.76492188 10.35453125 -2 11 C-2.66 10.67 -3.32 10.34 -4 10 C-4.40729228 7.67843403 -4.74438677 5.3431213 -5 3 C-4.01 3.33 -3.02 3.66 -2 4 C-1.34 2.68 -0.68 1.36 0 0 Z " fill="#D8E894" transform="translate(700,645)"/>
<path d="M0 0 C0.99 0.33 1.98 0.66 3 1 C4.1875 4.0625 4.1875 4.0625 5 7 C4.34 7 3.68 7 3 7 C2.34 6.34 1.68 5.68 1 5 C-0.485 7.475 -0.485 7.475 -2 10 C-3 8 -3 8 -2.44140625 6.0546875 C-2.15136719 5.33539063 -1.86132812 4.61609375 -1.5625 3.875 C-1.27503906 3.15054687 -0.98757813 2.42609375 -0.69140625 1.6796875 C-0.46324219 1.12539063 -0.23507812 0.57109375 0 0 Z " fill="#B9D75D" transform="translate(283,287)"/>
<path d="M0 0 C-0.99 0.66 -1.98 1.32 -3 2 C-3 2.99 -3 3.98 -3 5 C-5.31 4.67 -7.62 4.34 -10 4 C-9.67 3.01 -9.34 2.02 -9 1 C-2.63157895 -1.31578947 -2.63157895 -1.31578947 0 0 Z " fill="#CBE384" transform="translate(687,633)"/>
<path d="M0 0 C0.99 0.495 0.99 0.495 2 1 C2 1.66 2 2.32 2 3 C2.69867188 3.19335938 3.39734375 3.38671875 4.1171875 3.5859375 C5.02726562 3.84632813 5.93734375 4.10671875 6.875 4.375 C7.77992188 4.63023437 8.68484375 4.88546875 9.6171875 5.1484375 C12 6 12 6 14 8 C12.35 8.66 10.7 9.32 9 10 C9.33 9.01 9.66 8.02 10 7 C9.2575 6.87625 8.515 6.7525 7.75 6.625 C5.1266089 6.02877475 3.22235432 5.50802614 1 4 C0.25 1.875 0.25 1.875 0 0 Z " fill="#CBDC54" transform="translate(328,628)"/>
<path d="M0 0 C1.98 0 3.96 0 6 0 C6 1.65 6 3.3 6 5 C4.35 4.67 2.7 4.34 1 4 C0.67 2.68 0.34 1.36 0 0 Z " fill="#FCE163" transform="translate(523,305)"/>
<path d="M0 0 C0 0.66 0 1.32 0 2 C-1.2065625 2.4021875 -1.2065625 2.4021875 -2.4375 2.8125 C-3.283125 3.204375 -4.12875 3.59625 -5 4 C-5.33 4.99 -5.66 5.98 -6 7 C-7.65 6.67 -9.3 6.34 -11 6 C-11 5.34 -11 4.68 -11 4 C-9.5437455 3.32880451 -8.08492133 2.66318193 -6.625 2 C-5.81289063 1.62875 -5.00078125 1.2575 -4.1640625 0.875 C-2 0 -2 0 0 0 Z " fill="#D3DC4D" transform="translate(314,631)"/>
<path d="M0 0 C0.33 0.99 0.66 1.98 1 3 C-3.10526316 8.70175439 -3.10526316 8.70175439 -7 10 C-5.6062718 5.56541027 -3.39417765 3.12621626 0 0 Z " fill="#FBDE4B" transform="translate(414,382)"/>
<path d="M0 0 C1.44197868 2.88395737 1.58833581 5.82430479 2 9 C4.31 9.33 6.62 9.66 9 10 C9 10.33 9 10.66 9 11 C1.61466822 11.48428405 1.61466822 11.48428405 -1.0625 9.375 C-2.30597523 6.22486274 -1.86159454 4.23097953 -1 1 C-0.67 0.67 -0.34 0.34 0 0 Z " fill="#FDF1AA" transform="translate(470,326)"/>
<path d="M0 0 C0.99 0 1.98 0 3 0 C3 0.66 3 1.32 3 2 C3.66 2 4.32 2 5 2 C5 1.34 5 0.68 5 0 C5.99 0.33 6.98 0.66 8 1 C4.93882432 3.62386487 4.26826873 4 0 4 C-0.66 4.99 -1.32 5.98 -2 7 C-2.125 4.625 -2.125 4.625 -2 2 C-1.34 1.34 -0.68 0.68 0 0 Z " fill="#28D08F" transform="translate(447,250)"/>
<path d="M0 0 C2.64 0 5.28 0 8 0 C7.67 0.99 7.34 1.98 7 3 C5.02 3.33 3.04 3.66 1 4 C0.67 2.68 0.34 1.36 0 0 Z " fill="#C1D347" transform="translate(403,217)"/>
<path d="M0 0 C0.75 1.6875 0.75 1.6875 1 4 C-0.9375 6.75 -0.9375 6.75 -3 9 C-3.99 8.67 -4.98 8.34 -6 8 C-5.67 7.34 -5.34 6.68 -5 6 C-4.34 6 -3.68 6 -3 6 C-2.690625 5.195625 -2.38125 4.39125 -2.0625 3.5625 C-1 1 -1 1 0 0 Z " fill="#E2C521" transform="translate(532,491)"/>
<path d="M0 0 C2.64 0 5.28 0 8 0 C8 0.66 8 1.32 8 2 C9.98 2 11.96 2 14 2 C14.33 2.66 14.66 3.32 15 4 C9.72684667 3.5547115 4.98229776 2.91626837 0 1 C0 0.67 0 0.34 0 0 Z " fill="#C6D545" transform="translate(216,409)"/>
<path d="M0 0 C2.64 0 5.28 0 8 0 C8.33 1.32 8.66 2.64 9 4 C2.25 3.125 2.25 3.125 0 2 C0 1.34 0 0.68 0 0 Z " fill="#22CF9A" transform="translate(229,387)"/>
<path d="M0 0 C0.99 0.33 1.98 0.66 3 1 C4.6875 4.5625 4.6875 4.5625 6 8 C6.66 8 7.32 8 8 8 C7.67 9.32 7.34 10.64 7 12 C6.34 12 5.68 12 5 12 C4.72285156 11.30132813 4.44570313 10.60265625 4.16015625 9.8828125 C3.79792969 8.97273437 3.43570312 8.06265625 3.0625 7.125 C2.70285156 6.22007812 2.34320313 5.31515625 1.97265625 4.3828125 C1.05098738 2.03862333 1.05098738 2.03862333 0 0 Z " fill="#C8D955" transform="translate(316,643)"/>
<path d="M0 0 C0.99 0.33 1.98 0.66 3 1 C3.94921875 3.50390625 3.94921875 3.50390625 4.6875 6.5625 C4.93886719 7.57441406 5.19023437 8.58632813 5.44921875 9.62890625 C5.63097656 10.41136719 5.81273437 11.19382812 6 12 C5.34 12 4.68 12 4 12 C3.51801537 10.75108386 3.03954323 9.50081192 2.5625 8.25 C2.29566406 7.55390625 2.02882812 6.8578125 1.75390625 6.140625 C1.03853307 4.10940997 0.48634348 2.0964709 0 0 Z " fill="#D0EAAE" transform="translate(244,459)"/>
<path d="M0 0 C5.05531868 0.77774134 10.01716284 1.85948394 15 3 C15 3.33 15 3.66 15 4 C9.5814234 4.22577402 5.22512279 3.46670113 0 2 C0 1.34 0 0.68 0 0 Z " fill="#D2E56D" transform="translate(225,388)"/>
<path d="M0 0 C3.32368224 1.10789408 3.61563093 1.48436217 5.25 4.375 C5.60578125 4.98085938 5.9615625 5.58671875 6.328125 6.2109375 C7 8 7 8 6 11 C4.9944239 9.54550599 3.99569565 8.08627557 3 6.625 C2.443125 5.81289063 1.88625 5.00078125 1.3125 4.1640625 C0 2 0 2 0 0 Z " fill="#FBDC44" transform="translate(418,614)"/>
<path d="M0 0 C0.98120464 3.05263664 0.98120464 4.94736336 0 8 C-1.65 7.67 -3.3 7.34 -5 7 C-4.67 5.68 -4.34 4.36 -4 3 C-4 3.99 -4 4.98 -4 6 C-3.34 6 -2.68 6 -2 6 C-1.34 4.02 -0.68 2.04 0 0 Z " fill="#61CD7C" transform="translate(782,511)"/>
<path d="M0 0 C0 0.33 0 0.66 0 1 C-6.93 2.485 -6.93 2.485 -14 4 C-14 3.01 -14 2.02 -14 1 C-9.27685687 0.22887459 -4.78478822 -0.09764874 0 0 Z " fill="#20CA8A" transform="translate(775,400)"/>
<path d="M0 0 C1.875 0.25 1.875 0.25 4 1 C5.25 3.0625 5.25 3.0625 6 5 C3.03 4.505 3.03 4.505 0 4 C0 2.68 0 1.36 0 0 Z " fill="#1EA274" transform="translate(289,361)"/>
<path d="M0 0 C1.65 0 3.3 0 5 0 C4.67 1.32 4.34 2.64 4 4 C2.35 4 0.7 4 -1 4 C-0.67 2.68 -0.34 1.36 0 0 Z " fill="#09C58A" transform="translate(314,341)"/>
<path d="M0 0 C1.32 0 2.64 0 4 0 C4 1.32 4 2.64 4 4 C2.35 4.33 0.7 4.66 -1 5 C-0.67 3.35 -0.34 1.7 0 0 Z " fill="#1EA393" transform="translate(289,254)"/>
<path d="M0 0 C0.66 0 1.32 0 2 0 C2 1.65 2 3.3 2 5 C2.66 5 3.32 5 4 5 C4 3.35 4 1.7 4 0 C4.66 0 5.32 0 6 0 C5.67 2.31 5.34 4.62 5 7 C4.01 7.33 3.02 7.66 2 8 C1.34 5.36 0.68 2.72 0 0 Z " fill="#C9E7B0" transform="translate(609,243)"/>
<path d="M0 0 C2.64 0.33 5.28 0.66 8 1 C8 1.66 8 2.32 8 3 C5.03 3 2.06 3 -1 3 C-0.67 2.01 -0.34 1.02 0 0 Z " fill="#30B17F" transform="translate(206,577)"/>
<path d="M0 0 C3.81818182 1.63636364 3.81818182 1.63636364 5 4 C1.37 3.34 -2.26 2.68 -6 2 C-6 1.34 -6 0.68 -6 0 C-3.44901433 -1.27549283 -2.66705587 -0.86287102 0 0 Z " fill="#CCE9B4" transform="translate(231,478)"/>
<path d="M0 0 C0.33 0 0.66 0 1 0 C1.5805813 3.0101878 2.04348662 5.92875755 2 9 C0.25 11.125 0.25 11.125 -2 12 C-2.99 11.67 -3.98 11.34 -5 11 C-4.34 11 -3.68 11 -3 11 C-2.67 10.01 -2.34 9.02 -2 8 C-1.34 8 -0.68 8 0 8 C0 5.36 0 2.72 0 0 Z " fill="#2EC588" transform="translate(297,411)"/>
<path d="M0 0 C0.66 0.33 1.32 0.66 2 1 C-0.23407889 4.35111834 -1.26215824 5.81553956 -5.25 6.8125 C-6.61125 6.9053125 -6.61125 6.9053125 -8 7 C-5.4837822 4.39391727 -2.94865641 2.10618315 0 0 Z " fill="#FCDE51" transform="translate(437,358)"/>
<path d="M0 0 C5.875 4.625 5.875 4.625 7 8 C6.01 8 5.02 8 4 8 C4 7.34 4 6.68 4 6 C3.34 6 2.68 6 2 6 C0 3 0 3 0 0 Z " fill="#DEB417" transform="translate(645,353)"/>
<path d="M0 0 C1.36517162 2.73034323 0.74894513 4.07230538 0 7 C-0.63437344 8.6792238 -1.29289322 10.35008418 -2 12 C-3.32 12 -4.64 12 -6 12 C-5.67 11.34 -5.34 10.68 -5 10 C-4.34 10.33 -3.68 10.66 -3 11 C-2.86722656 10.28972656 -2.73445312 9.57945312 -2.59765625 8.84765625 C-2.42105469 7.92855469 -2.24445312 7.00945312 -2.0625 6.0625 C-1.88847656 5.14597656 -1.71445312 4.22945313 -1.53515625 3.28515625 C-1 1 -1 1 0 0 Z " fill="#39C285" transform="translate(731,336)"/>
<path d="M0 0 C10.55808656 0.96355353 10.55808656 0.96355353 15 2 C15 2.33 15 2.66 15 3 C13.06318839 3.08107583 11.1254066 3.13922475 9.1875 3.1875 C8.10855469 3.22230469 7.02960937 3.25710938 5.91796875 3.29296875 C3 3 3 3 1.11328125 1.48828125 C0.56220703 0.75158203 0.56220703 0.75158203 0 0 Z " fill="#E0CE3C" transform="translate(544,298)"/>
<path d="M0 0 C1.5 1.3125 1.5 1.3125 3 3 C3 3.99 3 4.98 3 6 C0.69 6.33 -1.62 6.66 -4 7 C-3.67 5.68 -3.34 4.36 -3 3 C-3 3.99 -3 4.98 -3 6 C-2.34 6 -1.68 6 -1 6 C-0.67 4.02 -0.34 2.04 0 0 Z " fill="#36C382" transform="translate(424,231)"/>
<path d="M0 0 C2.46800047 1.15173355 4.04783565 2.04783565 6 4 C5.01 4.66 4.02 5.32 3 6 C1.68 5.34 0.36 4.68 -1 4 C-0.67 2.68 -0.34 1.36 0 0 Z " fill="#FCDC3E" transform="translate(326,219)"/>
<path d="M0 0 C1.32 0 2.64 0 4 0 C3.67 1.32 3.34 2.64 3 4 C1.68 4.33 0.36 4.66 -1 5 C-0.67 3.35 -0.34 1.7 0 0 Z " fill="#13B1A3" transform="translate(560,210)"/>
<path d="M0 0 C-0.66 0 -1.32 0 -2 0 C-2 0.99 -2 1.98 -2 3 C-1.01 3.33 -0.02 3.66 1 4 C-1.31 3.67 -3.62 3.34 -6 3 C-6 2.01 -6 1.02 -6 0 C-3.50907189 -1.24546405 -2.58919267 -0.7767578 0 0 Z " fill="#BFDC58" transform="translate(766,499)"/>
<path d="M0 0 C-0.33 1.32 -0.66 2.64 -1 4 C-2.65 3.67 -4.3 3.34 -6 3 C-6 2.34 -6 1.68 -6 1 C-4 0 -4 0 0 0 Z " fill="#66CE56" transform="translate(760,464)"/>
<path d="M0 0 C3.9945793 2.05127045 6.10267152 3.88912162 8 8 C7.67 8.66 7.34 9.32 7 10 C5.82739389 8.71372289 4.6620717 7.42080217 3.5 6.125 C2.8503125 5.40570313 2.200625 4.68640625 1.53125 3.9453125 C0 2 0 2 0 0 Z " fill="#D8C237" transform="translate(596,459)"/>
<path d="M0 0 C0.66 0 1.32 0 2 0 C2.33 1.65 2.66 3.3 3 5 C2.01 4.67 1.02 4.34 0 4 C-0.33 5.65 -0.66 7.3 -1 9 C-1.66 9 -2.32 9 -3 9 C-2.01 6.03 -1.02 3.06 0 0 Z " fill="#C6D866" transform="translate(726,309)"/>
<path d="M0 0 C1.32 0 2.64 0 4 0 C4.99 2.97 5.98 5.94 7 9 C4.03595495 6.19195732 1.55500981 3.81684226 0 0 Z " fill="#DFE073" transform="translate(332,248)"/>
<path d="M0 0 C0 3.41761705 -0.75938546 5.82954062 -2 9 C-2.99 9.495 -2.99 9.495 -4 10 C-3.5205537 5.78087253 -2.83374881 3.20336822 0 0 Z " fill="#34C78D" transform="translate(328,643)"/>
<path d="M0 0 C1.98 0 3.96 0 6 0 C6 0.99 6 1.98 6 3 C4.68 2.67 3.36 2.34 2 2 C1.67 2.99 1.34 3.98 1 5 C0.67 3.35 0.34 1.7 0 0 Z " fill="#3DAF60" transform="translate(728,601)"/>
<path d="M0 0 C1.32 0.33 2.64 0.66 4 1 C4.33 2.65 4.66 4.3 5 6 C3.0625 5.25 3.0625 5.25 1 4 C0.25 1.875 0.25 1.875 0 0 Z " fill="#0BAA96" transform="translate(725,459)"/>
<path d="M0 0 C1.65 0.33 3.3 0.66 5 1 C5 1.66 5 2.32 5 3 C2.69 3.33 0.38 3.66 -2 4 C-1.34 2.68 -0.68 1.36 0 0 Z " fill="#12A29B" transform="translate(735,277)"/>
<path d="M0 0 C1.32 0 2.64 0 4 0 C4 0.66 4 1.32 4 2 C-1.445 3.485 -1.445 3.485 -7 5 C-7 4.34 -7 3.68 -7 3 C-3.535 2.505 -3.535 2.505 0 2 C0 1.34 0 0.68 0 0 Z " fill="#D0ECB8" transform="translate(628,231)"/>
<path d="M0 0 C1.33332095 2.6666419 0.67102033 4.16680303 0 7 C0.99 7 1.98 7 3 7 C2.34 8.32 1.68 9.64 1 11 C-1.43769218 7.34346173 -1.23944439 5.30999899 -1 1 C-0.67 0.67 -0.34 0.34 0 0 Z " fill="#D8D652" transform="translate(717,545)"/>
<path d="M0 0 C0.78375 0.04125 1.5675 0.0825 2.375 0.125 C2.705 0.785 3.035 1.445 3.375 2.125 C2.611875 2.2075 1.84875 2.29 1.0625 2.375 C-2.14873261 3.27115794 -2.91874499 4.34111025 -4.625 7.125 C-4.75 4.75 -4.75 4.75 -4.625 2.125 C-2.625 0.125 -2.625 0.125 0 0 Z " fill="#FCE471" transform="translate(376.625,527.875)"/>
<path d="M0 0 C0.33 0.66 0.66 1.32 1 2 C-0.625 4.0625 -0.625 4.0625 -3 6 C-6.25 5.75 -6.25 5.75 -9 5 C-9 4.67 -9 4.34 -9 4 C-7.88625 3.71125 -6.7725 3.4225 -5.625 3.125 C-1.99708908 2.30758671 -1.99708908 2.30758671 0 0 Z " fill="#31C98B" transform="translate(382,287)"/>
<path d="M0 0 C2.475 0.495 2.475 0.495 5 1 C5 1.66 5 2.32 5 3 C5.66 3.33 6.32 3.66 7 4 C4.69 3.67 2.38 3.34 0 3 C0 2.01 0 1.02 0 0 Z " fill="#3ECC82" transform="translate(446,254)"/>
<path d="M0 0 C0.33 0 0.66 0 1 0 C1 2.31 1 4.62 1 7 C1.99 7.33 2.98 7.66 4 8 C2.02 8.33 0.04 8.66 -2 9 C-1.34 6.03 -0.68 3.06 0 0 Z " fill="#F2D625" transform="translate(515,245)"/>
<path d="M0 0 C2.31 0.33 4.62 0.66 7 1 C7 2.32 7 3.64 7 5 C5.68 4.67 4.36 4.34 3 4 C3.66 3.67 4.32 3.34 5 3 C2.525 2.01 2.525 2.01 0 1 C0 0.67 0 0.34 0 0 Z " fill="#3FC89F" transform="translate(259,476)"/>
<path d="M0 0 C0.66 0.33 1.32 0.66 2 1 C0.38405168 3.04119788 -1.2856382 5.04072937 -3 7 C-3.66 7 -4.32 7 -5 7 C-3.70700306 4.11562221 -2.34058637 2.12780579 0 0 Z " fill="#DECB38" transform="translate(580,459)"/>
<path d="M0 0 C-3.44833324 2.05257931 -5.31661591 3.0632763 -9.375 2.6875 C-10.24125 2.460625 -11.1075 2.23375 -12 2 C-12 1.67 -12 1.34 -12 1 C-3.96428571 -1.27678571 -3.96428571 -1.27678571 0 0 Z " fill="#33C688" transform="translate(804,420)"/>
<path d="M0 0 C0.99 0.33 1.98 0.66 3 1 C2.67 2.32 2.34 3.64 2 5 C1.01 5 0.02 5 -1 5 C-0.67 3.35 -0.34 1.7 0 0 Z " fill="#58C353" transform="translate(573,256)"/>
</svg>
