<?xml version="1.0" encoding="UTF-8"?>
<svg version="1.1" xmlns="http://www.w3.org/2000/svg" width="1024" height="1024">
<path d="M0 0 C337.92 0 675.84 0 1024 0 C1024 337.92 1024 675.84 1024 1024 C686.08 1024 348.16 1024 0 1024 C0 686.08 0 348.16 0 0 Z " fill="#12C1A4" transform="translate(0,0)"/>
<path d="M0 0 C3.03039358 2.74120279 5.73264524 5.55133946 8.3203125 8.70703125 C9.89219319 10.65869678 9.89219319 10.65869678 11.6796875 12.48828125 C46.94216657 49.62183064 59.33203301 105.88838431 59.22192383 155.46606445 C59.2187647 158.4276216 59.24232539 161.38817466 59.26757812 164.34960938 C59.31052995 177.65984123 59.15836766 191.87255327 54.90625 204.62890625 C53.2265625 205.30151367 53.2265625 205.30151367 51.03125 205.734375 C50.21857666 205.90912354 49.40590332 206.08387207 48.56860352 206.26391602 C47.69002686 206.44623779 46.8114502 206.62855957 45.90625 206.81640625 C38.72451954 208.45064604 32.11870115 210.50903518 25.46875 213.69140625 C24.77845703 214.01971436 24.08816406 214.34802246 23.37695312 214.6862793 C19.49661398 216.61537044 16.20380846 218.77610519 12.90625 221.62890625 C17.88441876 220.23078226 22.72381902 218.75761544 27.46875 216.69140625 C32.06257619 214.79854601 36.70721076 213.57779587 41.53125 212.44140625 C42.23580322 212.27455322 42.94035645 212.1077002 43.66625977 211.93579102 C59.67582942 208.3010749 78.44388003 206.82937106 93.26171875 214.9140625 C99.21377855 218.92304837 103.63766048 224.82313768 105.90625 231.62890625 C106.88662849 244.88812351 104.87426092 253.95544635 96.140625 264.203125 C71.80469839 290.62377259 37.16418548 301.92595993 2.90625 308.62890625 C4.90241554 310.62507179 8.72326963 310.03874052 11.46875 310.19140625 C12.17966797 310.23458984 12.89058594 310.27777344 13.62304688 310.32226562 C15.38386912 310.42862402 17.1450332 310.52929471 18.90625 310.62890625 C18.49052734 312.33046875 18.49052734 312.33046875 18.06640625 314.06640625 C17.70029291 315.58718473 17.33442037 317.1080212 16.96875 318.62890625 C16.78634766 319.37269531 16.60394531 320.11648438 16.41601562 320.8828125 C12.18240948 338.58698364 11.53559549 359.09911939 20.52734375 375.4453125 C24.80995588 382.22712604 29.42472123 386.85111314 37.21875 389.37890625 C49.84251241 390.55320973 58.39601657 387.06314618 69.34375 381.06640625 C82.69420713 373.78995142 94.81542052 371.77198241 109.66015625 375.53125 C119.92984459 379.00391236 127.12908694 385.53661843 132.18359375 395.02734375 C136.16550768 403.5579921 137.5470745 412.70213499 135 421.90234375 C132.15855643 429.27916842 129.45257725 433.18088389 122.46875 436.94140625 C117.71996362 438.21547089 114.27305061 438.3262535 109.84375 436.06640625 C107.49663343 434.11879888 105.7666884 432.38178106 103.84375 430.06640625 C100.6951746 426.30426231 98.44647615 423.94059044 93.359375 423.31640625 C87.3156344 423.05505531 83.5851886 423.63654019 78.90625 427.62890625 C75.71947909 430.71666486 72.66524089 433.92710969 69.59375 437.12890625 C38.54755306 468.76957458 -2.95580491 482.37340069 -46.79150391 482.98242188 C-91.98162068 483.34272745 -135.38348224 472.86263876 -176.09375 453.62890625 C-176.80660156 453.29246094 -177.51945313 452.95601562 -178.25390625 452.609375 C-204.32676755 440.19137085 -228.34163158 423.87082381 -249.41796875 404.12109375 C-251.66640386 402.02693083 -253.94765589 400.00149963 -256.28125 398.00390625 C-299.17089104 360.72017265 -336.20107448 296.59143627 -342.09375 239.62890625 C-342.75375 239.62890625 -343.41375 239.62890625 -344.09375 239.62890625 C-343.78448032 242.37930458 -343.4714616 245.12918803 -343.15625 247.87890625 C-343.06923828 248.65621094 -342.98222656 249.43351562 -342.89257812 250.234375 C-342.76206055 251.36552734 -342.76206055 251.36552734 -342.62890625 252.51953125 C-342.550354 253.21079102 -342.47180176 253.90205078 -342.39086914 254.61425781 C-342.08830017 256.66585938 -341.62962616 258.6267316 -341.09375 260.62890625 C-364.65439761 253.63000799 -384.20404273 228.77358873 -395.46875 208.06640625 C-401.44526653 196.64678023 -405.71315296 184.62177849 -401.84375 171.81640625 C-398.95749155 164.30678936 -394.27991553 158.20270959 -386.9921875 154.5859375 C-376.47901743 150.62956784 -367.35115726 152.84073504 -357.09375 156.62890625 C-355.93166016 156.99242187 -355.93166016 156.99242187 -354.74609375 157.36328125 C-352.84375 158.12890625 -352.84375 158.12890625 -350.09375 160.62890625 C-349.21913116 164.64249456 -349.04863485 168.52987289 -349.09375 172.62890625 C-348.10375 172.62890625 -347.11375 172.62890625 -346.09375 172.62890625 C-346.14015625 171.33082031 -346.1865625 170.03273438 -346.234375 168.6953125 C-347.64987505 110.78947463 -322.32261676 53.53525985 -283.09375 11.62890625 C-268.68239653 -3.33016844 -251.63689093 -16.03301932 -233.09375 -25.37109375 C-232.41779785 -25.71720703 -231.7418457 -26.06332031 -231.04541016 -26.41992188 C-220.39363847 -31.82923871 -209.55560223 -36.02246128 -198.09375 -39.37109375 C-197.21396484 -39.63164551 -196.33417969 -39.89219727 -195.42773438 -40.16064453 C-128.34984646 -59.60947153 -53.05557651 -45.91224069 0 0 Z " fill="#FCF8F7" transform="translate(637.09375,259.37109375)"/>
<path d="M0 0 C337.92 0 675.84 0 1024 0 C1024 337.92 1024 675.84 1024 1024 C686.08 1024 348.16 1024 0 1024 C0 686.08 0 348.16 0 0 Z M43 46 C35.04746339 56.56013834 29.88045618 68.76817604 29.87119883 82.08897752 C29.86792664 83.32260705 29.86465445 84.55623659 29.86128309 85.82724884 C29.86269312 87.19597558 29.86419513 88.56470222 29.86577892 89.93342876 C29.86382572 91.39365602 29.86143677 92.85388274 29.85865095 94.31410864 C29.85224378 98.34530028 29.8520899 102.37647201 29.85292836 106.40766777 C29.852759 110.78650422 29.84685442 115.1653335 29.8416875 119.54416639 C29.83235388 128.23761918 29.82843817 136.93106688 29.82616853 145.62452406 C29.8232084 156.03444301 29.81451203 166.44435518 29.80575425 176.85427058 C29.7848999 202.01929378 29.77443806 227.18431817 29.76562465 252.349348 C29.7614191 264.25373052 29.75619695 276.15811254 29.75094012 288.06249464 C29.73304808 328.80954873 29.71805236 369.55660296 29.71061993 410.30366039 C29.71014517 412.86231848 29.70966928 415.42097657 29.70919226 417.97963466 C29.70895589 419.2485069 29.70871951 420.51737914 29.70847597 421.82470205 C29.70727477 428.25349603 29.70605932 434.68229001 29.70483398 441.11108398 C29.70459383 442.38690124 29.70435368 443.66271849 29.70410626 444.97719687 C29.6962146 486.3355282 29.67278646 527.69383084 29.64027804 569.05214965 C29.60597461 612.77395051 29.58626825 656.4957346 29.58297569 700.21754915 C29.58255815 705.01806757 29.58207858 709.81858598 29.58155251 714.61910439 C29.58142931 715.80113508 29.58130612 716.98316578 29.5811792 718.20101558 C29.57884768 737.21879733 29.56319022 756.23654575 29.54271066 775.25431562 C29.52244731 794.37484832 29.51697776 813.49534103 29.52648129 832.61588248 C29.53169444 843.97216057 29.52582752 855.32830543 29.50394662 866.68456433 C29.4904245 874.27713421 29.49152804 881.86961252 29.50434858 889.46218334 C29.5112358 893.78393683 29.51194727 898.10543586 29.49478849 902.42716648 C29.27572506 939.55703853 29.27572506 939.55703853 47.81640625 970.85546875 C61.48353084 984.27810095 75.80599598 989.64083119 94.99869156 989.50615788 C96.47707803 989.51064361 97.95546003 989.51687791 99.43383271 989.52468321 C103.47824671 989.54100662 107.52228141 989.53264518 111.56669471 989.52007158 C115.97364596 989.5107951 120.38053541 989.52476518 124.78747439 989.53571075 C132.50538615 989.55167488 140.22318884 989.5527993 147.94111061 989.54411316 C159.41819878 989.53123102 170.89518848 989.54121156 182.37227074 989.55561271 C202.87239367 989.58054249 223.37247039 989.58243701 243.87260405 989.57433859 C261.8151277 989.56726525 279.75763342 989.56720891 297.70015717 989.57420158 C300.1071434 989.57511292 302.51412963 989.57602368 304.92111586 989.57693387 C308.54826001 989.57831701 312.17540415 989.5797081 315.80254828 989.58112001 C349.52446081 989.5941008 383.24636733 989.59921514 416.96828079 989.5875864 C418.23943655 989.58714843 419.51059232 989.58671046 420.82026795 989.58625922 C431.14286607 989.58265241 441.4654641 989.57881763 451.78806212 989.57496829 C492.0496512 989.56012229 532.31117243 989.56889762 572.57275391 989.59692383 C617.81245747 989.62835514 663.05212086 989.64332054 708.29183555 989.63312382 C713.11608361 989.63208705 717.94033169 989.63109982 722.76457977 989.6301403 C723.95242164 989.62989142 725.14026351 989.62964253 726.36410058 989.6293861 C744.2914973 989.6259467 762.21885854 989.63524973 780.14624786 989.65091133 C800.53630804 989.66868344 820.9262819 989.6688072 841.31633839 989.64555968 C852.72398797 989.63306371 864.13143921 989.63429815 875.53907713 989.65544054 C883.16434316 989.66818199 890.78945674 989.66266148 898.41470624 989.64245573 C902.75584208 989.63145765 907.09658857 989.62817797 911.43770579 989.64713103 C935.06263954 989.74300812 956.85803539 989.59479084 975.25 972.375 C993.76638441 952.61032001 993.74678811 930.24901367 993.63613641 904.81461745 C993.62245955 900.3879377 993.6379978 895.96133948 993.64968723 891.53466725 C993.66615579 883.78842215 993.6641665 876.04235515 993.64986038 868.29610825 C993.62864518 856.77719481 993.63614807 845.25842273 993.6492356 833.73950359 C993.67166854 813.16501896 993.66571076 792.59061659 993.6477995 772.0161319 C993.63222438 754.01342505 993.62638136 736.01074703 993.6301403 718.00803375 C993.63037711 716.81328533 993.63061391 715.61853691 993.63085788 714.38758399 C993.63183282 709.53759999 993.63285364 704.687616 993.63394299 699.83763202 C993.64402225 654.35739041 993.62577108 608.87719942 993.59422263 563.39696971 C993.56635556 522.99379523 993.56140205 482.59068094 993.57641602 442.1875 C993.58023848 431.83891173 993.58403328 421.49032345 993.5875864 411.14173508 C993.58802422 409.86768417 993.58846203 408.59363326 993.58891311 407.28097475 C993.60015238 373.51272388 993.59280457 339.74447743 993.57970566 305.976228 C993.57831709 302.34289436 993.57693638 298.70956072 993.57556724 295.07622707 C993.57465786 292.66600697 993.57373519 290.25578688 993.57279913 287.84556679 C993.56600376 269.85175807 993.56866308 251.85796673 993.57574654 233.86415863 C993.58371177 213.40711244 993.57715113 192.95012683 993.5515715 172.49309394 C993.53764652 161.04462066 993.5346667 149.59626936 993.5475062 138.14779412 C993.55496758 130.5005589 993.54787572 122.85342639 993.52894809 115.20621119 C993.51856525 110.8493616 993.51442953 106.49275749 993.52792663 102.13591084 C993.54008434 98.16749038 993.53364622 94.19953856 993.51276654 90.23115838 C993.50846721 88.80928572 993.51075968 87.38737268 993.52070096 85.96552828 C993.63113864 68.91476023 988.61781949 54.65623082 976.8125 42.1875 C969.23403992 34.99315365 961.01480485 30.06593168 950.86328125 27.5078125 C949 27 949 27 948 26 C940.57370416 24.69895445 933.12268744 24.85708889 925.60537434 24.86577892 C924.13161034 24.86382405 922.65784687 24.86143447 921.18408421 24.85865095 C917.12932781 24.85226484 913.07459127 24.85208822 909.01983081 24.85292836 C904.61030875 24.85275859 900.20079373 24.84684942 895.7912752 24.8416875 C887.04340081 24.83236694 878.29553148 24.82844038 869.54765274 24.82616853 C859.07042118 24.82320512 848.59319633 24.81450699 838.11596829 24.80575425 C812.79444614 24.78491638 787.47292283 24.77444176 762.1513941 24.76562465 C750.17420729 24.76141789 738.19702097 24.75619599 726.21983458 24.75094012 C685.22493336 24.73305203 644.23003199 24.71805504 603.23512745 24.71061993 C600.66183249 24.71014517 598.08853752 24.70966928 595.51524256 24.70919226 C594.23911878 24.70895589 592.96299499 24.70871951 591.64820079 24.70847597 C585.18270352 24.70727477 578.71720625 24.70605932 572.25170898 24.70483398 C570.96861238 24.70459383 569.68551578 24.70435368 568.36353747 24.70410626 C526.74779743 24.69621057 485.13208588 24.67277208 443.51635828 24.64027804 C399.52262521 24.60598989 355.52890881 24.58626982 311.53516215 24.58297569 C306.70697605 24.58255814 301.87878996 24.58207858 297.05060387 24.58155251 C295.8617598 24.58142931 294.67291574 24.58130612 293.4480461 24.5811792 C274.30763375 24.57884614 255.16725445 24.56318051 236.02685388 24.54271066 C216.79363292 24.52246759 197.56045172 24.51696821 178.32722209 24.52648129 C166.89878055 24.53170182 155.47047127 24.52579259 144.04204873 24.50394662 C136.40786482 24.49045531 128.77377212 24.49150078 121.13958734 24.50434858 C116.79001816 24.51125617 112.44070213 24.51187734 108.09115539 24.49478849 C104.12925124 24.47934958 100.16780301 24.48254246 96.20591212 24.50019877 C94.78636686 24.5033322 93.36678641 24.49985522 91.94728147 24.48870702 C72.54670546 24.34634563 55.87974935 31.37924473 43 46 Z " fill="#F6F3F2" transform="translate(0,0)"/>
<path d="M0 0 C2.74536316 1.00663316 3.79703544 1.58692425 5.109375 4.2578125 C7.46555847 11.51237739 6.42169591 18.74870728 3.31640625 25.59765625 C-4.22416961 39.3586478 -19.04189154 51.21448741 -33.11181641 58.02172852 C-35.53512105 59.27724722 -36.59478989 60.68140331 -38 63 C-38 63.99 -38 64.98 -38 66 C-55.40669633 73.18489168 -72.54032355 78.25898646 -91 82 C-89.00383446 83.99616554 -85.18298037 83.40983427 -82.4375 83.5625 C-81.72658203 83.60568359 -81.01566406 83.64886719 -80.28320312 83.69335938 C-78.52238088 83.79971777 -76.7612168 83.90038846 -75 84 C-75.27714844 85.134375 -75.55429687 86.26875 -75.83984375 87.4375 C-76.20595709 88.95827848 -76.57182963 90.47911495 -76.9375 92 C-77.11990234 92.74378906 -77.30230469 93.48757813 -77.49023438 94.25390625 C-81.72384052 111.95807739 -82.37065451 132.47021314 -73.37890625 148.81640625 C-69.09629412 155.59821979 -64.48152877 160.22220689 -56.6875 162.75 C-44.06373759 163.92430348 -35.51023343 160.43423993 -24.5625 154.4375 C-11.21204287 147.16104517 0.90917052 145.14307616 15.75390625 148.90234375 C26.02359459 152.37500611 33.22283694 158.90771218 38.27734375 168.3984375 C42.25925768 176.92908585 43.6408245 186.07322874 41.09375 195.2734375 C38.25230643 202.65026217 35.54632725 206.55197764 28.5625 210.3125 C23.81371362 211.58656464 20.36680061 211.69734725 15.9375 209.4375 C13.59038343 207.48989263 11.8604384 205.75287481 9.9375 203.4375 C6.7889246 199.67535606 4.54022615 197.31168419 -0.546875 196.6875 C-6.5949581 196.42596127 -10.31669722 197.01056881 -15 201 C-18.25095062 204.12756779 -21.37050523 207.37655826 -24.5 210.625 C-32.12278881 218.4160004 -39.77609743 225.19688249 -49 231 C-49.59296875 230.65195312 -50.1859375 230.30390625 -50.796875 229.9453125 C-53.1296813 228.67493316 -53.1296813 228.67493316 -56.25 229.875 C-57.1575 230.24625 -58.065 230.6175 -59 231 C-59 231.66 -59 232.32 -59 233 C-71.5552197 237.0651571 -84.1779285 240.86469196 -97 244 C-97.87462891 244.2160791 -98.74925781 244.4321582 -99.65039062 244.65478516 C-163.40459422 259.64107013 -234.31048537 239.37275559 -288.94140625 206.27636719 C-292.28366974 204.2041004 -295.52484484 202.03039498 -298.69140625 199.69921875 C-301.00480484 197.99646344 -303.36912963 196.38211685 -305.74804688 194.77270508 C-312.47649909 190.20183024 -318.78143015 185.24173981 -325 180 C-325.97066406 179.21496094 -326.94132812 178.42992187 -327.94140625 177.62109375 C-340.64165965 167.27646757 -352.87538816 155.6549079 -362.90649414 142.67675781 C-364.95973998 140.05147648 -367.08440135 137.50218217 -369.2265625 134.94921875 C-373.99280244 129.12933255 -378.21348815 123.05281263 -382.3125 116.75 C-382.67517975 116.19396088 -383.0378595 115.63792175 -383.41152954 115.06503296 C-393.72153898 99.20272164 -402.35720199 82.71412803 -409 65 C-409.50015625 63.86046875 -410.0003125 62.7209375 -410.515625 61.546875 C-414.51390239 51.99309639 -416.77628486 42.37202825 -416 32 C-413.39059886 33.30470057 -413.44228623 34.1517928 -412.5 36.875 C-407.15308205 50.74915885 -399.3681097 63.75318068 -391 76 C-390.54898926 76.66741211 -390.09797852 77.33482422 -389.63330078 78.02246094 C-383.06184669 87.71162826 -376.06946347 96.80796426 -368.28515625 105.55175781 C-366.56220433 107.49335181 -364.87805736 109.46769879 -363.1875 111.4375 C-359.95050035 115.12342661 -356.5017399 118.56767785 -353 122 C-350.33268828 124.65388565 -347.68199416 127.32223062 -345.0546875 130.015625 C-339.24123669 135.94762461 -333.37555462 141.55046117 -326.84765625 146.70703125 C-324.80110959 148.35493645 -322.82918818 150.01553671 -320.87109375 151.76171875 C-311.49930623 160.10033058 -301.48494773 167.13157089 -291 174 C-290.11183594 174.58604004 -289.22367187 175.17208008 -288.30859375 175.77587891 C-245.81419404 203.72516492 -195.44461936 225.25282425 -144 227 C-143.01725098 227.03399902 -142.03450195 227.06799805 -141.02197266 227.10302734 C-102.07451406 228.29576051 -102.07451406 228.29576051 -68 212 C-67.67 211.34 -67.34 210.68 -67 210 C-67.92039062 210.04640625 -68.84078125 210.0928125 -69.7890625 210.140625 C-84.1706354 210.55069022 -97.51415604 207.73789297 -108.4375 197.77734375 C-115.45709063 190.49220939 -120.89026067 181.58435999 -121.0625 171.25 C-121.041875 170.1775 -121.02125 169.105 -121 168 C-118.93323821 170.69286904 -117.06348634 173.44454268 -115.25 176.3125 C-108.59043371 186.2692045 -98.84663371 194.12938713 -87 197 C-83.33857114 197.49597044 -79.68891466 197.8033483 -76 198 C-75.855625 196.88625 -75.71125 195.7725 -75.5625 194.625 C-75 191 -75 191 -74 189 C-75.0725 188.79375 -76.145 188.5875 -77.25 188.375 C-91.16691617 184.76691062 -101.34897226 176.28070697 -108.9375 164.1875 C-112.4281813 157.76564851 -114.2962056 151.07357295 -116 144 C-116.35707031 142.78570313 -116.71414063 141.57140625 -117.08203125 140.3203125 C-121.81502179 121.23294553 -117.70392562 97.48970635 -109 80 C-107.546875 78.1640625 -107.546875 78.1640625 -106 77 C-102.8125 76.8125 -102.8125 76.8125 -100 77 C-99.9175 75.783125 -99.835 74.56625 -99.75 73.3125 C-99.18690157 69.11148936 -98.23469986 66.91122988 -95 64 C-92.67802834 62.83291442 -90.35117241 61.827374 -87.92578125 60.89453125 C-85.82027453 60.15953816 -85.82027453 60.15953816 -85 58 C-86.32 57.67 -87.64 57.34 -89 57 C-82.22041411 54.27191321 -75.52453728 51.8277361 -68.5 49.8125 C-52.1498319 44.92347915 -37.10112512 36.47612052 -23 27 C-21.53433594 26.02353516 -21.53433594 26.02353516 -20.0390625 25.02734375 C-17.65368349 23.39769292 -15.3165664 21.72564927 -13 20 C-12.33355469 19.51144531 -11.66710937 19.02289063 -10.98046875 18.51953125 C-4.72760879 13.60939069 -2.2510336 7.50344534 0 0 Z " fill="#DEE4EC" transform="translate(731,486)"/>
<path d="M0 0 C3.77752431 0.00566588 7.55497767 0.00231963 11.3324995 -0.00343323 C36.34807589 -0.03583566 61.44430053 0.01841112 86.36767578 2.38037109 C87.04122101 2.4421756 87.71476624 2.5039801 88.40872192 2.56765747 C100.42113705 3.6742162 112.39817561 5.07166544 124.36767578 6.56787109 C125.16180878 6.66515503 125.95594177 6.76243896 126.7741394 6.8626709 C173.43009372 12.63028903 173.43009372 12.63028903 183.93017578 23.13037109 C183.70202697 29.40446343 183.70202697 29.40446343 181.28955078 31.67333984 C161.3107012 44.01127179 133.66264295 44.86687001 110.93017578 47.13037109 C108.95677845 47.33188432 106.98338135 47.53339989 105.00999451 47.73501587 C101.60894383 48.08075809 98.20715065 48.41886019 94.80517578 48.75537109 C92.93986206 48.940271 92.93986206 48.940271 91.03686523 49.12890625 C76.03437953 50.56928832 61.05396094 51.33348554 45.99267578 51.69287109 C44.70935867 51.72364243 44.70935867 51.72364243 43.40011597 51.7550354 C8.41133134 52.56313174 -26.59593171 52.63786802 -61.56982422 51.25537109 C-62.59582733 51.21616547 -63.62183044 51.17695984 -64.67892456 51.13656616 C-75.67923146 50.7034201 -86.56096455 50.00018781 -97.48095703 48.58984375 C-101.13498162 48.12202917 -104.78379962 47.76228081 -108.45336914 47.44824219 C-112.99685508 47.05728762 -117.5328877 46.59020051 -122.06982422 46.13037109 C-123.23916504 46.015 -124.40850586 45.89962891 -125.61328125 45.78076172 C-139.95055223 44.31864582 -153.79120941 42.41263889 -167.63232422 38.19287109 C-169.23660278 37.70729736 -169.23660278 37.70729736 -170.87329102 37.21191406 C-176.59941697 35.34202608 -180.86275887 33.49897652 -185.06982422 29.13037109 C-185.94482422 26.19287109 -185.94482422 26.19287109 -185.06982422 23.13037109 C-180.05283803 18.11256913 -174.31308268 15.76655457 -167.56982422 14.00537109 C-166.65168945 13.75803223 -165.73355469 13.51069336 -164.78759766 13.25585938 C-129.77268883 4.1619231 -92.45838676 2.78510243 -56.45056152 1.23779297 C-53.92034889 1.12362658 -51.39121695 0.99367387 -48.86181641 0.86279297 C-32.5738585 0.05634057 -16.30312461 -0.02464994 0 0 Z " fill="#0CA389" transform="translate(525.06982421875,790.86962890625)"/>
<path d="M0 0 C0.72482574 -0.00067474 1.44965149 -0.00134949 2.19644165 -0.00204468 C14.37897977 0.01586811 26.10354241 0.85678253 38.0625 3.25 C38.91714844 3.41097168 39.77179688 3.57194336 40.65234375 3.73779297 C88.84199521 12.9458376 134.80414391 37.12419385 163.0625 78.25 C163.5378418 78.9404541 164.01318359 79.6309082 164.50292969 80.34228516 C181.70724951 105.68467919 191.89285041 134.166211 197.0625 164.25 C197.25859863 165.32411133 197.45469727 166.39822266 197.65673828 167.50488281 C200.63523807 184.19714572 201.45322925 200.57855073 201.5 217.5 C201.5061734 218.44845795 201.5123468 219.39691589 201.51870728 220.37411499 C201.64332564 250.08834873 201.64332564 250.08834873 197.0625 259.25 C198.2690625 259.22679687 199.475625 259.20359375 200.71875 259.1796875 C202.33332709 259.16091335 203.94791094 259.14271493 205.5625 259.125 C206.35398437 259.10824219 207.14546875 259.09148437 207.9609375 259.07421875 C219.29297638 258.98133319 230.02887341 262.69912945 238.46484375 270.45703125 C246.23116251 279.17277773 248.65829524 288.38306579 248.43359375 299.81640625 C246.71930771 315.67806344 235.96113991 327.60202875 224.0625 337.25 C210.28584713 347.91759743 194.54917844 356.61864908 178.0625 362.25 C176.64439749 362.80887026 175.22754376 363.37092974 173.8125 363.9375 C170.93739808 364.94378567 168.28675756 365.69532919 165.328125 366.33203125 C164.12591309 366.59270386 164.12591309 366.59270386 162.89941406 366.85864258 C162.29323242 366.98779053 161.68705078 367.11693848 161.0625 367.25 C155.76087189 387.09444523 152.31177233 408.13580857 160.75 427.75 C163.40834564 432.23965041 166.36254175 435.85002132 171.0625 438.25 C182.97929467 440.99343474 191.33976284 436.22817804 201.24902344 430.31396484 C213.80961568 422.94467823 227.75270774 421.61089967 242.02734375 423.6796875 C254.73790866 427.01698331 265.27090017 435.14269395 271.9140625 446.3828125 C277.69972404 457.54283262 279.00563735 470.08949535 276.37890625 482.47265625 C273.63522943 489.83846083 269.3020372 495.24077501 262.5 499.1875 C255.92820256 502.17107621 248.62155157 502.85141475 241.73828125 500.43359375 C236.80739846 497.6533121 233.50842969 493.50398047 230.1171875 489.04296875 C228.13105538 486.98489596 228.13105538 486.98489596 225.0625 486.80078125 C221.715359 487.30198075 220.59347475 487.9369599 218.1875 490.25 C217.51332031 490.88679688 216.83914063 491.52359375 216.14453125 492.1796875 C215.45746094 492.86289062 214.77039063 493.54609375 214.0625 494.25 C213.36511719 494.93320312 212.66773438 495.61640625 211.94921875 496.3203125 C209.96999382 498.28090066 208.01479179 500.2626371 206.0625 502.25 C185.80058632 522.80229142 158.9842346 535.74564026 131.0625 542.25 C130.29099609 542.43771973 129.51949219 542.62543945 128.72460938 542.81884766 C114.25342576 546.20675979 100.03922902 546.60383023 85.25 546.5625 C84.34382935 546.56004272 83.43765869 546.55758545 82.50402832 546.55505371 C48.15412359 546.38878184 48.15412359 546.38878184 34.4375 543.4375 C33.5727002 543.26154297 32.70790039 543.08558594 31.81689453 542.90429688 C29.22802106 542.37027342 26.64503422 541.81379975 24.0625 541.25 C23.26972656 541.08064941 22.47695313 540.91129883 21.66015625 540.73681641 C12.86994679 538.84499435 4.45522233 536.51383646 -3.9375 533.25 C-5.35048912 532.76009501 -6.76716598 532.28068418 -8.1875 531.8125 C-8.90679687 531.57402344 -9.62609375 531.33554687 -10.3671875 531.08984375 C-12.39077555 530.42864097 -14.41748717 529.77699742 -16.4453125 529.12890625 C-24.19452152 526.6305057 -31.58902273 523.7699399 -38.9375 520.25 C-40.19947985 519.67868456 -41.46258437 519.10984948 -42.7265625 518.54296875 C-66.84798755 507.62269192 -88.50669015 493.02921754 -108.9375 476.25 C-109.90300781 475.47140625 -110.86851562 474.6928125 -111.86328125 473.890625 C-119.92248264 467.269198 -127.36274397 460.0389523 -134.75 452.6875 C-135.23777924 452.20489716 -135.72555847 451.72229431 -136.2281189 451.22506714 C-142.92718576 444.58210188 -149.09292767 437.65902495 -154.9375 430.25 C-155.50122314 429.55092529 -156.06494629 428.85185059 -156.64575195 428.1315918 C-169.06635961 412.68907114 -179.65414278 396.03082024 -188.07421875 378.08251953 C-188.90643966 376.31593295 -189.76524166 374.56194351 -190.625 372.80859375 C-194.47404512 364.83429889 -197.90132116 356.69602081 -201.25 348.5 C-201.68296387 347.45851807 -202.11592773 346.41703613 -202.56201172 345.34399414 C-205.23200395 338.70900557 -206.95927378 332.3366666 -207.9375 325.25 C-209.22914063 324.86714844 -209.22914063 324.86714844 -210.546875 324.4765625 C-236.22474496 315.18756346 -258.46110789 288.34537332 -269.9375 264.25 C-276.05972109 250.21522181 -279.15176411 238.24570562 -274.19921875 223.3359375 C-272.41417994 218.9700531 -270.17367041 215.65772643 -266.9375 212.25 C-266.15052734 211.42048828 -266.15052734 211.42048828 -265.34765625 210.57421875 C-258.94768389 204.50553907 -251.88396394 202.03634019 -243.125 201.8125 C-234.87861079 202.05583607 -226.25500071 203.22362401 -218.9375 207.25 C-218.91171875 206.65058594 -218.8859375 206.05117188 -218.859375 205.43359375 C-217.95646259 191.00751595 -215.698472 176.05940894 -210.98901367 162.36743164 C-209.9601958 159.31728644 -209.03676423 156.2509664 -208.125 153.1640625 C-195.77774045 112.93865005 -170.52282025 73.0652005 -136.9375 47.25 C-136.14214844 46.58871094 -135.34679687 45.92742187 -134.52734375 45.24609375 C-128.27048706 40.04730713 -121.62680257 35.59210798 -114.70800781 31.33935547 C-113.05577145 30.32276989 -111.41415665 29.28897722 -109.7734375 28.25390625 C-77.11212958 8.50613248 -37.81970471 0.03197298 0 0 Z M-140.44921875 60.8828125 C-142.55094263 62.88225469 -144.69527275 64.72670498 -146.9375 66.5625 C-180.87516401 96.22289644 -200.43567209 144.20992717 -208.9375 187.25 C-209.11684082 188.15524414 -209.29618164 189.06048828 -209.48095703 189.99316406 C-211.98186816 203.10121662 -212.30999805 215.93176185 -211.9375 229.25 C-212.9275 229.25 -213.9175 229.25 -214.9375 229.25 C-214.89367187 228.44175781 -214.84984375 227.63351562 -214.8046875 226.80078125 C-214.81292046 223.38822016 -215.00580337 220.53884616 -215.9375 217.25 C-218.88595729 214.50918054 -222.1402122 213.45080668 -225.9375 212.25 C-226.77410156 211.93546875 -227.61070312 211.6209375 -228.47265625 211.296875 C-236.60772729 208.46055863 -244.64628736 208.06517541 -252.7734375 211.15234375 C-260.05556347 214.84598526 -264.85666104 220.76607359 -267.9375 228.25 C-271.88519493 244.19261414 -265.1847117 258.65255342 -257.23779297 272.171875 C-253.63941476 277.92279413 -249.33817639 283.10355762 -244.9375 288.25 C-243.81021484 289.60544922 -243.81021484 289.60544922 -242.66015625 290.98828125 C-233.73564483 301.3652448 -220.66175801 313.8189355 -206.9375 317.25 C-207.9275 310.32 -208.9175 303.39 -209.9375 296.25 C-209.2775 296.25 -208.6175 296.25 -207.9375 296.25 C-207.82792969 296.98718262 -207.71835937 297.72436523 -207.60546875 298.48388672 C-201.04390721 340.42053362 -181.05042288 382.28257076 -155.9375 416.25 C-155.26968506 417.15758057 -155.26968506 417.15758057 -154.58837891 418.08349609 C-149.49131685 424.97429103 -144.0780242 431.48046773 -138.2421875 437.76171875 C-136.23523803 439.92854385 -134.29526718 442.13173857 -132.375 444.375 C-126.10096772 451.57688212 -119.20242199 458.06601796 -111.9375 464.25 C-111.02742187 465.04921875 -110.11734375 465.8484375 -109.1796875 466.671875 C-90.14257681 483.27272523 -68.74347534 497.59306211 -45.86914062 508.33496094 C-43.9056809 509.26507305 -41.96038587 510.22677927 -40.015625 511.1953125 C14.93405078 538.25779504 86.50979794 550.39300097 145.70947266 530.35400391 C168.1888201 522.22669614 187.04023745 510.39736179 203.87109375 493.421875 C204.54213135 492.74535889 205.21316895 492.06884277 205.90454102 491.37182617 C207.23790597 490.02116767 208.56544749 488.66473004 209.88647461 487.30200195 C210.49885986 486.67769287 211.11124512 486.05338379 211.7421875 485.41015625 C212.55792236 484.56916382 212.55792236 484.56916382 213.39013672 483.71118164 C217.77158119 479.88301446 221.83177172 479.87035253 227.44921875 480.01171875 C233.78372597 480.58930461 236.49770633 484.82920742 240.375 489.375 C243.46928533 492.81309481 245.8022831 494.08355626 250.375 494.6875 C256.01539763 494.01830028 260.18297592 492.02510608 264.3125 488.125 C269.75571212 479.18258009 271.45367397 470.99918393 269.58984375 460.6171875 C266.59888326 449.19064384 260.39940154 441.68583108 250.9375 435.0625 C240.27762672 429.33730963 227.24419555 428.80622931 215.75 431.859375 C209.73800163 434.12661167 204.15218176 437.20725437 198.53588867 440.3137207 C189.01249091 445.55278845 180.18237629 448.23649334 169.375 445.125 C161.66177023 442.20023034 156.59998809 436.58202548 153.0625 429.25 C145.00247769 408.86927019 147.46326525 387.96716858 153.0625 367.25 C151.99128906 367.18941406 150.92007812 367.12882812 149.81640625 367.06640625 C148.41925609 366.98201463 147.02212143 366.89736594 145.625 366.8125 C144.56442383 366.75352539 144.56442383 366.75352539 143.48242188 366.69335938 C138.17578125 366.36328125 138.17578125 366.36328125 137.0625 365.25 C137.75472656 365.11537354 138.44695312 364.98074707 139.16015625 364.84204102 C172.81016687 358.16690304 213.74228134 345.4242746 234.625 315.5625 C235.47014752 314.14394856 236.28615732 312.70734503 237.0625 311.25 C237.39894531 310.65316406 237.73539063 310.05632812 238.08203125 309.44140625 C241.48548506 302.21489474 241.3818751 292.85559642 239.21875 285.3046875 C235.61195626 277.33562295 229.88883609 272.21409837 221.875 268.875 C200.45549408 260.91621751 172.76143936 267.67622714 152.5625 276.5625 C151.4075 277.119375 150.2525 277.67625 149.0625 278.25 C148.7325 277.92 148.4025 277.59 148.0625 277.25 C161.01874585 268.83142551 174.08263781 264.33302248 189.0625 261.25 C189.54202665 258.54172996 190.02113231 255.83338656 190.5 253.125 C190.63470703 252.36445313 190.76941406 251.60390625 190.90820312 250.8203125 C191.04033203 250.07265625 191.17246094 249.325 191.30859375 248.5546875 C191.42904053 247.87390137 191.5494873 247.19311523 191.67358398 246.49169922 C191.80192627 245.75193848 191.93026855 245.01217773 192.0625 244.25 C192.23885986 243.3741626 192.41521973 242.4983252 192.59692383 241.59594727 C193.21017649 237.18869621 193.24396911 232.8549971 193.265625 228.41015625 C193.27263931 227.45956329 193.27965363 226.50897034 193.28688049 225.52957153 C193.30439265 222.4571663 193.31073805 219.38495339 193.3125 216.3125 C193.31317474 215.26712067 193.31384949 214.22174133 193.31454468 213.14468384 C193.2992125 198.24739698 192.86608029 183.91360792 190.0625 169.25 C189.71738469 167.22679492 189.37370528 165.20334453 189.03125 163.1796875 C183.90315287 134.1740976 173.65996761 106.07054063 156.0625 82.25 C155.64081543 81.67040527 155.21913086 81.09081055 154.78466797 80.49365234 C149.70562113 73.5438842 144.3328281 67.16981286 138.0625 61.25 C136.39583333 59.58333333 134.72916667 57.91666667 133.0625 56.25 C114.04699537 37.5796613 90.99808836 26.86195646 66.0625 18.25 C64.9182959 17.8475708 64.9182959 17.8475708 63.75097656 17.43701172 C-4.13104592 -6.05328104 -88.62073682 11.41994592 -140.44921875 60.8828125 Z " fill="#060A09" transform="translate(502.9375,202.75)"/>
<path d="M0 0 C2.9719385 1.12451727 5.33440687 2.22293791 8 4 C8 4.66 8 5.32 8 6 C8.67804687 6.21011719 9.35609375 6.42023438 10.0546875 6.63671875 C13.97681873 8.45213493 16.89141136 10.9759825 20.125 13.8125 C20.78516113 14.3907251 21.44532227 14.9689502 22.12548828 15.56469727 C36.78246774 28.67500491 46.76746936 44.55811243 55.14501953 62.20019531 C55.89650924 63.78214338 56.66381011 65.35656016 57.43359375 66.9296875 C71.25743215 95.95544164 75.36788435 128.59143222 75.375 160.375 C75.37690338 161.29588409 75.37880676 162.21676819 75.38076782 163.16555786 C75.37749245 177.14406921 74.29140005 190.36419979 71 204 C72.65 204 74.3 204 76 204 C76 204.33 76 204.66 76 205 C74.13021484 205.4021875 74.13021484 205.4021875 72.22265625 205.8125 C57.94113024 209.04086392 45.12318422 213.66308886 33 222 C28.21728627 224.65706319 23.31867174 224.18589532 18 224 C17.505 222.02 17.505 222.02 17 220 C18.39973958 218.86067708 19.79947917 217.72135417 21.19921875 216.58203125 C21.79347656 216.05996094 22.38773438 215.53789062 23 215 C23.81597656 214.31035156 24.63195312 213.62070312 25.47265625 212.91015625 C28.76346971 209.12088882 30.12823514 205.32302734 31.75 200.625 C32.05292969 199.8 32.35585938 198.975 32.66796875 198.125 C34.61129878 192.6836759 35.66463966 187.5717466 36.20605469 181.80541992 C36.76207533 175.97600101 37.55456687 170.2229671 38.46044922 164.4375 C44.59602533 124.63676737 45.11373918 76.61991582 25.17578125 40.23828125 C24 38 24 38 22.58203125 34.6484375 C16.98414418 21.73874237 8.75564632 10.90511805 0 0 Z " fill="#D1DAE6" transform="translate(616,259)"/>
<path d="M0 0 C2.74536316 1.00663316 3.79703544 1.58692425 5.109375 4.2578125 C7.46555847 11.51237739 6.42169591 18.74870728 3.31640625 25.59765625 C-4.22416961 39.3586478 -19.04189154 51.21448741 -33.11181641 58.02172852 C-35.53512105 59.27724722 -36.59478989 60.68140331 -38 63 C-38 63.99 -38 64.98 -38 66 C-55.40669633 73.18489168 -72.54032355 78.25898646 -91 82 C-89.41727399 83.58272601 -87.61965997 83.34735747 -85.4375 83.5625 C-84.61121094 83.64628906 -83.78492188 83.73007812 -82.93359375 83.81640625 C-82.29550781 83.87699219 -81.65742187 83.93757812 -81 84 C-81.44968093 88.67668171 -82.23235781 92.94705642 -83.515625 97.46875 C-85.19721141 104.11398204 -85.49968397 110.41808699 -85.4375 117.25 C-85.42920166 118.43150635 -85.42090332 119.6130127 -85.41235352 120.83032227 C-85.11097176 136.4882304 -81.79469013 149.60639908 -71.5625 161.9375 C-65.00765214 167.21335316 -59.82741721 170.00110681 -51.359375 170.31640625 C-50.28945313 170.35830078 -49.21953125 170.40019531 -48.1171875 170.44335938 C-47.00601563 170.48267578 -45.89484375 170.52199219 -44.75 170.5625 C-43.06003906 170.62727539 -43.06003906 170.62727539 -41.3359375 170.69335938 C-38.55741046 170.79932015 -35.77879609 170.90139142 -33 171 C-33.33 171.99 -33.66 172.98 -34 174 C-44.60292947 179.28379319 -58.36536955 179.83630363 -69.6875 176.75 C-75.99540067 174.45426744 -79.58562342 171.73615265 -83 166 C-84.04283436 165.14218464 -85.10841567 164.31174362 -86.1875 163.5 C-96.10170132 155.28717645 -100.10249729 142.69688743 -102.75 130.5625 C-103.8665676 114.65141163 -103.15099466 96.72649199 -94 83 C-94 82.01 -94 81.02 -94 80 C-96.97 79.34 -99.94 78.68 -103 78 C-101.515 77.505 -101.515 77.505 -100 77 C-99.9175 75.783125 -99.835 74.56625 -99.75 73.3125 C-99.18690157 69.11148936 -98.23469986 66.91122988 -95 64 C-92.67802834 62.83291442 -90.35117241 61.827374 -87.92578125 60.89453125 C-85.82027453 60.15953816 -85.82027453 60.15953816 -85 58 C-86.32 57.67 -87.64 57.34 -89 57 C-82.22041411 54.27191321 -75.52453728 51.8277361 -68.5 49.8125 C-52.1498319 44.92347915 -37.10112512 36.47612052 -23 27 C-21.53433594 26.02353516 -21.53433594 26.02353516 -20.0390625 25.02734375 C-17.65368349 23.39769292 -15.3165664 21.72564927 -13 20 C-12.33355469 19.51144531 -11.66710937 19.02289063 -10.98046875 18.51953125 C-4.72760879 13.60939069 -2.2510336 7.50344534 0 0 Z " fill="#DFE4EC" transform="translate(731,486)"/>
<path d="M0 0 C6.92662754 4.18328581 11.93803827 10.52022795 14.1796875 18.31640625 C15.69138204 29.2147961 14.61995252 39.60271819 7.9296875 48.62890625 C1.40953187 55.00087652 -5.84429505 58.57778535 -15.0703125 58.69140625 C-22.949113 58.55664911 -28.61278052 56.43458775 -35.1328125 52.12890625 C-42.35914654 44.56646364 -45.30364873 35.91480374 -45.140625 25.609375 C-44.68223848 20.896938 -43.19793963 17.36413134 -40.8203125 13.31640625 C-40.2221875 12.26453125 -39.6240625 11.21265625 -39.0078125 10.12890625 C-29.29246683 -2.36225247 -14.88790277 -7.00463622 0 0 Z " fill="#190F06" transform="translate(580.8203125,362.68359375)"/>
<path d="M0 0 C2.88378366 1.69181975 4.92172605 3.63573491 7.05078125 6.203125 C7.75203125 6.986875 8.45328125 7.770625 9.17578125 8.578125 C14.59952296 16.1713634 14.92805303 22.99681309 14.05078125 32.203125 C12.15384847 41.47304177 7.34643988 48.2150364 -0.1640625 53.87109375 C-7.31708654 58.12006144 -14.84142104 58.26902082 -22.94921875 57.203125 C-31.36215316 54.76426902 -36.90734209 49.39327063 -41.265625 41.95703125 C-44.87548285 34.29708898 -45.5926012 25.48230933 -43.06640625 17.3671875 C-39.14453054 8.92606428 -33.41190982 1.90849998 -24.8203125 -1.94921875 C-16.48656674 -4.40965797 -7.84116882 -3.64466767 0 0 Z " fill="#170F06" transform="translate(398.94921875,337.796875)"/>
<path d="M0 0 C3.27585742 0.47597928 5.17078399 1.74852837 7.75 3.75 C18.89197037 11.29955112 31.82766835 13.32268755 45 12 C48.1894626 11.33402869 51.25149429 10.55789941 54.3515625 9.55859375 C57.50431601 8.89363246 59.87695597 9.30853424 63 10 C60.43732996 26.00026035 53.04688137 44.85513523 40 55 C32.99979174 59.53788823 25.87221088 60.05926046 17.76953125 58.59765625 C10.90565188 56.5663728 6.97101089 51.4466619 3.5234375 45.41796875 C-3.21764315 31.64014601 -3.32182923 15.93545467 -1 1 C-0.67 0.67 -0.34 0.34 0 0 Z " fill="#5E0B05" transform="translate(438,387)"/>
<path d="M0 0 C1.05239592 1.57859387 2.09336394 3.16971972 3.0078125 4.83203125 C6.91361481 11.75595353 12.34329879 16.5693012 20 19 C28.6817712 19.83609443 35.45178644 19.58812981 43 15 C43.99 15.495 43.99 15.495 45 16 C43.68 16.66 42.36 17.32 41 18 C41.0825 18.845625 41.165 19.69125 41.25 20.5625 C40.88339773 25.6032812 39.03628951 29.08378653 35.41015625 32.49609375 C33.33641784 34.11387276 31.20155595 35.5602523 29 37 C28.00226563 37.67546875 27.00453125 38.3509375 25.9765625 39.046875 C15.33696367 45.97145951 6.98822753 48.21712921 -5.5625 48.375 C-6.43712891 48.38917969 -7.31175781 48.40335937 -8.21289062 48.41796875 C-15.50764653 48.3632444 -22.40773961 47.12269932 -28.75 43.375 C-34.34741583 37.46661663 -37.38803176 33.15272637 -37.6875 24.75 C-37.38953174 18.57212474 -37.38953174 18.57212474 -35 15.0625 C-34.01 14.381875 -33.02 13.70125 -32 13 C-30.76849989 11.81492007 -29.53953561 10.62720187 -28.3125 9.4375 C-19.59810474 2.00511075 -11.17322726 1.42040896 0 2 C0 1.34 0 0.68 0 0 Z " fill="#FA918D" transform="translate(356,375)"/>
<path d="M0 0 C0.53625 0.45375 1.0725 0.9075 1.625 1.375 C4.31698302 3.21688312 6.88520388 4.07971933 10 5 C10 5.66 10 6.32 10 7 C11.10794922 7.10054688 11.10794922 7.10054688 12.23828125 7.203125 C15.83806648 8.24181833 16.93071941 9.79916116 19.1875 12.75 C19.86167969 13.61109375 20.53585937 14.4721875 21.23046875 15.359375 C25.44577538 21.64976636 25.90653192 27.57415338 25 35 C22.87216616 41.3008672 18.7870588 44.21481959 12.98828125 47.08984375 C12.33214844 47.39019531 11.67601562 47.69054687 11 48 C10.01 48.495 10.01 48.495 9 49 C-6.21523867 50.1318456 -18.79048604 47.80099655 -31 38 C-35.14177471 34.35167892 -38.25349454 30.80638456 -41 26 C-41.99 25.34 -42.98 24.68 -44 24 C-45.72966117 18.9682584 -46.13946061 11.60008193 -43.98828125 6.69140625 C-43.66214844 6.13324219 -43.33601562 5.57507813 -43 5 C-42.39671875 5.34933594 -41.7934375 5.69867188 -41.171875 6.05859375 C-39.97304688 6.74115234 -39.97304688 6.74115234 -38.75 7.4375 C-37.96109375 7.88996094 -37.1721875 8.34242188 -36.359375 8.80859375 C-29.68908839 12.17686762 -21.22851494 12.09986979 -14.1015625 10.24609375 C-8.18014363 7.97888382 -3.57945237 5.36917856 0 0 Z " fill="#FB938F" transform="translate(589,409)"/>
<path d="M0 0 C1.98 0 3.96 0 6 0 C4.02 0.99 4.02 0.99 2 2 C3.58272601 3.58272601 5.38034003 3.34735747 7.5625 3.5625 C8.80193359 3.68818359 8.80193359 3.68818359 10.06640625 3.81640625 C10.70449219 3.87699219 11.34257813 3.93757812 12 4 C11.55031907 8.67668171 10.76764219 12.94705642 9.484375 17.46875 C7.80278859 24.11398204 7.50031603 30.41808699 7.5625 37.25 C7.57079834 38.43150635 7.57909668 39.6130127 7.58764648 40.83032227 C7.88902824 56.4882304 11.20530987 69.60639908 21.4375 81.9375 C27.99234786 87.21335316 33.17258279 90.00110681 41.640625 90.31640625 C42.71054687 90.35830078 43.78046875 90.40019531 44.8828125 90.44335938 C45.99398437 90.48267578 47.10515625 90.52199219 48.25 90.5625 C49.93996094 90.62727539 49.93996094 90.62727539 51.6640625 90.69335938 C54.44258954 90.79932015 57.22120391 90.90139142 60 91 C59.505 92.485 59.505 92.485 59 94 C48.39707053 99.28379319 34.63463045 99.83630363 23.3125 96.75 C17.00459933 94.45426744 13.41437658 91.73615265 10 86 C8.95716564 85.14218464 7.89158433 84.31174362 6.8125 83.5 C-3.10170132 75.28717645 -7.10249729 62.69688743 -9.75 50.5625 C-11.02646187 32.37291838 -8.42950061 16.29375773 0 0 Z " fill="#B6C3D3" transform="translate(638,566)"/>
<path d="M0 0 C2.27358907 2.92707575 4.21095508 5.95341832 6.125 9.125 C9.84639953 15.01329039 14.19539966 19.97897622 19 25 C19.54011719 25.60328125 20.08023437 26.2065625 20.63671875 26.828125 C25.39297022 31.95577142 31.07806208 35.79196045 36.79296875 39.765625 C37.85128906 40.50296875 38.90960938 41.2403125 40 42 C40.80050781 42.55171875 41.60101563 43.1034375 42.42578125 43.671875 C42.94527344 44.11015625 43.46476562 44.5484375 44 45 C44 45.66 44 46.32 44 47 C44.59296875 47.22171875 45.1859375 47.4434375 45.796875 47.671875 C50.46125875 50.48373755 52.31640445 56.0262406 54 61 C54.46260388 65.72044781 54.37732188 70.2764891 54 75 C51.7655402 70.96707255 51.45503257 67.55032566 51 63 C50.34 63 49.68 63 49 63 C49.30926968 65.75039833 49.6222884 68.50028178 49.9375 71.25 C50.02451172 72.02730469 50.11152344 72.80460937 50.20117188 73.60546875 C50.33168945 74.73662109 50.33168945 74.73662109 50.46484375 75.890625 C50.543396 76.58188477 50.62194824 77.27314453 50.70288086 77.98535156 C51.00544983 80.03695313 51.46412384 81.99782535 52 84 C47.38486888 82.68139111 43.90102388 80.78644563 40 78 C40.99 77.01 41.98 76.02 43 75 C42.41863281 74.73445313 41.83726562 74.46890625 41.23828125 74.1953125 C34.24013572 70.45808295 29.04812377 63.96596445 24 58 C23.48526123 57.43337646 22.97052246 56.86675293 22.44018555 56.28295898 C9.35033794 41.76087513 -1.99213033 23.86054246 -1.30859375 3.8515625 C-1 1 -1 1 0 0 Z " fill="#CED7E3" transform="translate(244,436)"/>
<path d="M0 0 C0.66 0 1.32 0 2 0 C2.3853894 0.74890503 2.3853894 0.74890503 2.77856445 1.51293945 C3.95069279 3.78253658 5.1314853 6.04751521 6.3125 8.3125 C6.71662109 9.09818359 7.12074219 9.88386719 7.53710938 10.69335938 C7.93349609 11.45068359 8.32988281 12.20800781 8.73828125 12.98828125 C9.09962158 13.68477783 9.46096191 14.38127441 9.83325195 15.09887695 C10.93726538 17.0665439 10.93726538 17.0665439 12.64135742 18.62573242 C14 20 14 20 14 22 C15.1446875 22.309375 15.1446875 22.309375 16.3125 22.625 C21.49898594 24.55894391 26.19033084 27.2785146 31 30 C31 30.66 31 31.32 31 32 C29.83082031 32.58007812 28.66164063 33.16015625 27.45703125 33.7578125 C25.90849028 34.54616063 24.36033328 35.33526331 22.8125 36.125 C22.04357422 36.50398438 21.27464844 36.88296875 20.48242188 37.2734375 C12.74681852 41.25743923 8.83648665 46.65815848 5.1875 54.375 C4.87619141 55.01566406 4.56488281 55.65632813 4.24414062 56.31640625 C3.48859644 57.87398965 2.74320261 59.43649018 2 61 C-0.67824848 58.73506147 -2.12804161 56.08863019 -3.75048828 53.01196289 C-6.97281469 46.92858213 -9.68688159 42.10627773 -16 39 C-17.75763672 38.09121094 -17.75763672 38.09121094 -19.55078125 37.1640625 C-23.01074543 35.39296326 -26.49765663 33.68559383 -30 32 C-29.505 30.515 -29.505 30.515 -29 29 C-27.03125 28.04296875 -27.03125 28.04296875 -24.5 27.1875 C-12.93823465 22.69125792 -8.65417406 17.71598411 -3.62890625 6.58203125 C-2 3 -2 3 0 0 Z " fill="#F6E067" transform="translate(741,245)"/>
<path d="M0 0 C0.33 0 0.66 0 1 0 C0.20790551 12.04529895 -4.70334215 20.13636545 -13.375 28.3125 C-33.80586115 46.07446487 -60.39119515 59.944788 -88 59 C-86.14486731 53.43460194 -80.09446468 51.05594475 -75.06542969 48.52050781 C-71.85058839 47.01876534 -68.61801545 45.56484405 -65.375 44.125 C-55.71087797 39.74122589 -46.19289599 35.31177324 -37 30 C-36.27876953 29.58395508 -35.55753906 29.16791016 -34.81445312 28.73925781 C-22.0019737 21.28052607 -10.45486468 13.93029815 -1.4609375 1.87109375 C-0.97882813 1.25363281 -0.49671875 0.63617188 0 0 Z " fill="#BEC9D8" transform="translate(735,499)"/>
<path d="M0 0 C0.66 0 1.32 0 2 0 C2.44730469 0.89203125 2.89460938 1.7840625 3.35546875 2.703125 C3.96003906 3.87359375 4.56460937 5.0440625 5.1875 6.25 C5.77917969 7.41015625 6.37085938 8.5703125 6.98046875 9.765625 C10.3585931 15.17585123 14.66648696 17.52005963 20.3125 20.25 C21.38113281 20.77078125 22.44976562 21.2915625 23.55078125 21.828125 C24.76314453 22.40820312 24.76314453 22.40820312 26 23 C26 23.66 26 24.32 26 25 C25.05898438 25.46148437 24.11796875 25.92296875 23.1484375 26.3984375 C12.77374639 31.73720798 8.28358183 37.03792468 4 48 C-0.00454615 46.66515128 -0.77452304 44.18759897 -2.6875 40.6875 C-5.97486814 35.01730563 -8.73727874 32.01701957 -15 30 C-16.33755017 29.42640163 -17.67118547 28.84355498 -19 28.25 C-19.99 27.8375 -20.98 27.425 -22 27 C-22 26.01 -22 25.02 -22 24 C-21.03578125 23.5875 -20.0715625 23.175 -19.078125 22.75 C-10.94765995 19.4565897 -10.94765995 19.4565897 -5.375 13.125 C-4.8878608 11.75993962 -4.43086961 10.38385181 -4 9 C-3.26498603 7.32667031 -2.51489856 5.65988191 -1.75 4 C-1.16477801 2.66749455 -0.58073946 1.33446515 0 0 Z " fill="#F1F89A" transform="translate(257,260)"/>
<path d="M0 0 C0 0.66 0 1.32 0 2 C0.66 2 1.32 2 2 2 C1.505 3.485 1.505 3.485 1 5 C-2.0429118 4.38096523 -5.08407097 3.75369647 -8.125 3.125 C-8.9809375 2.95097656 -9.836875 2.77695313 -10.71875 2.59765625 C-14.29074656 1.85578004 -17.73085713 1.08982397 -21.1953125 -0.06640625 C-24.37436697 -1.12461519 -27.43298414 -1.60774783 -30.75 -2.0625 C-36.79495268 -2.89747634 -36.79495268 -2.89747634 -39 -4 C-48.27114009 -5.33309148 -57.71008056 -5.15474869 -67.05419922 -5.13037109 C-69.49583137 -5.12500915 -71.93727964 -5.13034886 -74.37890625 -5.13671875 C-82.12847368 -5.13971728 -89.76750939 -4.97224575 -97.48828125 -4.22265625 C-100.92599981 -3.91791293 -104.2991176 -3.90299118 -107.75 -3.9375 C-108.94109375 -3.94652344 -110.1321875 -3.95554688 -111.359375 -3.96484375 C-112.66648437 -3.98224609 -112.66648437 -3.98224609 -114 -4 C-113.67 -4.66 -113.34 -5.32 -113 -6 C-110.31392257 -6.88830907 -107.6707129 -7.66146583 -104.9375 -8.375 C-104.1225708 -8.59051514 -103.3076416 -8.80603027 -102.46801758 -9.02807617 C-100.78471727 -9.47206481 -99.1007069 -9.91336962 -97.41601562 -10.35205078 C-95.25639653 -10.93123723 -93.12156727 -11.55869769 -90.984375 -12.21484375 C-64.62695547 -19.83463273 -23.23541007 -15.49027338 0 0 Z " fill="#E9E9F0" transform="translate(574,236)"/>
<path d="M0 0 C2 3 2 3 1.625 5.1875 C1.41875 5.785625 1.2125 6.38375 1 7 C0.505 6.505 0.505 6.505 0 6 C-1.99990516 5.80010237 -1.99990516 5.80010237 -4.3125 5.8125 C-5.09238281 5.79832031 -5.87226563 5.78414063 -6.67578125 5.76953125 C-9.23223351 6.0230282 -10.78392954 6.73567349 -13 8 C-13.78375 8.37125 -14.5675 8.7425 -15.375 9.125 C-18.53183035 11.37987882 -20.35476898 13.93609708 -22.578125 17.08203125 C-24 19 -24 19 -26.3125 21.125 C-30.40988387 25.67764874 -29.10292587 33.21327869 -29 39 C-28.21496094 39.10957031 -27.42992187 39.21914063 -26.62109375 39.33203125 C-25.04521484 39.56986328 -25.04521484 39.56986328 -23.4375 39.8125 C-22.40496094 39.96332031 -21.37242187 40.11414063 -20.30859375 40.26953125 C-17 41 -17 41 -13.67578125 42.5390625 C-9.21178088 44.31327731 -5.50863156 44.5768045 -0.75 44.5625 C0.08756836 44.56008301 0.92513672 44.55766602 1.78808594 44.55517578 C9.07972508 44.33938839 14.15510957 42.42949014 20 38 C20.71929687 37.53207031 21.43859375 37.06414062 22.1796875 36.58203125 C25.05468919 34.52103607 26.70300036 33.09619865 27.64453125 29.62109375 C27.90639197 27.3900404 28.03491463 25.24451221 28 23 C27.01 22.67 26.02 22.34 25 22 C25 21.67 25 21.34 25 21 C25.88042969 20.81824219 26.76085937 20.63648438 27.66796875 20.44921875 C28.82941406 20.19785156 29.99085938 19.94648438 31.1875 19.6875 C32.33605469 19.44386719 33.48460937 19.20023437 34.66796875 18.94921875 C37.89289047 18.03051303 40.15842357 16.72109692 43 15 C43.99 15.495 43.99 15.495 45 16 C43.68 16.66 42.36 17.32 41 18 C41.0825 18.845625 41.165 19.69125 41.25 20.5625 C40.88339773 25.6032812 39.03628951 29.08378653 35.41015625 32.49609375 C33.33641784 34.11387276 31.20155595 35.5602523 29 37 C28.00226563 37.67546875 27.00453125 38.3509375 25.9765625 39.046875 C15.33696367 45.97145951 6.98822753 48.21712921 -5.5625 48.375 C-6.43712891 48.38917969 -7.31175781 48.40335937 -8.21289062 48.41796875 C-15.50764653 48.3632444 -22.40773961 47.12269932 -28.75 43.375 C-34.34741583 37.46661663 -37.38803176 33.15272637 -37.6875 24.75 C-37.38953174 18.57212474 -37.38953174 18.57212474 -35 15.0625 C-34.01 14.381875 -33.02 13.70125 -32 13 C-30.76849989 11.81492007 -29.53953561 10.62720187 -28.3125 9.4375 C-19.59810474 2.00511075 -11.17322726 1.42040896 0 2 C0 1.34 0 0.68 0 0 Z " fill="#FBC8C4" transform="translate(356,375)"/>
<path d="M0 0 C2.24045342 2.82661855 3.86282662 5.67053259 5.5 8.875 C8.99112685 14.86485216 13.78951131 17.28152986 20 20 C20 20.66 20 21.32 20 22 C19.21496094 22.29390625 18.42992187 22.5878125 17.62109375 22.890625 C8.6960714 26.70155479 5.01539984 31.26226373 1 40 C-1.59395933 37.52694555 -3.60323444 35.15252964 -5.5 32.125 C-9.3914805 26.74144926 -15.03490251 24.54819699 -21 22 C-20.505 20.515 -20.505 20.515 -20 19 C-18.13957552 18.07123444 -16.23505308 17.22969592 -14.3125 16.4375 C-7.61511422 13.26798806 -5.12140093 9.52350339 -2 3 C-1.34 2.01 -0.68 1.02 0 0 Z " fill="#ECF9FA" transform="translate(802,429)"/>
<path d="M0 0 C-1.09716185 5.25959029 -3.8112996 8.46470283 -8.1328125 11.49609375 C-14.6066571 15.17015668 -20.63293368 16.16041941 -28 15 C-31.5 13.25 -31.5 13.25 -34 11 C-34.804375 10.360625 -35.60875 9.72125 -36.4375 9.0625 C-38 7 -38 7 -38.1875 4.5625 C-36.44770682 0.80820945 -33.64503711 -1.13442982 -30 -3 C-20.35738428 -5.66176371 -8.55629274 -5.32391548 0 0 Z " fill="#F8537A" transform="translate(484,425)"/>
<path d="M0 0 C3 1 3 1 4.25390625 3.328125 C4.68574219 4.29234375 5.11757813 5.2565625 5.5625 6.25 C8.75475622 12.46479755 12.54875948 14.69234282 19 17 C18.505 18.485 18.505 18.485 18 20 C16.29296875 20.73828125 16.29296875 20.73828125 14.1875 21.3125 C8.47468467 23.27117954 6.93261352 27.20138822 4.25 32.375 C3.8375 33.24125 3.425 34.1075 3 35 C0.61437182 32.78477383 -1.02158628 30.9594178 -2.5625 28.0625 C-6.13660496 23.57195788 -10.74251037 22.04860803 -16 20 C-16 19.01 -16 18.02 -16 17 C-14.71086513 16.32845067 -13.41859796 15.66291141 -12.125 15 C-11.40570313 14.62875 -10.68640625 14.2575 -9.9453125 13.875 C-8 13 -8 13 -6 13 C-5.7525 12.34 -5.505 11.68 -5.25 11 C-3.68182955 7.23639093 -1.85494954 3.6288576 0 0 Z " fill="#EFD841" transform="translate(333,195)"/>
<path d="M0 0 C3.61137949 1.42174308 4.70291542 2.82994427 6.3125 6.3125 C8.83021082 11.13811241 11.30780084 13.26999321 16 16 C17.32271366 16.37325253 18.65498718 16.71745901 20 17 C19.505 18.485 19.505 18.485 19 20 C17.29296875 20.84375 17.29296875 20.84375 15.1875 21.5 C9.47931751 23.48449005 9.47931751 23.48449005 5.875 28.19140625 C4.86047497 30.44238365 3.90524976 32.7031695 3 35 C0 34 0 34 -1 32.14453125 C-1.33 31.37496094 -1.66 30.60539062 -2 29.8125 C-5.08834575 23.82703733 -10.03797727 21.66254956 -16 19 C-16 18.34 -16 17.68 -16 17 C-15.071875 16.731875 -14.14375 16.46375 -13.1875 16.1875 C-10.1688359 15.06289965 -9.0844857 14.29293427 -7 12 C-6.34 12 -5.68 12 -5 12 C-4.731875 11.319375 -4.46375 10.63875 -4.1875 9.9375 C-2.83946694 6.60289191 -1.42463702 3.30256763 0 0 Z " fill="#F2D73A" transform="translate(787,318)"/>
<path d="M0 0 C2.12162911 2.00004578 3.66107546 3.9632595 5.1875 6.4375 C8.00291933 10.51381265 11.48229622 12.19516052 16 14 C16 14.66 16 15.32 16 16 C15.40832031 16.268125 14.81664062 16.53625 14.20703125 16.8125 C8.72297946 19.53216027 5.79086931 21.96107421 2.97265625 27.42578125 C2.49119141 28.20501953 2.49119141 28.20501953 2 29 C1.34 29 0.68 29 0 29 C-1.33203125 27.35546875 -1.33203125 27.35546875 -2.8125 25.1875 C-6.14422768 20.59928135 -9.32907077 18.05017208 -15 17 C-14 14 -14 14 -12.328125 13.1484375 C-11.64234375 12.89320313 -10.9565625 12.63796875 -10.25 12.375 C-4.99445938 9.96896255 -3.37701318 6.02947424 -1 1 C-0.67 0.67 -0.34 0.34 0 0 Z " fill="#EBF9FB" transform="translate(213,360)"/>
<path d="M0 0 C3.14197311 4.71295967 2.65736383 9.48933303 2 15 C0.19565824 20.36047165 -2.83572607 23.18294448 -7.6875 25.9375 C-9.11511055 26.64530691 -10.55114218 27.33677039 -12 28 C-12.99 28.495 -12.99 28.495 -14 29 C-29.06534008 30.1206948 -42.00436226 27.95064337 -54 18 C-55.86063556 16.07807291 -57.40651993 14.15890848 -59 12 C-56.08482708 13.07401108 -54.22189824 13.77810176 -52 16 C-51.01 16.2165625 -51.01 16.2165625 -50 16.4375 C-48 17 -48 17 -46 20 C-43.88159744 20.75906853 -43.88159744 20.75906853 -41.5 21.125 C-37.13402062 21.93298969 -37.13402062 21.93298969 -35 23 C-35 23.66 -35 24.32 -35 25 C-34.175 24.855625 -33.35 24.71125 -32.5 24.5625 C-31.345 24.376875 -30.19 24.19125 -29 24 C-28.31550781 23.88140625 -27.63101563 23.7628125 -26.92578125 23.640625 C-21.34000187 22.77333208 -21.34000187 22.77333208 -18 25 C-11.62629303 21.81314651 -4.74792404 17.54908436 -2.0859375 10.62109375 C-1.59809228 8.41122769 -1.2742637 6.24474287 -1 4 C-0.68405881 2.66243877 -0.355798 1.32751522 0 0 Z " fill="#FCA8A0" transform="translate(612,429)"/>
<path d="M0 0 C2.9375 1.5625 2.9375 1.5625 5 4 C5.51780959 7.2622004 5.77909754 8.93230345 5 12 C2.05105654 15.64737744 -0.13811474 17.75174863 -4.8125 18.375 C-8 18 -8 18 -10.875 16 C-13.25959437 12.63351383 -13.68418994 10.9507266 -13.43359375 6.93359375 C-12.75194607 3.89381354 -11.19767713 2.13303956 -9 0 C-5.81229009 -1.59385496 -3.40972958 -0.75129635 0 0 Z " fill="#F5F4F2" transform="translate(573,371)"/>
<path d="M0 0 C2.75329021 1.79562405 4.52627461 3.05254922 6 6 C6.39447548 10.18144011 6.45035186 12.30946048 4.125 15.875 C1.61333682 18.38666318 0.70615837 18.92153796 -2.8125 19.3125 C-6.7307645 18.92835642 -8.21293267 17.70743683 -11 15 C-12.61469184 11.77061633 -12.58079278 8.49143247 -12 5 C-8.62505893 0.09099481 -5.84787119 -0.93983644 0 0 Z " fill="#F6F6F5" transform="translate(393,345)"/>
<path d="M0 0 C0.66 0 1.32 0 2 0 C2 0.99 2 1.98 2 3 C3.32 2.67 4.64 2.34 6 2 C6 7.29895791 1.871223 11.08605502 -1.7109375 14.75 C-7.95386911 20.39971186 -13.85194872 22.54449259 -22.26953125 22.2890625 C-26.37935699 21.85397365 -29.31868016 20.90883251 -33 19 C-33.75762842 16.8853009 -34 15.24192581 -34 13 C-34.99 13 -35.98 13 -37 13 C-38.35439668 10.29120665 -38.06501451 7.99066732 -38 5 C-37.443125 5.7425 -36.88625 6.485 -36.3125 7.25 C-33.09096678 11.08101248 -29.67583598 14.70362576 -24.53125 15.2734375 C-16.13455876 15.55476994 -9.68825282 14.13793872 -3.26953125 8.47265625 C-0.51856304 5.44427948 0 4.18538377 0 0 Z " fill="#8D0D14" transform="translate(483,424)"/>
<path d="M0 0 C2 3 2 3 1.625 5.1875 C1.41875 5.785625 1.2125 6.38375 1 7 C0.505 6.505 0.505 6.505 0 6 C-1.99990516 5.80010237 -1.99990516 5.80010237 -4.3125 5.8125 C-5.09238281 5.79832031 -5.87226563 5.78414063 -6.67578125 5.76953125 C-9.23223351 6.0230282 -10.78392954 6.73567349 -13 8 C-13.78375 8.37125 -14.5675 8.7425 -15.375 9.125 C-18.53183035 11.37987882 -20.35476898 13.93609708 -22.578125 17.08203125 C-24 19 -24 19 -26.3125 21.125 C-30.07685517 25.30761686 -29.09163583 31.68512183 -29 37 C-31 35 -31 35 -32 32 C-32.66 32.66 -33.32 33.32 -34 34 C-35.54389604 27.05246784 -34.41843038 22.24862437 -31 16 C-29.484375 14.20703125 -29.484375 14.20703125 -28 13 C-27.34 13 -26.68 13 -26 13 C-25.64035156 12.06027344 -25.64035156 12.06027344 -25.2734375 11.1015625 C-23.66151229 8.44139144 -22.57724738 8.18907486 -19.625 7.375 C-17.25413959 6.70100958 -15.12000373 6.06022659 -12.9140625 4.953125 C-10.34898626 3.67582173 -7.82142011 3.38473911 -5 3 C-5 2.67 -5 2.34 -5 2 C-3.35 2 -1.7 2 0 2 C0 1.34 0 0.68 0 0 Z " fill="#FBADA8" transform="translate(356,375)"/>
<path d="M0 0 C0.66 0 1.32 0 2 0 C2.515625 1.0725 3.03125 2.145 3.5625 3.25 C5.93355373 7.46996205 8.69743642 8.93145982 13 11 C12.236875 11.598125 11.47375 12.19625 10.6875 12.8125 C8.63799007 14.48070576 6.81937613 16.10152056 5 18 C3.66666667 19.33333333 2.33333333 20.66666667 1 22 C0.29875 21.0925 -0.4025 20.185 -1.125 19.25 C-3.74638305 16.08030474 -6.49252491 14.12079889 -10 12 C-8.16441588 10.16441588 -6.3189513 8.35217319 -4.4375 6.5625 C-2.34740825 4.36522406 -1.12720706 2.76678097 0 0 Z " fill="#EBE87E" transform="translate(683,209)"/>
<path d="M0 0 C5.91937897 1.74936973 7.55108999 5.30148643 10.4140625 10.49609375 C14.06163902 18.55490197 15.59223003 26.2759063 14 35 C13.67 35 13.34 35 13 35 C12.67 32.69 12.34 30.38 12 28 C10.8553125 29.0209375 10.8553125 29.0209375 9.6875 30.0625 C8.800625 30.701875 7.91375 31.34125 7 32 C6.01 31.67 5.02 31.34 4 31 C5.15058556 25.60204011 6.42421759 20.29012667 8 15 C7.01 15 6.02 15 5 15 C3.39453125 13.171875 3.39453125 13.171875 1.8125 10.75 C1.28269531 9.96109375 0.75289062 9.1721875 0.20703125 8.359375 C-1 6 -1 6 -1 2 C-0.67 1.34 -0.34 0.68 0 0 Z " fill="#E8EAF0" transform="translate(753,648)"/>
<path d="M0 0 C-0.75831755 4.09491476 -2.12137919 7.65893891 -5.6159668 10.15356445 C-7.60583813 11.29213475 -9.62397862 12.31389966 -11.6875 13.3125 C-12.37005859 13.67150391 -13.05261719 14.03050781 -13.75585938 14.40039062 C-18.7418227 16.87218547 -22.4509836 17.36744329 -28 17 C-28 15.68 -28 14.36 -28 13 C-26.96101562 12.48050781 -25.92203125 11.96101562 -24.8515625 11.42578125 C-24.18012207 11.08998047 -23.50868164 10.75417969 -22.81689453 10.40820312 C-21.35198538 9.67591171 -19.88681463 8.94414337 -18.42138672 8.21289062 C-15.20171173 6.60555121 -11.98583856 4.9927646 -8.78125 3.35546875 C-7.9046875 2.90816406 -7.028125 2.46085938 -6.125 2 C-5.36445312 1.608125 -4.60390625 1.21625 -3.8203125 0.8125 C-2 0 -2 0 0 0 Z " fill="#BDC8D8" transform="translate(686,701)"/>
<path d="M0 0 C0.66 0.33 1.32 0.66 2 1 C0.02 1.99 0.02 1.99 -2 3 C-1.87625 4.2684375 -1.87625 4.2684375 -1.75 5.5625 C-2.12103439 10.66422292 -3.99723728 14.14952108 -7.6953125 17.56640625 C-9.74084316 19.15231362 -11.8294084 20.58985376 -14 22 C-14.88171875 22.57492187 -15.7634375 23.14984375 -16.671875 23.7421875 C-21.73770845 26.91931426 -21.73770845 26.91931426 -24 28 C-24.66 27.67 -25.32 27.34 -26 27 C-23.31158141 24.74754119 -21.35358125 23.11786042 -18 22 C-15.64753015 20.5668504 -15.64753015 20.5668504 -14 18 C-13.83870172 15.69088775 -13.93538417 13.52246623 -14.15234375 11.21875 C-13.94778601 8.23955015 -13.0819156 7.1175801 -11 5 C-8.5546875 3.76953125 -8.5546875 3.76953125 -5.875 2.8125 C-2.6809627 1.82679327 -2.6809627 1.82679327 0 0 Z " fill="#FBC5C1" transform="translate(399,390)"/>
<path d="M0 0 C0.495 1.485 0.495 1.485 1 3 C-4.43933361 5.58828194 -9.81621589 7.66047907 -15.62109375 9.2734375 C-18.261522 10.01970284 -18.261522 10.01970284 -21.625 11.6875 C-27.91840186 14.19441526 -35.35498066 13.21773728 -42 13 C-42 12.01 -42 11.02 -42 10 C-41.36723145 9.91024902 -40.73446289 9.82049805 -40.08251953 9.72802734 C-26.17111944 7.70761601 -13.15741713 4.98387012 0 0 Z " fill="#C2CBD9" transform="translate(655,715)"/>
<path d="M0 0 C-0.66 0.99 -1.32 1.98 -2 3 C-2.05443473 5.12273017 -2.05443473 5.12273017 -1.8125 7.375 C-1.74194393 11.00275807 -1.81454894 11.7471122 -4.0625 14.8125 C-6.26578665 16.45324538 -8.30933762 17.79661223 -10.6875 19.125 C-14.17106234 20.76816926 -14.17106234 20.76816926 -16 24 C-28.95455707 27.51087271 -44.39714204 27.485763 -57 23 C-57.33 21.68 -57.66 20.36 -58 19 C-56.64475992 19.0891201 -55.290771 19.19727993 -53.9375 19.3125 C-53.18339844 19.37050781 -52.42929687 19.42851562 -51.65234375 19.48828125 C-49 20 -49 20 -45.76953125 21.5078125 C-41.4726111 23.42973723 -37.40977049 23.57650733 -32.75 23.5625 C-31.91243164 23.56008301 -31.07486328 23.55766602 -30.21191406 23.55517578 C-22.92027492 23.33938839 -17.84489043 21.42949014 -12 17 C-11.28070313 16.53207031 -10.56140625 16.06414062 -9.8203125 15.58203125 C-6.94531081 13.52103607 -5.29699964 12.09619865 -4.35546875 8.62109375 C-4.09360803 6.3900404 -3.96508537 4.24451221 -4 2 C-4.99 1.67 -5.98 1.34 -7 1 C-7 0.67 -7 0.34 -7 0 C-2.25 -1.125 -2.25 -1.125 0 0 Z " fill="#FAB1AA" transform="translate(388,396)"/>
<path d="M0 0 C0.53625 0.45375 1.0725 0.9075 1.625 1.375 C4.31698302 3.21688312 6.88520388 4.07971933 10 5 C10 5.66 10 6.32 10 7 C11.65 7.33 13.3 7.66 15 8 C15.33 10.97 15.66 13.94 16 17 C15.34 16.67 14.68 16.34 14 16 C14 15.34 14 14.68 14 14 C12.02 14 10.04 14 8 14 C8 13.34 8 12.68 8 12 C5.69 12 3.38 12 1 12 C0.731875 11.38125 0.46375 10.7625 0.1875 10.125 C-0.95556848 7.7004767 -0.95556848 7.7004767 -4 6 C-2.68 4.02 -1.36 2.04 0 0 Z " fill="#FBBDB9" transform="translate(589,409)"/>
<path d="M0 0 C5.98775236 -0.76766056 10.27185745 1.55880749 15 5 C16.875 7.75 16.875 7.75 18 10 C18.99 10.33 19.98 10.66 21 11 C22.09765625 12.70703125 22.09765625 12.70703125 23.0625 14.8125 C23.38347656 15.49957031 23.70445312 16.18664062 24.03515625 16.89453125 C24.35355469 17.58933594 24.67195312 18.28414063 25 19 C25.36996094 19.639375 25.73992188 20.27875 26.12109375 20.9375 C27.91740065 25.15283353 27.02554726 29.65167963 26 34 C23.89132762 38.16816289 21.29816858 41.70183142 18 45 C17.01 45 16.02 45 15 45 C15 45.66 15 46.32 15 47 C11.535 47.495 11.535 47.495 8 48 C10.07661391 45.92338609 11.75579106 45.08729771 14.375 43.8125 C17.96539554 41.81205418 20.58349289 40.00379149 22.41015625 36.1484375 C24.10168998 29.98722193 24.01843763 23.39407172 21.3125 17.5625 C19.3602865 14.19685595 16.82565255 11.66867185 14 9 C14 8.34 14 7.68 14 7 C12.35 6.67 10.7 6.34 9 6 C9 5.34 9 4.68 9 4 C8.071875 3.896875 7.14375 3.79375 6.1875 3.6875 C2.96745642 2.9929808 1.97420135 2.52259061 0 0 Z " fill="#FCE1DD" transform="translate(590,410)"/>
<path d="M0 0 C2.19197254 1.68051228 3.55098367 2.99852255 4.875 5.4375 C4.5625 8.1875 4.5625 8.1875 3.875 10.4375 C3.215 10.4375 2.555 10.4375 1.875 10.4375 C1.215 11.7575 0.555 13.0775 -0.125 14.4375 C-0.785 14.4375 -1.445 14.4375 -2.125 14.4375 C-2.785 13.4475 -3.445 12.4575 -4.125 11.4375 C-5.115 11.1075 -6.105 10.7775 -7.125 10.4375 C-7.55780791 5.15724352 -7.55780791 5.15724352 -7.125 2.4375 C-4.63478931 0.08563435 -3.3973056 -0.89928678 0 0 Z " fill="#EED836" transform="translate(764.125,396.5625)"/>
<path d="M0 0 C3.14197311 4.71295967 2.65736383 9.48933303 2 15 C0.19565824 20.36047165 -2.83572607 23.18294448 -7.6875 25.9375 C-9.11511055 26.64530691 -10.55114218 27.33677039 -12 28 C-12.66 28.33 -13.32 28.66 -14 29 C-15.37548156 29.08308638 -16.75485796 29.10736016 -18.1328125 29.09765625 C-18.93847656 29.09443359 -19.74414062 29.09121094 -20.57421875 29.08789062 C-21.41597656 29.07951172 -22.25773438 29.07113281 -23.125 29.0625 C-23.97449219 29.05798828 -24.82398438 29.05347656 -25.69921875 29.04882812 C-27.79950909 29.03702874 -29.8997633 29.01909306 -32 29 C-32 28.67 -32 28.34 -32 28 C-30.58847656 27.92652344 -30.58847656 27.92652344 -29.1484375 27.8515625 C-27.28058594 27.73941406 -27.28058594 27.73941406 -25.375 27.625 C-24.14523437 27.55539062 -22.91546875 27.48578125 -21.6484375 27.4140625 C-14.97398965 26.65657698 -11.39555654 24.94022019 -6.6875 20.125 C-5.82511719 19.26132812 -4.96273437 18.39765625 -4.07421875 17.5078125 C-0.98785629 13.77627823 -1 11.80770608 -1 7 C-0.68848712 4.66365343 -0.35840222 2.32961443 0 0 Z " fill="#FBC5BF" transform="translate(612,429)"/>
<path d="M0 0 C0.556875 0.7425 1.11375 1.485 1.6875 2.25 C4.97837957 6.16347841 8.37830229 9.68114487 13.6015625 10.31640625 C15.09816406 10.43822266 15.09816406 10.43822266 16.625 10.5625 C17.62789063 10.64628906 18.63078125 10.73007812 19.6640625 10.81640625 C20.82035156 10.90728516 20.82035156 10.90728516 22 11 C22 11.33 22 11.66 22 12 C19.69 12.33 17.38 12.66 15 13 C15 13.66 15 14.32 15 15 C18.3 15 21.6 15 25 15 C24.67 15.66 24.34 16.32 24 17 C16.97991556 17.34842331 11.32212073 17.27813667 5 14 C4.24237158 11.8853009 4 10.24192581 4 8 C3.01 8 2.02 8 1 8 C-0.35439668 5.29120665 -0.06501451 2.99066732 0 0 Z " fill="#871A22" transform="translate(445,429)"/>
<path d="M0 0 C1.98 0 3.96 0 6 0 C5.38251126 2.77270429 4.75637544 5.54295598 4.125 8.3125 C3.95097656 9.09818359 3.77695312 9.88386719 3.59765625 10.69335938 C3.42363281 11.45068359 3.24960937 12.20800781 3.0703125 12.98828125 C2.91320801 13.68477783 2.75610352 14.38127441 2.59423828 15.09887695 C2 17 2 17 0 20 C-0.66 20 -1.32 20 -2 20 C-2.66 20.33 -3.32 20.66 -4 21 C-3.54034292 13.69303751 -2.11670277 7.00242552 0 0 Z " fill="#EFEFF0" transform="translate(650,570)"/>
<path d="M0 0 C0.66 0.33 1.32 0.66 2 1 C1.34 2.32 0.68 3.64 0 5 C0.66 5.33 1.32 5.66 2 6 C0.74896484 6.36351562 0.74896484 6.36351562 -0.52734375 6.734375 C-6.65795999 8.56021718 -12.48395731 10.46449909 -18.1953125 13.36328125 C-20 14 -20 14 -23 13 C-18.02028372 8.83329863 -12.97076659 5.81546039 -7.125 3.0625 C-6.45847412 2.744021 -5.79194824 2.42554199 -5.10522461 2.09741211 C-3.43255762 1.33131652 -1.71826639 0.65747846 0 0 Z " fill="#1B1C20" transform="translate(672,468)"/>
<path d="M0 0 C1.485 0.495 1.485 0.495 3 1 C-2.83886111 8.12258235 -18.2288583 10.77553862 -27 12 C-29.3671875 11.5703125 -29.3671875 11.5703125 -31 11 C-23.15718169 7.8440714 -15.29455791 5.0611263 -7.20703125 2.61254883 C-3.52494965 1.51148665 -3.52494965 1.51148665 0 0 Z " fill="#D9DDE7" transform="translate(673,532)"/>
<path d="M0 0 C0.66 0 1.32 0 2 0 C2 0.99 2 1.98 2 3 C3.32 2.67 4.64 2.34 6 2 C6 6.37397361 3.79304766 8.76312559 1 12 C-2.42408659 14.65366711 -4.68750913 15.36964207 -9 15 C-9.33 14.34 -9.66 13.68 -10 13 C-9.52949219 12.68546875 -9.05898438 12.3709375 -8.57421875 12.046875 C-3.60244199 8.70099856 -3.60244199 8.70099856 0 4 C0 2.68 0 1.36 0 0 Z " fill="#970C1A" transform="translate(483,424)"/>
<path d="M0 0 C1.11841368 2.08770553 1.9708176 3.85408801 2.4375 6.1875 C2.623125 6.785625 2.80875 7.38375 3 8 C3.99 8.33 4.98 8.66 6 9 C6.6875 11.0625 6.6875 11.0625 7 13 C8.258125 13.144375 9.51625 13.28875 10.8125 13.4375 C13.42667123 13.73748686 15.47439892 14.15813297 18 15 C19.70016844 15.08178114 21.40336297 15.10749501 23.10546875 15.09765625 C24.57983398 15.09282227 24.57983398 15.09282227 26.08398438 15.08789062 C27.10814453 15.07951172 28.13230469 15.07113281 29.1875 15.0625 C30.22326172 15.05798828 31.25902344 15.05347656 32.32617188 15.04882812 C34.88417266 15.0370401 37.44205733 15.02058515 40 15 C35.71143316 17.85904456 31.98179027 17.32995429 26.9375 17.3125 C25.58108398 17.33666992 25.58108398 17.33666992 24.19726562 17.36132812 C16.5735718 17.36677751 9.43513328 16.29008885 3 12 C0.29407743 9.29407743 -0.95479203 7.75346617 -1.1875 3.875 C-1 1 -1 1 0 0 Z " fill="#F9C6BF" transform="translate(324,406)"/>
<path d="M0 0 C4.875 1.875 4.875 1.875 6 3 C6.29386153 6.72224599 6.14809171 7.77786243 4 11 C1.5625 11.4375 1.5625 11.4375 -1 11 C-2.875 9.25 -2.875 9.25 -4 7 C-3.83710263 4.31219342 -3.23099103 3.25870996 -1.4375 1.25 C-0.963125 0.8375 -0.48875 0.425 0 0 Z " fill="#EBE770" transform="translate(257,344)"/>
<path d="M0 0 C0.66 0 1.32 0 2 0 C0.57659875 4.56154319 -1.97581589 7.46205895 -5.3125 10.75 C-5.78623047 11.24371094 -6.25996094 11.73742187 -6.74804688 12.24609375 C-12.23367801 17.7242206 -17.75606998 17.2028237 -25.0625 17.25 C-25.86494141 17.270625 -26.66738281 17.29125 -27.49414062 17.3125 C-33.40619497 17.35175015 -33.40619497 17.35175015 -36.55859375 15.484375 C-37.27208984 14.74960937 -37.27208984 14.74960937 -38 14 C-37.16082031 14.15597656 -36.32164062 14.31195313 -35.45703125 14.47265625 C-27.63383022 15.6660259 -18.92891022 16.92161402 -12 12.4375 C-9.91617582 10.81728652 -9.91617582 10.81728652 -8 9 C-7.319375 8.37738281 -6.63875 7.75476563 -5.9375 7.11328125 C-2.52961633 3.8895466 -2.52961633 3.8895466 0 0 Z " fill="#FBB8B1" transform="translate(610,440)"/>
<path d="M0 0 C2.9375 0.1875 2.9375 0.1875 3.9375 1.1875 C4.39903846 6.49519231 4.39903846 6.49519231 2.6875 9.0625 C0.9375 10.1875 0.9375 10.1875 -3.0625 10.1875 C-5.21165785 6.96376323 -5.44536803 5.92046326 -5.0625 2.1875 C-3.0625 0.1875 -3.0625 0.1875 0 0 Z " fill="#CBDA73" transform="translate(737.0625,348.8125)"/>
<path d="M0 0 C-0.66158782 3.57257421 -1.68345338 6.17670881 -4 9 C-6.92413904 10.30885087 -9.90135571 11.20097852 -13 12 C-12.67 11.01 -12.34 10.02 -12 9 C-12.33 8.34 -12.66 7.68 -13 7 C-9.67790929 3.14637478 -5.30135789 0 0 0 Z " fill="#B1BDCE" transform="translate(686,701)"/>
<path d="M0 0 C0.99 0.33 1.98 0.66 3 1 C2.14535156 1.73863281 1.29070312 2.47726562 0.41015625 3.23828125 C-7.2511875 9.81575229 -7.2511875 9.81575229 -10.125 19.125 C-10.08632813 20.01445312 -10.04765625 20.90390625 -10.0078125 21.8203125 C-10.00394531 22.89925781 -10.00394531 22.89925781 -10 24 C-10.66 24.66 -11.32 25.32 -12 26 C-13.54389604 19.05246784 -12.41843038 14.24862437 -9 8 C-7.484375 6.20703125 -7.484375 6.20703125 -6 5 C-5.34 5 -4.68 5 -4 5 C-3.71125 4.360625 -3.4225 3.72125 -3.125 3.0625 C-2 1 -2 1 0 0 Z " fill="#FBB9B4" transform="translate(334,383)"/>
<path d="M0 0 C0.65226563 0.33773438 1.30453125 0.67546875 1.9765625 1.0234375 C6.57761806 3.3714688 11.01772085 5.5577613 16 7 C14.4375 7.6875 14.4375 7.6875 12 8 C9.66666667 7 7.33333333 6 5 5 C2.83008078 5.34372834 2.83008078 5.34372834 1 6 C1.4452885 11.27315333 2.08373163 16.01770224 4 21 C2.0625 20.3125 2.0625 20.3125 0 19 C-2.09115773 13.42357939 -1.64910063 5.6671474 0 0 Z " fill="#F4C0BA" transform="translate(545,414)"/>
<path d="M0 0 C0.66 0 1.32 0 2 0 C2.69969682 2.24623699 3.38435043 4.49716414 4.0625 6.75 C4.63677734 8.62945312 4.63677734 8.62945312 5.22265625 10.546875 C6.29683771 15.31861575 6.29683771 15.31861575 5 18 C4.01 18.66 3.02 19.32 2 20 C0.57997892 13.2168636 -0.22731216 6.93302093 0 0 Z " fill="#313D4F" transform="translate(293,499)"/>
<path d="M0 0 C-7.89542305 5.26361537 -15.71746124 5.38737024 -25 5 C-25 4.67 -25 4.34 -25 4 C-20.545 3.505 -20.545 3.505 -16 3 C-16 2.34 -16 1.68 -16 1 C-10.63904667 -0.12862175 -5.44693314 -0.09688221 0 0 Z " fill="#B8C1D1" transform="translate(639,722)"/>
<path d="M0 0 C0.66 0.33 1.32 0.66 2 1 C0.02 1.99 0.02 1.99 -2 3 C-1.87625 4.2684375 -1.87625 4.2684375 -1.75 5.5625 C-2.13621184 10.87291283 -4.10151515 14.35150647 -8.046875 17.77734375 C-9.99658718 19.24654176 -11.96522623 20.65171544 -14 22 C-14.33 21.34 -14.66 20.68 -15 20 C-14.071875 19.278125 -13.14375 18.55625 -12.1875 17.8125 C-9.3920525 15.48296041 -7.70436889 13.24641694 -6 10 C-5 8.33333333 -4 6.66666667 -3 5 C-4.65 5 -6.3 5 -8 5 C-2.6 1.4 -2.6 1.4 0 0 Z " fill="#F6DDDA" transform="translate(399,390)"/>
<path d="M0 0 C2.91517292 1.07401108 4.77810176 1.77810176 7 4 C7.598125 4.103125 8.19625 4.20625 8.8125 4.3125 C12.06759303 5.33552924 13.70930673 7.53309955 16 10 C16.99646021 11.0035273 17.99564276 12.0043763 19 13 C10.80117879 11.01641422 5.79941556 7.07788437 0 1 C0 0.67 0 0.34 0 0 Z " fill="#F8B3AC" transform="translate(553,441)"/>
<path d="M0 0 C-0.99 1.485 -0.99 1.485 -2 3 C-0.35 3.33 1.3 3.66 3 4 C3 4.33 3 4.66 3 5 C0.54101345 5.08076963 -1.91533742 5.14037143 -4.375 5.1875 C-5.42300781 5.22520508 -5.42300781 5.22520508 -6.4921875 5.26367188 C-8.5234375 5.29296875 -8.5234375 5.29296875 -12 5 C-12.66 4.01 -13.32 3.02 -14 2 C-4.58997722 -0.29612756 -4.58997722 -0.29612756 0 0 Z " fill="#1D1F1F" transform="translate(653,565)"/>
<path d="M0 0 C0.99 0.33 1.98 0.66 3 1 C2.278125 1.391875 1.55625 1.78375 0.8125 2.1875 C-2.26394876 4.17010031 -4.5119851 6.32059933 -7 9 C-7.7425 9.680625 -8.485 10.36125 -9.25 11.0625 C-12.01582052 15.70512731 -11.83047838 20.68549721 -12 26 C-12.33 26 -12.66 26 -13 26 C-13.78251756 13.14932267 -13.78251756 13.14932267 -11 9.0625 C-10.01 8.381875 -9.02 7.70125 -8 7 C-6.61985424 5.71383304 -5.24513544 4.42182561 -3.875 3.125 C-1.8671875 1.2578125 -1.8671875 1.2578125 0 0 Z " fill="#FBCFCC" transform="translate(332,381)"/>
<path d="M0 0 C2 3 2 3 1.625 5.1875 C1.41875 5.785625 1.2125 6.38375 1 7 C0.67 6.67 0.34 6.34 0 6 C-1.99990516 5.80010237 -1.99990516 5.80010237 -4.3125 5.8125 C-5.09238281 5.79832031 -5.87226563 5.78414063 -6.67578125 5.76953125 C-9.21418608 6.02123862 -10.7752769 6.79988285 -13 8 C-13.66 8 -14.32 8 -15 8 C-15 7.34 -15 6.68 -15 6 C-11.73454239 4.11608215 -8.71888239 3.50712033 -5 3 C-5 2.67 -5 2.34 -5 2 C-3.35 2 -1.7 2 0 2 C0 1.34 0 0.68 0 0 Z " fill="#F2B7B3" transform="translate(356,375)"/>
<path d="M0 0 C0.99 0.33 1.98 0.66 3 1 C4.1875 4.0625 4.1875 4.0625 5 7 C4.34 7 3.68 7 3 7 C3 6.34 3 5.68 3 5 C1.35 5.66 -0.3 6.32 -2 7 C-2 8.32 -2 9.64 -2 11 C-3.98 11.99 -3.98 11.99 -6 13 C-4.31326082 8.50202887 -2.18326108 4.27113698 0 0 Z " fill="#C2D95D" transform="translate(333,195)"/>
<path d="M0 0 C0.66 0.33 1.32 0.66 2 1 C1.071875 1.886875 0.14375 2.77375 -0.8125 3.6875 C-3.40030377 6.2570798 -5.15977034 8.84532058 -7 12 C-7.99 12.66 -8.98 13.32 -10 14 C-7.22764228 4.17073171 -7.22764228 4.17073171 -3 1 C-2.01 0.67 -1.02 0.34 0 0 Z " fill="#43C58C" transform="translate(347,215)"/>
<path d="M0 0 C0.556875 0.7425 1.11375 1.485 1.6875 2.25 C3.94096218 4.92979286 6.23470981 6.8728537 9 9 C10.0173873 9.98230498 11.02596117 10.97469597 12 12 C10.68 12.33 9.36 12.66 8 13 C8 12.34 8 11.68 8 11 C6.68 10.67 5.36 10.34 4 10 C4 9.34 4 8.68 4 8 C3.01 8 2.02 8 1 8 C-0.35439668 5.29120665 -0.06501451 2.99066732 0 0 Z " fill="#940C19" transform="translate(445,429)"/>
<path d="M0 0 C0.556875 0.391875 1.11375 0.78375 1.6875 1.1875 C-0.31282373 2.18766187 -2.14375748 2.68146008 -4.3125 3.1875 C-4.6425 5.1675 -4.9725 7.1475 -5.3125 9.1875 C-3.0025 9.8475 -0.6925 10.5075 1.6875 11.1875 C0.6975 12.6725 0.6975 12.6725 -0.3125 14.1875 C-0.9725 14.1875 -1.6325 14.1875 -2.3125 14.1875 C-2.9725 13.1975 -3.6325 12.2075 -4.3125 11.1875 C-5.3025 10.8575 -6.2925 10.5275 -7.3125 10.1875 C-7.74530791 4.90724352 -7.74530791 4.90724352 -7.3125 2.1875 C-4.67737494 -0.30122922 -3.50979442 -1.23317101 0 0 Z " fill="#C5DC5F" transform="translate(764.3125,396.8125)"/>
<path d="M0 0 C0.66 0 1.32 0 2 0 C2 0.66 2 1.32 2 2 C0.34997172 3.35386936 -1.3174387 4.68678142 -3 6 C-3.33 6.66 -3.66 7.32 -4 8 C-2.7934375 8.433125 -2.7934375 8.433125 -1.5625 8.875 C1 10 1 10 2 12 C-2.03321763 10.78065514 -5.54269479 9.44045073 -9 7 C-9 6.34 -9 5.68 -9 5 C-8.071875 4.731875 -7.14375 4.46375 -6.1875 4.1875 C-3.1688359 3.06289965 -2.0844857 2.29293427 0 0 Z " fill="#C8D458" transform="translate(780,330)"/>
<path d="M0 0 C2.5625 0.875 2.5625 0.875 5 2 C5.66 2 6.32 2 7 2 C7.66 3.98 8.32 5.96 9 8 C4.38486888 6.68139111 0.90102388 4.78644563 -3 2 C-2.01 1.34 -1.02 0.68 0 0 Z " fill="#D4DBDD" transform="translate(287,512)"/>
<path d="M0 0 C5.2250023 5.45217631 4.14722074 13.93340453 4 21 C2.14046922 17.74191457 1.46176194 14.75537475 0.875 11.0625 C0.70742188 10.04285156 0.53984375 9.02320313 0.3671875 7.97265625 C0.03385435 5.27407618 -0.06998996 2.71461065 0 0 Z " fill="#D9DFE7" transform="translate(294,490)"/>
<path d="M0 0 C1.2065625 0.0309375 1.2065625 0.0309375 2.4375 0.0625 C2.81968767 1.71864657 3.15145102 3.38707024 3.4375 5.0625 C2.4375 6.0625 2.4375 6.0625 -0.125 6.125 C-1.3315625 6.0940625 -1.3315625 6.0940625 -2.5625 6.0625 C-2.94468767 4.40635343 -3.27645102 2.73792976 -3.5625 1.0625 C-2.5625 0.0625 -2.5625 0.0625 0 0 Z " fill="#E2DE53" transform="translate(221.5625,322.9375)"/>
<path d="M0 0 C1.67542976 0.28604898 3.34385343 0.61781233 5 1 C5 2.65 5 4.3 5 6 C3.34385343 6.38218767 1.67542976 6.71395102 0 7 C-1 6 -1 6 -1.125 3.5 C-1 1 -1 1 0 0 Z " fill="#EFDF5D" transform="translate(292,237)"/>
<path d="M0 0 C0.66 0 1.32 0 2 0 C3.45184478 4.53701494 4.23509196 8.18061476 4 13 C3.34 13 2.68 13 2 13 C1.67 13.99 1.34 14.98 1 16 C0.67 10.72 0.34 5.44 0 0 Z " fill="#AFBBCC" transform="translate(677,361)"/>
<path d="M0 0 C2.625 0.375 2.625 0.375 5 1 C4.67 2.65 4.34 4.3 4 6 C2.35 6 0.7 6 -1 6 C-1.625 4.125 -1.625 4.125 -2 2 C-1.34 1.34 -0.68 0.68 0 0 Z " fill="#F2DA57" transform="translate(736,351)"/>
<path d="M0 0 C0.33 0 0.66 0 1 0 C1 5.94 1 11.88 1 18 C-1 16 -1 16 -1.125 13.375 C-1.08375 12.59125 -1.0425 11.8075 -1 11 C-1.66 11 -2.32 11 -3 11 C-3.32434322 6.35108046 -2.776422 3.77593392 0 0 Z " fill="#FBE4E0" transform="translate(544,413)"/>
<path d="M0 0 C0.99 0.33 1.98 0.66 3 1 C0.59820315 3.40179685 0.03049993 3.25598087 -3.24609375 3.265625 C-4.50196289 3.26949219 -4.50196289 3.26949219 -5.78320312 3.2734375 C-6.65912109 3.26570313 -7.53503906 3.25796875 -8.4375 3.25 C-9.30955078 3.25773437 -10.18160156 3.26546875 -11.08007812 3.2734375 C-11.91861328 3.27085937 -12.75714844 3.26828125 -13.62109375 3.265625 C-14.3886499 3.26336914 -15.15620605 3.26111328 -15.94702148 3.25878906 C-18 3 -18 3 -21 1 C-20.15236084 1.00785522 -20.15236084 1.00785522 -19.28759766 1.01586914 C-16.7334097 1.03662422 -14.17923947 1.0496554 -11.625 1.0625 C-10.73554688 1.07087891 -9.84609375 1.07925781 -8.9296875 1.08789062 C-8.07890625 1.09111328 -7.228125 1.09433594 -6.3515625 1.09765625 C-5.17327881 1.10551147 -5.17327881 1.10551147 -3.97119141 1.11352539 C-1.92227332 1.12573953 -1.92227332 1.12573953 0 0 Z " fill="#FB9E96" transform="translate(364,417)"/>
<path d="M0 0 C2.99324263 1.0975223 3.84610901 1.67682892 5.25 4.625 C5.4975 5.40875 5.745 6.1925 6 7 C2.58978257 6.21302675 -0.68885166 5.12880057 -4 4 C-2.68 2.68 -1.36 1.36 0 0 Z " fill="#F2A49F" transform="translate(584,414)"/>
<path d="M0 0 C0 3 0 3 -1.2421875 4.39453125 C-2.05042969 5.09642578 -2.05042969 5.09642578 -2.875 5.8125 C-5.83602175 8.59893321 -7.04461089 10.98736573 -8 15 C-8.33 15 -8.66 15 -9 15 C-9.49673465 10.82742897 -9.22039677 9.31222876 -6.75 5.8125 C-4.5779013 3.59103542 -2.57377575 1.7158505 0 0 Z " fill="#FAA39F" transform="translate(334,389)"/>
<path d="M0 0 C0.66 0.33 1.32 0.66 2 1 C1.34 2.98 0.68 4.96 0 7 C-2.475 6.01 -2.475 6.01 -5 5 C-5 4.01 -5 3.02 -5 2 C-2.625 0.9375 -2.625 0.9375 0 0 Z " fill="#C6ED97" transform="translate(240,282)"/>
<path d="M0 0 C0.99 0.33 1.98 0.66 3 1 C3.83796731 5.65537393 4.0161692 9.37078475 3 14 C2.67 14 2.34 14 2 14 C-0.29612756 4.58997722 -0.29612756 4.58997722 0 0 Z " fill="#99A5B6" transform="translate(290,491)"/>
<path d="M0 0 C0.66 0.33 1.32 0.66 2 1 C1.67 1.33 1.34 1.66 1 2 C1.66 2.66 2.32 3.32 3 4 C1.73392393 4.53229326 0.46189588 5.05044544 -0.8125 5.5625 C-1.52019531 5.85253906 -2.22789062 6.14257812 -2.95703125 6.44140625 C-5 7 -5 7 -8 6 C-5.36 4.02 -2.72 2.04 0 0 Z " fill="#28292F" transform="translate(657,475)"/>
<path d="M0 0 C0.66 0 1.32 0 2 0 C2.66 1.98 3.32 3.96 4 6 C3.34 6 2.68 6 2 6 C2 5.34 2 4.68 2 4 C-0.2477975 6.05233685 -1.0022242 7.00667261 -2 10 C-2.66 10 -3.32 10 -4 10 C-3.52449439 8.51965236 -3.04448784 7.04074979 -2.5625 5.5625 C-2.29566406 4.73878906 -2.02882813 3.91507813 -1.75390625 3.06640625 C-1 1 -1 1 0 0 Z " fill="#D2E379" transform="translate(741,245)"/>
<path d="M0 0 C0.66 0.33 1.32 0.66 2 1 C0.88200014 2.33920838 -0.24461897 3.67122556 -1.375 5 C-2.00148438 5.7425 -2.62796875 6.485 -3.2734375 7.25 C-4.12808594 8.11625 -4.12808594 8.11625 -5 9 C-5.66 9 -6.32 9 -7 9 C-7 9.66 -7 10.32 -7 11 C-7.66 10.67 -8.32 10.34 -9 10 C-7.8758824 8.70756532 -6.75067408 7.41607925 -5.625 6.125 C-4.99851562 5.40570313 -4.37203125 4.68640625 -3.7265625 3.9453125 C-2.52573166 2.5923402 -1.2791655 1.2791655 0 0 Z " fill="#33C5AE" transform="translate(51,38)"/>
<path d="M0 0 C0 3 0 3 -1.3203125 4.5703125 C-5.13740322 7.85862875 -7.76919965 9.74483901 -13 10 C-11.14664454 7.83775196 -9.66266694 6.83492212 -7.0625 5.5625 C-4.05809849 4.02964209 -2.23332091 2.49101178 0 0 Z " fill="#FBA9A1" transform="translate(380,409)"/>
<path d="M0 0 C1.98 0.495 1.98 0.495 4 1 C4 2.65 4 4.3 4 6 C2.35 5.67 0.7 5.34 -1 5 C-0.67 3.35 -0.34 1.7 0 0 Z " fill="#A89E91" transform="translate(395,370)"/>
<path d="M0 0 C2.31 0.66 4.62 1.32 7 2 C6.67 2.99 6.34 3.98 6 5 C4.02 5.33 2.04 5.66 0 6 C0 4.02 0 2.04 0 0 Z " fill="#D0D849" transform="translate(800,333)"/>
<path d="M0 0 C1.98 0 3.96 0 6 0 C5.01 1.485 5.01 1.485 4 3 C5.32 4.32 6.64 5.64 8 7 C4.59687262 5.94124926 1.98646769 4.99097846 -1 3 C-0.67 2.01 -0.34 1.02 0 0 Z " fill="#CEDC6D" transform="translate(712,274)"/>
<path d="M0 0 C0.66 0 1.32 0 2 0 C2 0.99 2 1.98 2 3 C1.34 3 0.68 3 0 3 C0 3.66 0 4.32 0 5 C-3.46153846 8 -3.46153846 8 -6 8 C-6 8.66 -6 9.32 -6 10 C-6.66 10 -7.32 10 -8 10 C-6.63928617 5.1014302 -4.24735734 3.58534795 0 1 C0 0.67 0 0.34 0 0 Z " fill="#40C896" transform="translate(695,219)"/>
<path d="M0 0 C-0.125 1.875 -0.125 1.875 -1 4 C-4.0625 5.25 -4.0625 5.25 -7 6 C-6.6875 4.125 -6.6875 4.125 -6 2 C-3 0 -3 0 0 0 Z " fill="#F1F1F2" transform="translate(723,679)"/>
<path d="M0 0 C3.375 -0.125 3.375 -0.125 7 0 C7.66 0.66 8.32 1.32 9 2 C8 3 8 3 6.15234375 3.09765625 C4.1015625 3.06510417 2.05078125 3.03255208 0 3 C0 2.01 0 1.02 0 0 Z " fill="#F4F4F6" transform="translate(751,693)"/>
<path d="M0 0 C2.64 0.33 5.28 0.66 8 1 C8 2.65 8 4.3 8 6 C6.02 6.33 4.04 6.66 2 7 C3.32 6.34 4.64 5.68 6 5 C4.60804085 2.2160817 2.84424221 2.02101003 0 1 C0 0.67 0 0.34 0 0 Z " fill="#40C698" transform="translate(277,280)"/>
<path d="M0 0 C0.66 0.33 1.32 0.66 2 1 C0.50079488 4.11373372 -1.08152136 7.12228205 -3 10 C-3.66 10 -4.32 10 -5 10 C-3.84414715 6.08788267 -2.64465038 3.1254959 0 0 Z " fill="#C7F5F3" transform="translate(213,360)"/>
<path d="M0 0 C1.9375 0.75 1.9375 0.75 4 2 C4.75 4.125 4.75 4.125 5 6 C4.34 6 3.68 6 3 6 C3 5.34 3 4.68 3 4 C2.01 4 1.02 4 0 4 C0 4.99 0 5.98 0 7 C-0.66 7 -1.32 7 -2 7 C-1.34 4.69 -0.68 2.38 0 0 Z " fill="#C0DB61" transform="translate(787,318)"/>
<path d="M0 0 C0.5625 1.9375 0.5625 1.9375 1 4 C0.67 4.33 0.34 4.66 0 5 C-0.23427778 7.01594582 -0.41336124 9.038474 -0.5625 11.0625 C-0.64628906 12.16722656 -0.73007812 13.27195312 -0.81640625 14.41015625 C-0.87699219 15.26480469 -0.93757813 16.11945313 -1 17 C-1.33 17 -1.66 17 -2 17 C-2.05398987 14.72942623 -2.09278742 12.45848712 -2.125 10.1875 C-2.14820313 8.92292969 -2.17140625 7.65835937 -2.1953125 6.35546875 C-2 3 -2 3 0 0 Z " fill="#FBE0DC" transform="translate(321,390)"/>
<path d="M0 0 C0 0.99 0 1.98 0 3 C-2.31 3 -4.62 3 -7 3 C-7.33 2.34 -7.66 1.68 -8 1 C-5.29120665 -0.35439668 -2.99066732 -0.06501451 0 0 Z " fill="#CBD3DF" transform="translate(603,728)"/>
<path d="M0 0 C1.65 0 3.3 0 5 0 C5 1.32 5 2.64 5 4 C3.35 4 1.7 4 0 4 C0 2.68 0 1.36 0 0 Z " fill="#1B9973" transform="translate(776,489)"/>
<path d="M0 0 C0.99 0.33 1.98 0.66 3 1 C3.6875 3.0625 3.6875 3.0625 4 5 C4.99 5 5.98 5 7 5 C7.33 5.99 7.66 6.98 8 8 C7.01 8 6.02 8 5 8 C3.61328125 6.50390625 3.61328125 6.50390625 2.3125 4.5625 C1.87550781 3.92441406 1.43851562 3.28632813 0.98828125 2.62890625 C0 1 0 1 0 0 Z " fill="#68171B" transform="translate(442,432)"/>
<path d="M0 0 C0 0.66 0 1.32 0 2 C-0.99 2 -1.98 2 -3 2 C-3.4640625 2.928125 -3.4640625 2.928125 -3.9375 3.875 C-4.625 5.25 -5.3125 6.625 -6 8 C-6.66 8 -7.32 8 -8 8 C-6.65580512 3.85539913 -4.87800266 0 0 0 Z " fill="#2FC39A" transform="translate(274,290)"/>
<path d="M0 0 C1.32 0 2.64 0 4 0 C4 1.65 4 3.3 4 5 C2.68 4.67 1.36 4.34 0 4 C0 2.68 0 1.36 0 0 Z " fill="#92807B" transform="translate(548,400)"/>
<path d="M0 0 C-0.625 1.875 -0.625 1.875 -2 4 C-5.125 5.25 -5.125 5.25 -8 6 C-3.38461538 0 -3.38461538 0 0 0 Z " fill="#44C893" transform="translate(760,283)"/>
<path d="M0 0 C1.0625 1.8125 1.0625 1.8125 2 4 C1.67 4.99 1.34 5.98 1 7 C-0.32 7 -1.64 7 -3 7 C-2.690625 6.401875 -2.38125 5.80375 -2.0625 5.1875 C-0.89790296 2.91043228 -0.89790296 2.91043228 0 0 Z " fill="#C8D2DE" transform="translate(686,701)"/>
<path d="M0 0 C0.33 0.66 0.66 1.32 1 2 C-2.625 6.875 -2.625 6.875 -6 8 C-4.55746343 4.63408134 -2.66735273 2.48952921 0 0 Z " fill="#FBCCC6" transform="translate(611,446)"/>
<path d="M0 0 C0.66 0.33 1.32 0.66 2 1 C-1.465 3.97 -1.465 3.97 -5 7 C-5.33 5.68 -5.66 4.36 -6 3 C-5.195625 2.690625 -4.39125 2.38125 -3.5625 2.0625 C-1.10919595 1.23664655 -1.10919595 1.23664655 0 0 Z " fill="#82181D" transform="translate(481,436)"/>
<path d="M0 0 C0.66 0.33 1.32 0.66 2 1 C-0.97 3.475 -0.97 3.475 -4 6 C-4.66 5.67 -5.32 5.34 -6 5 C-4.02 3.35 -2.04 1.7 0 0 Z " fill="#FB9C94" transform="translate(377,410)"/>
<path d="M0 0 C0.66 0 1.32 0 2 0 C2.6875 2.8125 2.6875 2.8125 3 6 C2.01 6.99 1.02 7.98 0 9 C0 6.03 0 3.06 0 0 Z " fill="#444D5C" transform="translate(293,499)"/>
<path d="M0 0 C6.75 0.75 6.75 0.75 9 3 C3.46153846 3.36923077 3.46153846 3.36923077 1.125 1.5 C0.75375 1.005 0.3825 0.51 0 0 Z " fill="#FC9F96" transform="translate(568,450)"/>
</svg>
